<svg preserveAspectRatio="xMidYMid meet" viewBox="-0.02266396000000004 -0.02266396000000004 399.504 399.504" version="1.0" xmlns="http://www.w3.org/2000/svg" style="max-height: 500px" width="399.504" height="399.504"><g stroke-width="0" id="deeditor_bgCarrier">
    <rect fill="#ffffff" rx="0" height="406" width="406" y="-3" x="-3" id="dee_c_e"/>
  </g>
<metadata fill="#0e65f2">
Created by potrace 1.16, written by Peter Selinger 2001-2019
</metadata>
<g stroke="none" fill="#0e65f2" transform="translate(0.000000,400.000000) scale(0.100000,-0.100000)">
<path fill="#0e65f2" d="M0 2000 l0 -2000 2000 0 2000 0 0 2000 0 2000 -2000 0 -2000 0 0 -2000z m2240 1314 c235 -42 471 -158 650 -318 287 -258 443 -609 443 -996 0 -648 -452 -1191 -1094 -1315 -114 -22 -365 -22 -479 0 -411 79 -770 347 -952 710 -159 315 -186 716 -72 1037 133 373 404 660 759 805 229 93 497 120 745 77z"/>
<path fill="#0e65f2" d="M1810 2945 c-225 -46 -453 -188 -575 -360 -139 -194 -195 -364 -195 -585 0 -221 56 -391 195 -585 126 -178 366 -323 599 -364 84 -15 261 -14 348 3 143 28 265 82 403 181 178 126 323 366 364 599 15 84 14 261 -3 348 -37 189 -144 388 -279 515 -55 52 -216 163 -236 163 -8 0 -11 -59 -11 -191 l0 -191 49 -56 c206 -238 213 -581 18 -824 -66 -83 -216 -181 -309 -204 l-28 -6 0 780 c0 702 -2 780 -16 786 -28 11 -257 4 -324 -9z m60 -946 l0 -612 -36 6 c-91 15 -250 117 -321 205 -222 276 -178 680 97 896 79 62 186 114 238 115 l22 1 0 -611z"/>
</g>
</svg>