<?xml version="1.0" encoding="utf-8"?>
<svg style="max-height: 500px" viewBox="24.3333 23.6667 450 451" y="0px" x="0px" xmlns="http://www.w3.org/2000/svg" id="Layer_1" version="1.1" width="450" height="451">
  <g/>
  <g>
    <path d="M122.132,30c50.882,0,92.132,41.236,92.132,92.109c0,49.999-39.856,90.663-89.535,92.043 c0,4.231,0.187,12.223,2.581,17.049c3.321,6.693,23.245,19.155,42.783,19.155l0,0h7.019c4.411-31.404,31.378-55.571,64.006-55.571 c32.495,0,59.383,23.97,63.957,55.188l0,0h36.316c4.575-31.218,31.462-55.188,63.957-55.188c35.706,0,64.653,28.938,64.653,64.637 c0,35.697-28.947,64.635-64.653,64.635c-32.495,0-59.383-23.972-63.957-55.19l0,0h-36.314c-4.574,31.218-31.462,55.19-63.958,55.19 c-32.434,0-59.286-23.879-63.935-55.012l0,0l-7.761,0.231c-12.779-0.096-26.279-3.508-37.122-10.876 c-2.956-2.009-5.868-4.12-8.906-6.12l0,0l-0.001,4.197c-0.017,1.357-0.261,21.754-0.281,44.401l-0.001,4.795 c0.009,14.852,0.127,30.155,0.476,41.317c0.767,24.487,20.685,44.25,42.664,48.876c2.857,0.6,7.769,0.677,10.864,0.409 c4.419-31.393,31.383-55.55,64.002-55.55c35.706,0,64.653,28.939,64.653,64.637S276.823,470,241.117,470 c-32.259,0-58.993-23.622-63.856-54.508l0,0h-5.592c-41.999-2.292-68.111-40.814-67.656-72.056 c0.575-39.32,0.142-78.656,0.135-117.986l0,0V212.45C61.876,204.086,30,166.823,30,122.109C30,71.236,71.248,30,122.132,30z M241.117,359.621c-25.268,0-45.753,20.48-45.753,45.743s20.485,45.743,45.753,45.743c25.269,0,45.754-20.48,45.754-45.743 S266.387,359.621,241.117,359.621z M241.117,213.679c-25.268,0-45.753,20.48-45.753,45.743c0,25.261,20.485,45.741,45.753,45.741 c25.269,0,45.754-20.48,45.754-45.741C286.871,234.159,266.387,213.679,241.117,213.679z M405.347,213.679 c-25.269,0-45.753,20.48-45.753,45.743c0,25.261,20.483,45.741,45.753,45.741s45.754-20.48,45.754-45.741 C451.101,234.159,430.616,213.679,405.347,213.679z M431.404,240.163c3.6,3.591,3.699,9.362,0.293,13.072l-0.276,0.29 l-28.032,28.092c-3.572,3.58-9.306,3.7-13.023,0.34l-0.296-0.28l-13.724-13.509c-3.718-3.661-3.766-9.642-0.104-13.36 c3.569-3.623,9.339-3.76,13.073-0.378l0.29,0.276l7.034,6.922l21.401-21.446C421.726,236.485,427.709,236.478,431.404,240.163z M266.421,240.024c3.6,3.591,3.699,9.362,0.293,13.073l-0.276,0.288l-28.032,28.092c-3.572,3.58-9.306,3.7-13.023,0.34l-0.296-0.28 l-13.724-13.509c-3.718-3.661-3.766-9.642-0.104-13.36c3.567-3.623,9.339-3.76,13.073-0.376l0.29,0.274l7.034,6.922l21.401-21.446 C256.743,236.348,262.727,236.34,266.421,240.024z M122.132,48.894c-40.445,0-73.233,32.778-73.233,73.215 c0,40.435,32.788,73.215,73.233,73.215s73.233-32.78,73.233-73.215C195.365,81.672,162.577,48.894,122.132,48.894z M114.512,78.349 c15.407,9.257,30.607,18.831,45.6,28.722c12.56,8.285,12.528,23.311-0.172,31.615c-15.261,9.986-30.764,19.56-46.507,28.724 c-12.813,7.458-27.156-1.118-27.504-16.06c-0.224-9.63-0.041-19.269-0.054-28.905c-0.011-9.375-0.195-18.754,0.031-28.124 C86.29,78.426,100.922,70.144,114.512,78.349z M104.355,93.597v6.649c-0.002,3.292-0.002,6.541-0.003,9.753l-0.002,6.377v9.42 c0.002,7.271,0.005,14.427,0.017,21.583c0.006,3.368,1.759,3.231,4.027,1.826c13.072-8.102,26.15-16.195,39.234-24.281 c2.162-1.334,2.224-2.727,0.102-4.065C133.718,112.028,119.686,103.226,104.355,93.597z" style="fill: rgb(74, 126, 191); opacity: 1;" data-index="64"/>
    <path d="M258.984,414.792c5.218,0,9.449-4.229,9.449-9.447c0-5.216-4.232-9.447-9.449-9.447 c-5.218,0-9.449,4.231-9.449,9.447C249.535,410.563,253.766,414.792,258.984,414.792" style="fill:#85B3DF;" data-index="65"/>
    <path d="M222.807,414.792c5.218,0,9.449-4.229,9.449-9.447c0-5.216-4.232-9.447-9.449-9.447 c-5.218,0-9.449,4.231-9.449,9.447C213.358,410.563,217.59,414.792,222.807,414.792" style="fill:#85B3DF;" data-index="66"/>
    <path d="M405.347,451.106c-25.269,0-45.753-20.48-45.753-45.743s20.483-45.743,45.753-45.743 c25.268,0,45.754,20.48,45.754,45.743S430.615,451.106,405.347,451.106 M405.347,340.726c-32.495,0-59.383,23.972-63.957,55.19 h-10.574c-4.616,0-8.361,4.231-8.361,9.447c0,5.218,3.745,9.447,8.361,9.447h10.574c4.574,31.218,31.462,55.19,63.957,55.19 C441.053,470,470,441.061,470,405.363S441.053,340.726,405.347,340.726" style="fill: rgb(133, 179, 223); opacity: 1;" data-index="67"/>
  </g>
</svg>