<?xml version="1.0" encoding="UTF-8"?>
<svg version="1.1" xmlns="http://www.w3.org/2000/svg" width="340" height="380">
<path d="M0 0 C3.125 -0.1875 3.125 -0.1875 6 0 C9.1520374 6.65698786 11.56816647 13.41173806 13.78515625 20.4296875 C14.12751816 21.50066681 14.46988007 22.57164612 14.82261658 23.67507935 C15.54178662 25.9282894 16.25850973 28.18228178 16.97290039 30.43701172 C18.0576163 33.85959057 19.15021769 37.27957288 20.24414062 40.69921875 C20.94577874 42.90089314 21.64696549 45.10271143 22.34765625 47.3046875 C22.83057884 48.8177095 22.83057884 48.8177095 23.32325745 50.36129761 C23.63045212 51.33245514 23.93764679 52.30361267 24.25415039 53.30419922 C24.51966202 54.14087128 24.78517365 54.97754333 25.05873108 55.83956909 C26.45725578 60.53529483 27.71083986 65.27307947 29 70 C52.76 70 76.52 70 101 70 C101.99 66.37 102.98 62.74 104 59 C104.63699477 56.88096563 105.28791821 54.76599471 105.96118164 52.65820312 C106.3148732 51.54755493 106.66856476 50.43690674 107.03297424 49.29260254 C107.40494431 48.1338562 107.77691437 46.97510986 108.16015625 45.78125 C108.55069687 44.56095093 108.94123749 43.34065186 109.34361267 42.08337402 C110.16300627 39.52476132 110.98433223 36.96677849 111.80688477 34.40917969 C112.85966479 31.13466158 113.90584675 27.85807513 114.95044804 24.58094025 C115.9536278 21.43802121 116.96354777 18.29726955 117.97265625 15.15625 C118.34665054 13.98130981 118.72064484 12.80636963 119.10597229 11.5958252 C119.45651169 10.51039429 119.80705109 9.42496338 120.16821289 8.30664062 C120.47449112 7.35164673 120.78076935 6.39665283 121.09632874 5.41271973 C122 3 122 3 124 0 C127.125 -0.1875 127.125 -0.1875 130 0 C132.78338315 5.11370619 134.5298194 10.35992767 136.265625 15.90625 C136.57622864 16.88364639 136.88683228 17.86104279 137.20684814 18.86805725 C138.22587502 22.07725426 139.23815501 25.288532 140.25 28.5 C141.67961503 33.02038201 143.11247092 37.53972927 144.546875 42.05859375 C145.09480713 43.78637306 145.09480713 43.78637306 145.65380859 45.54905701 C148.17080006 53.46144891 150.75910973 61.34768196 153.390625 69.22265625 C154.0883203 71.32027786 154.78591339 73.41793347 155.48339844 75.515625 C156.48198433 78.51750455 157.48475127 81.517599 158.5020752 84.51318359 C159.44033121 87.27711134 160.36220859 90.04604105 161.28125 92.81640625 C161.55857971 93.61748306 161.83590942 94.41855988 162.12164307 95.24391174 C163.79664918 100.35592887 165.06242909 105.62307487 164 111 C161.99088852 113.54352116 159.67773902 115.19780909 157 117 C155.66963877 117.98963088 154.34022949 118.9805426 153.01171875 119.97265625 C151.57256928 121.00575522 150.13105959 122.03557235 148.6875 123.0625 C147.087179 124.20955089 145.48692033 125.35668876 143.88671875 126.50390625 C143.07509277 127.08414551 142.2634668 127.66438477 141.42724609 128.26220703 C137.60920324 130.99574445 133.80496642 133.74830571 130 136.5 C125.51405138 139.74152875 121.02695126 142.98141986 116.53515625 146.21484375 C109.62870367 151.18942148 102.73569772 156.18004586 95.88891602 161.23657227 C94.30644823 162.40470357 92.72231941 163.57058829 91.13647461 164.73413086 C87.05226282 167.7322014 82.99718515 170.76080458 78.9765625 173.84375 C77.35948203 175.06264201 75.74229821 176.28139692 74.125 177.5 C73.38185547 178.08265625 72.63871094 178.6653125 71.87304688 179.265625 C66.74171361 183.09398814 66.74171361 183.09398814 63.44140625 182.67578125 C60.16159633 180.42451972 56.9566409 178.1254723 53.8125 175.6875 C52.37998129 174.59494317 50.9463461 173.50384901 49.51171875 172.4140625 C48.76970215 171.84977539 48.02768555 171.28548828 47.26318359 170.70410156 C43.58859628 167.93726019 39.85936715 165.24783724 36.125 162.5625 C35.37581299 162.02326904 34.62662598 161.48403809 33.85473633 160.9284668 C32.33086689 159.83226446 30.80669649 158.73648038 29.28222656 157.64111328 C25.51700953 154.93360484 21.75878552 152.21642636 18 149.5 C13.51393496 146.25863196 9.02695159 143.01858038 4.53515625 139.78515625 C-3.41802627 134.05719852 -11.34987753 128.30097111 -19.25 122.5 C-20.42937134 121.63677124 -20.42937134 121.63677124 -21.63256836 120.75610352 C-23.10098467 119.6750735 -24.56185401 118.58369005 -26.01367188 117.48046875 C-27.94970729 116.00045995 -27.94970729 116.00045995 -29.87695312 114.80078125 C-31.546875 113.65625 -31.546875 113.65625 -34 111 C-34.69430454 103.54979046 -32.96018632 97.64034934 -30.5546875 90.63671875 C-30.19271271 89.54662003 -29.83073792 88.4565213 -29.45779419 87.33338928 C-28.27556028 83.78061265 -27.07530327 80.23420795 -25.875 76.6875 C-24.63909586 72.9890236 -23.4078807 69.28900852 -22.17706299 65.58883667 C-21.34322894 63.0827445 -20.50789346 60.5771514 -19.67108154 58.072052 C-16.96728105 49.96546859 -14.32988468 41.84071591 -11.7578125 33.69140625 C-11.43424774 32.66637497 -11.11068298 31.64134369 -10.77731323 30.58525085 C-9.54975431 26.68909326 -8.32534151 22.79198537 -7.10784912 18.89266968 C-6.28402317 16.25536427 -5.45484829 13.61979026 -4.625 10.984375 C-4.38621124 10.2119899 -4.14742249 9.4396048 -3.90139771 8.64381409 C-2.87756612 5.40168073 -1.89981409 2.84972114 0 0 Z " fill="#FB6C26" transform="translate(105,12)"/>
<path d="M0 0 C3.7165452 3.57667522 6.97674755 7.34886046 10.125 11.4375 C11.10015755 12.69148625 12.07542083 13.94539028 13.05078125 15.19921875 C13.54271973 15.8339209 14.0346582 16.46862305 14.54150391 17.12255859 C16.34576637 19.44508594 18.1645999 21.75587328 19.98510742 24.06567383 C27.64301603 33.78278096 35.2218612 43.5616197 42.81152344 53.33203125 C49.12416627 61.45755312 55.44346023 69.57718488 61.80834961 77.66186523 C67.331424 84.68285975 72.8071784 91.74073034 78.28710938 98.79541016 C81.18988754 102.53145446 84.09498957 106.26569132 87 110 C90.27379706 108.90873431 90.74721195 108.36971004 92.71484375 105.7109375 C93.23006592 105.02418945 93.74528809 104.33744141 94.27612305 103.62988281 C94.82437744 102.88577148 95.37263184 102.14166016 95.9375 101.375 C97.10791486 99.81400831 98.27982062 98.25413348 99.453125 96.6953125 C100.04544922 95.90672852 100.63777344 95.11814453 101.24804688 94.30566406 C103.8330231 90.90369703 106.50310865 87.57371994 109.1875 84.25 C113.28814023 79.15925077 117.31923422 74.02375701 121.29077148 68.83178711 C124.24794028 64.96860713 127.2389946 61.13384652 130.25 57.3125 C134.52107668 51.89125335 138.76637071 46.45053928 143 41 C147.57928677 35.10518879 152.17435643 29.22349822 156.79223633 23.35888672 C162.89636112 15.59984582 168.94498479 7.79737945 175 0 C177 1 177 1 178.14501953 3.81640625 C180.42407455 10.71380669 180.42407455 10.71380669 181.42333984 13.82568359 C182.11483287 15.96849393 182.82798117 18.10321452 183.54296875 20.23828125 C188.23991008 34.52636421 188.23991008 34.52636421 187 41 C185.02107802 43.55248987 182.66393055 45.20710257 180 47 C178.66963877 47.98963088 177.34022949 48.9805426 176.01171875 49.97265625 C174.57256928 51.00575522 173.13105959 52.03557235 171.6875 53.0625 C170.087179 54.20955089 168.48692033 55.35668876 166.88671875 56.50390625 C166.07509277 57.08414551 165.2634668 57.66438477 164.42724609 58.26220703 C160.60920324 60.99574445 156.80496642 63.74830571 153 66.5 C148.51405138 69.74152875 144.02695126 72.98141986 139.53515625 76.21484375 C132.62870367 81.18942148 125.73569772 86.18004586 118.88891602 91.23657227 C117.30644823 92.40470357 115.72231941 93.57058829 114.13647461 94.73413086 C110.05226282 97.7322014 105.99718515 100.76080458 101.9765625 103.84375 C100.35948203 105.06264201 98.74229821 106.28139692 97.125 107.5 C96.38185547 108.08265625 95.63871094 108.6653125 94.87304688 109.265625 C89.74171361 113.09398814 89.74171361 113.09398814 86.44140625 112.67578125 C83.16159633 110.42451972 79.9566409 108.1254723 76.8125 105.6875 C75.37998129 104.59494317 73.9463461 103.50384901 72.51171875 102.4140625 C71.39869385 101.56763184 71.39869385 101.56763184 70.26318359 100.70410156 C66.58859628 97.93726019 62.85936715 95.24783724 59.125 92.5625 C58.37581299 92.02326904 57.62662598 91.48403809 56.85473633 90.9284668 C55.33086689 89.83226446 53.80669649 88.73648038 52.28222656 87.64111328 C48.51700953 84.93360484 44.75878552 82.21642636 41 79.5 C36.51393496 76.25863196 32.02695159 73.01858038 27.53515625 69.78515625 C19.58197373 64.05719852 11.65012247 58.30097111 3.75 52.5 C2.57062866 51.63677124 2.57062866 51.63677124 1.36743164 50.75610352 C-0.10098467 49.6750735 -1.56185401 48.58369005 -3.01367188 47.48046875 C-4.94970729 46.00045995 -4.94970729 46.00045995 -6.87695312 44.80078125 C-8.546875 43.65625 -8.546875 43.65625 -11 41 C-12.54034034 32.4093019 -8.78715789 24.06587431 -6.0625 16 C-5.58804301 14.55636693 -5.11472596 13.11235869 -4.64257812 11.66796875 C-1.18519512 1.18519512 -1.18519512 1.18519512 0 0 Z " fill="#FBA126" transform="translate(82,82)"/>
<path d="M0 0 C3.125 -0.1875 3.125 -0.1875 6 0 C9.00817476 5.45502377 10.79026713 11.17275154 12.65234375 17.1015625 C12.99374893 18.17441498 13.33515411 19.24726746 13.68690491 20.35263062 C14.77508039 23.77530016 15.85650934 27.20005524 16.9375 30.625 C18.01633569 34.02805821 19.09656623 37.43067001 20.17738342 40.83309937 C20.84782374 42.94528563 21.51689556 45.05790698 22.18431091 47.17105103 C22.49465775 48.1518161 22.80500458 49.13258118 23.12475586 50.14306641 C23.57490555 51.57866913 23.57490555 51.57866913 24.03414917 53.04327393 C24.71624772 55.13135887 25.44101489 57.20573564 26.19558716 59.26873779 C26.58036224 60.33295959 26.96513733 61.3971814 27.36157227 62.49365234 C27.72187027 63.45363129 28.08216827 64.41361023 28.4533844 65.40267944 C29 68 29 68 28.17254639 70.23983765 C27.02331388 71.96500248 25.87843933 73.6679375 24.63671875 75.328125 C23.93482422 76.26785156 23.93482422 76.26785156 23.21875 77.2265625 C22.7134375 77.89429687 22.208125 78.56203125 21.6875 79.25 C21.15769531 79.95382813 20.62789063 80.65765625 20.08203125 81.3828125 C15.80242812 87.0286739 11.35672632 92.52520129 6.8581543 97.99707031 C3.11092973 102.57521333 -0.48033004 107.2451952 -4 112 C-8.03404273 117.44968305 -12.19373635 122.76279056 -16.5 128 C-21.35266387 133.9029803 -25.99533726 139.92601876 -30.54638672 146.0637207 C-34.45370345 151.31663332 -38.50401603 156.43887177 -42.61450195 161.53369141 C-47.51250442 167.61088776 -52.26860292 173.79265825 -57 180 C-58.15918871 176.52243387 -57.81366431 175.69335315 -56.68334961 172.30883789 C-56.36757462 171.34832016 -56.05179962 170.38780243 -55.72645569 169.3981781 C-55.37199875 168.35025589 -55.01754181 167.30233368 -54.65234375 166.22265625 C-54.28922592 165.12506485 -53.92610809 164.02747345 -53.55198669 162.8966217 C-52.76586429 160.52332843 -51.97572859 158.15136162 -51.18206787 155.78057861 C-49.2971019 150.14934563 -47.43551167 144.51041363 -45.57208252 138.87202454 C-44.93873915 136.95677838 -44.30430188 135.0418973 -43.66967773 133.1270752 C-39.81492265 121.48802899 -36.07379341 109.81441233 -32.375 98.125 C-31.83976956 96.43497494 -31.30453214 94.74495208 -30.76928711 93.05493164 C-29.99123793 90.59774644 -29.21337034 88.14050466 -28.43614197 85.68305969 C-26.01212528 78.02374653 -23.56137363 70.3730641 -21.10980225 62.72253418 C-19.01030261 56.16720086 -16.92138575 49.6086142 -14.84170532 43.04696655 C-13.45389054 38.66931278 -12.06231995 34.29285711 -10.67041016 29.91650391 C-9.96112188 27.68328939 -9.2534942 25.4495469 -8.54736328 23.21533203 C-7.50730865 19.92599977 -6.46129616 16.63861506 -5.4140625 13.3515625 C-4.94222031 11.85189438 -4.94222031 11.85189438 -4.46084595 10.32192993 C-4.16648651 9.40181122 -3.87212708 8.4816925 -3.56884766 7.53369141 C-3.31318024 6.72751373 -3.05751282 5.92133606 -2.7940979 5.09072876 C-2 3 -2 3 0 0 Z " fill="#FB6C26" transform="translate(229,12)"/>
<path d="M0 0 C23.76 0 47.52 0 72 0 C71.2614861 4.4310834 70.45305956 7.97637614 69.0234375 12.15234375 C68.60747314 13.38017578 68.19150879 14.60800781 67.76293945 15.87304688 C67.53788727 16.53167725 67.31283508 17.19030762 67.08096313 17.86889648 C61.96774508 32.85157806 57.11085441 47.91401572 52.3125 63 C51.99100983 64.01030273 51.66951965 65.02060547 51.33828735 66.06152344 C49.78225791 70.95225283 48.22757133 75.84340714 46.67382812 80.73486328 C44.48009251 87.63896235 42.27282188 94.53869476 40.0625 101.4375 C39.73870361 102.44876953 39.41490723 103.46003906 39.08129883 104.50195312 C38.38773498 106.66803369 37.69398967 108.83405584 37 111 C36.34 111 35.68 111 35 111 C34.27336138 108.67580502 33.54680781 106.35158352 32.8203125 104.02734375 C32.59441437 103.30473862 32.36851624 102.58213348 32.13577271 101.83763123 C30.99964306 98.20243432 29.86464462 94.5668956 28.73339844 90.93017578 C23.73534486 74.86342964 18.66493612 58.82765375 13.3125 42.875 C13.08499054 42.19687256 12.85748108 41.51874512 12.62307739 40.82006836 C12.39756195 40.14790283 12.17204651 39.4757373 11.93969727 38.78320312 C9.01338622 30.05883604 6.12867809 21.32323357 3.3125 12.5625 C2.97323486 11.51368652 2.63396973 10.46487305 2.28442383 9.38427734 C1.98044678 8.43375488 1.67646973 7.48323242 1.36328125 6.50390625 C1.09813721 5.67705322 0.83299316 4.8502002 0.55981445 3.99829102 C0 2 0 2 0 0 Z " fill="#E24328" transform="translate(134,82)"/>
<path d="M0 0 C1.31244186 -0.00945648 1.31244186 -0.00945648 2.65139771 -0.019104 C3.60029877 -0.01505554 4.54919983 -0.01100708 5.52685547 -0.00683594 C6.50387421 -0.00874939 7.48089294 -0.01066284 8.48751831 -0.01263428 C10.56052914 -0.01399754 12.63354846 -0.01029128 14.70654297 -0.00195312 C17.86038788 0.00867564 21.01365417 -0.00180793 24.16748047 -0.01464844 C26.18310672 -0.01332552 28.19873261 -0.0107604 30.21435547 -0.00683594 C31.15111115 -0.0108844 32.08786682 -0.01493286 33.05300903 -0.019104 C41.72257873 0.04204079 48.4702362 0.95998229 54.76904297 7.25878906 C56.98643467 10.67838038 57.02724932 13.55759975 57.04370117 17.58447266 C57.05799919 19.50699356 57.05799919 19.50699356 57.07258606 21.46835327 C57.07232459 22.86464465 57.07138736 24.26093604 57.06982422 25.65722656 C57.07371331 27.09445316 57.07804842 28.53167861 57.08280945 29.96890259 C57.09026554 32.97995734 57.08998522 35.99089484 57.0847168 39.00195312 C57.07892821 42.85095823 57.09584085 46.69948117 57.11906147 50.5484066 C57.1338318 53.51678246 57.13466596 56.48504315 57.13155174 59.45344925 C57.13206348 60.87195413 57.13727337 62.2904657 57.14736366 63.70893478 C57.15977096 65.69735762 57.15097366 67.68587811 57.14135742 69.67431641 C57.14198685 70.80364594 57.14261627 71.93297546 57.14326477 73.0965271 C56.71112563 76.74820418 55.67212232 79.12619638 53.76904297 82.25878906 C48.77408244 86.19099203 45.0537014 87.3883887 38.81689453 87.37231445 C37.83617981 87.37223892 36.85546509 87.37216339 35.84503174 87.37208557 C34.79386169 87.36692429 33.74269165 87.361763 32.65966797 87.35644531 C31.57772156 87.35503036 30.49577515 87.35361542 29.38104248 87.35215759 C25.92701446 87.34656225 22.47305138 87.33401057 19.01904297 87.32128906 C16.67659599 87.31627346 14.33414799 87.31171066 11.99169922 87.30761719 C6.25079167 87.29659434 0.50992196 87.2798608 -5.23095703 87.25878906 C-6.78518051 84.1503421 -6.37823986 80.85623346 -6.3762207 77.44433594 C-6.37957932 76.63771011 -6.38293793 75.83108429 -6.38639832 75.00001526 C-6.39592032 72.32584099 -6.39785193 69.65172924 -6.39892578 66.97753906 C-6.40213706 65.124308 -6.40550103 63.2710772 -6.40901184 61.41784668 C-6.41500594 57.53067436 -6.41685141 53.64352428 -6.41625977 49.75634766 C-6.41615803 44.76583859 -6.42982089 39.77547143 -6.44703197 34.78499603 C-6.45812766 30.95724833 -6.46017974 27.12953522 -6.45965004 23.30177307 C-6.46083343 21.46130381 -6.46527514 19.62083375 -6.47298241 17.78038025 C-6.4827351 15.21123178 -6.4799233 12.64239524 -6.47387695 10.07324219 C-6.47949646 9.30746353 -6.48511597 8.54168488 -6.49090576 7.75270081 C-6.45727572 2.15449043 -5.80398588 0.01198058 0 0 Z M7.76904297 13.25878906 C7.76904297 33.38878906 7.76904297 53.51878906 7.76904297 74.25878906 C12.98716797 74.32066406 18.20529297 74.38253906 23.58154297 74.44628906 C26.04651245 74.48725708 26.04651245 74.48725708 28.5612793 74.52905273 C29.85316162 74.53654541 31.14504395 74.54403809 32.47607422 74.55175781 C33.15166382 74.56710571 33.82725342 74.58245361 34.52331543 74.5982666 C38.35180301 74.60522294 38.35180301 74.60522294 41.66235352 72.86547852 C43.70147204 69.90509046 43.91023477 67.99177379 43.96191406 64.42944336 C43.97797699 63.42467453 43.99403992 62.4199057 44.0105896 61.38468933 C44.05499402 56.78747183 44.09610235 52.19039931 44.11914062 47.59301758 C44.13570618 45.16713878 44.16300372 42.74130891 44.20117188 40.31567383 C44.25588836 36.82119378 44.27780738 33.32785833 44.29248047 29.83300781 C44.31514984 28.7495256 44.33781921 27.6660434 44.36117554 26.54972839 C44.34788995 21.82186586 44.31172236 19.09247414 41.69067383 15.06591797 C38.02222436 12.79685614 35.79775767 12.68206654 31.49951172 12.77050781 C30.25322998 12.78299561 29.00694824 12.7954834 27.72290039 12.80834961 C25.36355347 12.87662964 25.36355347 12.87662964 22.95654297 12.94628906 C17.94466797 13.04941406 12.93279297 13.15253906 7.76904297 13.25878906 Z " fill="#44417F" transform="translate(283.23095703125,269.7412109375)"/>
<path d="M0 0 C1.27230469 -0.020625 2.54460937 -0.04125 3.85546875 -0.0625 C12.51139436 -0.09823138 20.62294267 0.154707 27.75 5.5 C31.73699763 10.98212173 32.29729885 16.68241382 31.75 23.25 C29.63001543 26.09453625 27.60160607 26.80255494 24.1875 27.5 C23.40246094 27.67015625 22.61742187 27.8403125 21.80859375 28.015625 C19.75 28.25 19.75 28.25 17.75 27.25 C17.4336894 24.72855264 17.3704938 22.23448848 17.2890625 19.6953125 C16.96491184 17.1607965 16.96491184 17.1607965 15.07592773 15.61767578 C12.17876844 13.91410841 10.34320177 13.89082129 6.99609375 13.921875 C5.89458984 13.92703125 4.79308594 13.9321875 3.65820312 13.9375 C2.51287109 13.958125 1.36753906 13.97875 0.1875 14 C-0.96169922 14.00515625 -2.11089844 14.0103125 -3.29492188 14.015625 C-9.37079814 13.98219088 -9.37079814 13.98219088 -15.25 15.25 C-16.51641783 17.78283566 -16.39072952 19.56706799 -16.41113281 22.40234375 C-16.42074036 23.47685791 -16.4303479 24.55137207 -16.44024658 25.65844727 C-16.4466214 27.40532837 -16.4466214 27.40532837 -16.453125 29.1875 C-16.45882507 30.37851318 -16.46452515 31.56952637 -16.47039795 32.79663086 C-16.47985604 35.31851307 -16.48638513 37.84040768 -16.49023438 40.36230469 C-16.49995966 44.2339408 -16.53098426 48.10505064 -16.5625 51.9765625 C-16.56902777 54.42187183 -16.57427912 56.86718498 -16.578125 59.3125 C-16.5904718 60.4770874 -16.6028186 61.6416748 -16.61553955 62.84155273 C-16.61253845 63.91606689 -16.60953735 64.99058105 -16.60644531 66.09765625 C-16.61009094 67.04648682 -16.61373657 67.99531738 -16.61749268 68.97290039 C-16.49622009 69.72434326 -16.37494751 70.47578613 -16.25 71.25 C-11.27977531 74.56348312 -5.58796407 73.57756183 0.25 73.5625 C1.49910156 73.57861328 2.74820313 73.59472656 4.03515625 73.61132812 C5.23011719 73.61197266 6.42507812 73.61261719 7.65625 73.61328125 C9.30077148 73.61775269 9.30077148 73.61775269 10.97851562 73.62231445 C13.75519134 73.47613777 13.75519134 73.47613777 15.59887695 71.88232422 C17.18925636 69.62712237 17.26003314 67.79548963 17.4375 65.0625 C17.50324219 64.16144531 17.56898438 63.26039063 17.63671875 62.33203125 C17.69279297 61.30142578 17.69279297 61.30142578 17.75 60.25 C22.66709616 58.55974819 26.25655426 60.12926159 30.75 62.25 C32.36177168 63.86177168 31.95924854 65.58814944 32 67.8125 C31.919007 74.1029562 30.90192607 79.03991377 26.4375 83.625 C21.04353079 86.88646975 15.99618733 87.55875458 9.7890625 87.55078125 C9.039664 87.55506638 8.2902655 87.5593515 7.51815796 87.56376648 C5.93984991 87.56948372 4.36151552 87.57002935 2.78320312 87.56567383 C0.38885776 87.56251826 -2.00424491 87.58598885 -4.3984375 87.61132812 C-5.94010263 87.61360209 -7.48177104 87.61430416 -9.0234375 87.61328125 C-9.72890717 87.622491 -10.43437683 87.63170074 -11.16122437 87.64118958 C-16.73927644 87.59015143 -22.50481935 86.66622772 -26.81918335 82.86885071 C-30.97041745 78.14715407 -31.36998605 74.40839882 -31.42700195 68.32324219 C-31.43983719 67.12809998 -31.45267242 65.93295776 -31.46589661 64.70159912 C-31.47328354 63.41304016 -31.48067047 62.1244812 -31.48828125 60.796875 C-31.49439454 59.80787579 -31.49439454 59.80787579 -31.50063133 58.79889679 C-31.52145406 55.30782896 -31.53577117 51.81679998 -31.54516602 48.32568359 C-31.55621293 44.73685468 -31.59060276 41.14864877 -31.63033772 37.56003952 C-31.65659907 34.78547079 -31.66486626 32.01104832 -31.66844749 29.23636627 C-31.67563042 27.27554968 -31.70202764 25.31483349 -31.72883606 23.35418701 C-31.71147122 16.18552847 -31.26609566 11.27751006 -27.25 5.25 C-19.58744909 -1.11039081 -9.35453524 0.0374556 0 0 Z " fill="#44417F" transform="translate(231.25,269.75)"/>
<path d="M0 0 C1.82917969 -0.01160156 1.82917969 -0.01160156 3.6953125 -0.0234375 C20.48971075 0.0128355 20.48971075 0.0128355 26.4375 4.5625 C30.55540261 8.88127591 31.27922503 12.55596185 31.25 18.4375 C31.25773437 20.00564453 31.25773437 20.00564453 31.265625 21.60546875 C31 24.25 31 24.25 29 26.25 C26.65234375 26.91796875 26.65234375 26.91796875 23.9375 27.4375 C22.58978516 27.70626953 22.58978516 27.70626953 21.21484375 27.98046875 C20.48394531 28.06941406 19.75304688 28.15835937 19 28.25 C16.85526813 26.10526813 17.11240304 21.72466483 16.6953125 18.81640625 C16.21158448 15.91580308 16.21158448 15.91580308 13 14.25 C8.70246586 13.78129267 4.38282605 13.87965302 0.0625 13.875 C-1.72704102 13.83826172 -1.72704102 13.83826172 -3.55273438 13.80078125 C-4.69935547 13.79691406 -5.84597656 13.79304688 -7.02734375 13.7890625 C-8.07656006 13.78084473 -9.12577637 13.77262695 -10.20678711 13.76416016 C-13.75798246 14.38184032 -14.75054102 15.47976001 -17 18.25 C-17.59286418 20.67070532 -17.59286418 20.67070532 -17.50170898 23.32226562 C-17.51108994 24.33011108 -17.52047089 25.33795654 -17.53013611 26.37634277 C-17.51328514 27.99989685 -17.51328514 27.99989685 -17.49609375 29.65625 C-17.49754898 30.77310181 -17.49900421 31.88995361 -17.50050354 33.04064941 C-17.4988442 35.40098683 -17.48727921 37.76133503 -17.46655273 40.12158203 C-17.43760834 43.73646966 -17.445942 47.3498902 -17.45898438 50.96484375 C-17.45274671 53.25781964 -17.44435556 55.55079088 -17.43359375 57.84375 C-17.43652939 58.92611938 -17.43946503 60.00848877 -17.44248962 61.12365723 C-17.42980545 62.13150269 -17.41712128 63.13934814 -17.40405273 64.17773438 C-17.39864975 65.06279663 -17.39324677 65.94785889 -17.38768005 66.85974121 C-16.91712829 69.76094924 -16.02844027 71.14474713 -14 73.25 C-9.38397437 74.10999454 -4.68670066 73.85209936 0 73.8125 C1.94519531 73.84827148 1.94519531 73.84827148 3.9296875 73.88476562 C5.16976562 73.88283203 6.40984375 73.88089844 7.6875 73.87890625 C8.82574219 73.87963135 9.96398438 73.88035645 11.13671875 73.88110352 C14.19191005 73.52660448 14.19191005 73.52660448 15.86254883 70.86425781 C16.99479786 68.26195631 17.4772966 66.25422552 17.6875 63.4375 C17.75324219 62.64730469 17.81898437 61.85710937 17.88671875 61.04296875 C17.94279297 60.15544922 17.94279297 60.15544922 18 59.25 C26.97508029 60.01060002 26.97508029 60.01060002 31 63.25 C32.14654359 68.4773336 31.53624895 73.74850293 29.75 78.75 C26.32998169 83.63574044 23.80292673 85.68714105 18 87.25 C15.22641041 87.44660313 12.55665632 87.55422014 9.78515625 87.55078125 C9.01119003 87.55506638 8.23722382 87.5593515 7.43980408 87.56376648 C5.81022109 87.56948439 4.18061259 87.57002886 2.55102539 87.56567383 C0.0732829 87.56251375 -2.40326414 87.58600389 -4.88085938 87.61132812 C-6.47135268 87.61360156 -8.06184915 87.61430441 -9.65234375 87.61328125 C-10.75110085 87.62709587 -10.75110085 87.62709587 -11.87205505 87.64118958 C-18.30933784 87.58397853 -22.91420828 86.06373193 -27.875 81.75 C-31.14724041 77.9003054 -31.13437554 74.93067851 -31.17700195 70.0378418 C-31.18983719 68.75608566 -31.20267242 67.47432953 -31.21589661 66.1537323 C-31.22406445 64.75223172 -31.2315081 63.35072676 -31.23828125 61.94921875 C-31.24235678 61.24234232 -31.2464323 60.53546589 -31.25063133 59.80716896 C-31.27147402 56.06554076 -31.28578339 52.32394904 -31.29516602 48.58227539 C-31.30622589 44.72532124 -31.34062522 40.86894474 -31.38033772 37.01219463 C-31.40653006 34.03954524 -31.41486012 31.06703297 -31.41844749 28.09427834 C-31.42330687 26.67295239 -31.4349025 25.25163231 -31.45348549 23.83041954 C-31.47792746 21.83720257 -31.47448717 19.8437035 -31.4699707 17.8503418 C-31.47877007 16.1518232 -31.47877007 16.1518232 -31.48774719 14.41899109 C-30.78042152 9.82335469 -28.49636807 6.80178911 -25.3125 3.5 C-17.61364262 -0.66154453 -8.48201777 -0.05379715 0 0 Z " fill="#44417F" transform="translate(31,269.75)"/>
<path d="M0 0 C1.11785889 -0.00315216 2.23571777 -0.00630432 3.38745117 -0.009552 C5.21240112 -0.00651566 5.21240112 -0.00651566 7.07421875 -0.00341797 C8.31341064 -0.00437469 9.55260254 -0.00533142 10.8293457 -0.00631714 C13.45560156 -0.00699921 16.08176508 -0.00564085 18.70800781 -0.00097656 C22.08100589 0.00472073 25.4539244 0.00144151 28.82691956 -0.00454903 C32.03435552 -0.00902317 35.24178175 -0.00589429 38.44921875 -0.00341797 C39.66585205 -0.0054422 40.88248535 -0.00746643 42.13598633 -0.009552 C43.81277466 -0.00482376 43.81277466 -0.00482376 45.5234375 0 C46.51303467 0.00079559 47.50263184 0.00159119 48.5222168 0.00241089 C50.76171875 0.12939453 50.76171875 0.12939453 51.76171875 1.12939453 C51.86023046 2.96055336 51.89144504 4.79559386 51.88671875 6.62939453 C51.89058594 8.12986328 51.89058594 8.12986328 51.89453125 9.66064453 C51.76171875 12.12939453 51.76171875 12.12939453 50.76171875 13.12939453 C43.83171875 13.12939453 36.90171875 13.12939453 29.76171875 13.12939453 C29.76171875 33.25939453 29.76171875 53.38939453 29.76171875 74.12939453 C37.02171875 74.12939453 44.28171875 74.12939453 51.76171875 74.12939453 C52.76171875 75.12939453 52.76171875 75.12939453 52.859375 77.85205078 C52.84777344 78.95419922 52.83617187 80.05634766 52.82421875 81.19189453 C52.81519531 82.29662109 52.80617187 83.40134766 52.796875 84.53955078 C52.78527344 85.39419922 52.77367187 86.24884766 52.76171875 87.12939453 C44.9559668 87.15252245 37.1502228 87.17031191 29.34444523 87.1812067 C25.72025915 87.18643455 22.09609645 87.1935304 18.47192383 87.20483398 C14.977119 87.21566637 11.48233671 87.22167211 7.9875164 87.22427177 C5.99932486 87.22703004 4.01114244 87.23484141 2.02296448 87.24269104 C0.82179489 87.24276657 -0.37937469 87.2428421 -1.61694336 87.24291992 C-3.21245277 87.24625084 -3.21245277 87.24625084 -4.8401947 87.24964905 C-7.23828125 87.12939453 -7.23828125 87.12939453 -8.23828125 86.12939453 C-8.33679296 84.2982357 -8.36800754 82.4631952 -8.36328125 80.62939453 C-8.36585937 79.62908203 -8.3684375 78.62876953 -8.37109375 77.59814453 C-8.23828125 75.12939453 -8.23828125 75.12939453 -7.23828125 74.12939453 C0.35171875 74.12939453 7.94171875 74.12939453 15.76171875 74.12939453 C15.76171875 53.99939453 15.76171875 33.86939453 15.76171875 13.12939453 C8.50171875 13.12939453 1.24171875 13.12939453 -6.23828125 13.12939453 C-6.3359375 3.85205078 -6.3359375 3.85205078 -6.23828125 1.12939453 C-4.53262507 -0.57626165 -2.3309463 0.00187398 0 0 Z " fill="#44417F" transform="translate(85.23828125,269.87060546875)"/>
<path d="M0 0 C3.125 -0.1875 3.125 -0.1875 6 0 C9.00817476 5.45502377 10.79026713 11.17275154 12.65234375 17.1015625 C12.99374893 18.17441498 13.33515411 19.24726746 13.68690491 20.35263062 C14.77508039 23.77530016 15.85650934 27.20005524 16.9375 30.625 C18.01633569 34.02805821 19.09656623 37.43067001 20.17738342 40.83309937 C20.84782374 42.94528563 21.51689556 45.05790698 22.18431091 47.17105103 C24.13620959 53.33948534 26.15966117 59.47769783 28.2580719 65.59799194 C29 68 29 68 29 70 C12.17 70 -4.66 70 -22 70 C-21.32908038 64.63264302 -20.77186879 60.67921385 -19.17407227 55.72338867 C-18.80020889 54.55245163 -18.42634552 53.38151459 -18.04115295 52.1750946 C-17.63698654 50.93524307 -17.23282013 49.69539154 -16.81640625 48.41796875 C-16.39615274 47.11395255 -15.97639697 45.80977585 -15.55711365 44.50544739 C-14.68147598 41.78674389 -13.80098899 39.06967695 -12.91674805 36.35375977 C-11.78442224 32.87505547 -10.66269579 29.39304429 -9.54432774 25.90983105 C-8.6805977 23.22266555 -7.81219329 20.53702954 -6.94227409 17.85186195 C-6.32526363 15.94533752 -5.71150462 14.03776181 -5.09779358 12.13017273 C-4.72077805 10.97499649 -4.34376251 9.81982025 -3.95532227 8.62963867 C-3.62524673 7.61230148 -3.2951712 6.59496429 -2.95509338 5.54679871 C-2 3 -2 3 0 0 Z " fill="#E24328" transform="translate(229,12)"/>
<path d="M0 0 C1.4540625 0.0309375 1.4540625 0.0309375 2.9375 0.0625 C6.12193646 6.77256722 8.53374376 13.58799233 10.7578125 20.66796875 C11.10254608 21.75080643 11.44727966 22.8336441 11.80245972 23.94929504 C12.89397068 27.38135173 13.97840769 30.81559362 15.0625 34.25 C15.7976954 36.56721017 16.53336802 38.88426899 17.26953125 41.20117188 C18.30609963 44.46366684 19.34198716 47.72635818 20.37405396 50.99028015 C20.68132416 51.96181534 20.98859436 52.93335052 21.30517578 53.93432617 C21.58895081 54.83597504 21.87272583 55.7376239 22.1651001 56.66659546 C22.79084463 58.60759023 23.46763682 60.53207822 24.15966797 62.45043945 C24.9375 65.0625 24.9375 65.0625 24.9375 70.0625 C8.1075 70.0625 -8.7225 70.0625 -26.0625 70.0625 C-22.68743162 57.68724929 -22.68743162 57.68724929 -21.30078125 53.45849609 C-20.99035889 52.50735931 -20.67993652 51.55622253 -20.36010742 50.57626343 C-20.03502197 49.58945587 -19.70993652 48.60264832 -19.375 47.5859375 C-18.85933472 46.00989243 -18.85933472 46.00989243 -18.33325195 44.40200806 C-17.24552959 41.07967059 -16.15405706 37.75857929 -15.0625 34.4375 C-14.33048621 32.20320458 -13.59871336 29.96883022 -12.8671875 27.734375 C-9.48077447 17.39726273 -9.48077447 17.39726273 -7.92724609 12.68963623 C-7.34744207 10.92816641 -6.77229519 9.16515727 -6.20166016 7.4006958 C-5.93530762 6.5834906 -5.66895508 5.7662854 -5.39453125 4.92431641 C-5.16096924 4.20176666 -4.92740723 3.47921692 -4.68676758 2.73477173 C-3.59525325 -0.18914841 -3.34582324 0.06828211 0 0 Z " fill="#E24328" transform="translate(108.0625,11.9375)"/>
<path d="M0 0 C0.66 0.33 1.32 0.66 2 1 C1.37921563 6.60203695 0.42795722 11.99370827 -0.84765625 17.48046875 C-1.20904971 19.07225079 -1.57037587 20.66404812 -1.93164062 22.25585938 C-2.49837987 24.73143354 -3.0668965 27.20658636 -3.63696289 29.68139648 C-4.19089885 32.09257713 -4.7383141 34.505171 -5.28515625 36.91796875 C-5.45700943 37.65452194 -5.62886261 38.39107513 -5.80592346 39.14994812 C-7.04689127 44.53002626 -7.04689127 44.53002626 -7 50 C-4.58032584 52.67879462 -2.06837754 54.99902436 0.64648438 57.36328125 C1.18466797 57.85957031 1.72285156 58.35585938 2.27734375 58.8671875 C2.77484131 59.30144043 3.27233887 59.73569336 3.78491211 60.18310547 C5.71921023 63.07541944 5.85745686 65.55824348 6 69 C4.89526367 72.0793457 4.89526367 72.0793457 3.16796875 75.17578125 C2.53858398 76.32554443 1.90919922 77.47530762 1.26074219 78.65991211 C0.57008568 79.8776821 -0.12100323 81.09520695 -0.8125 82.3125 C-1.50653009 83.56492517 -2.19890436 84.81826928 -2.88964844 86.07250977 C-4.26660315 88.5656149 -5.65368165 91.05258307 -7.05126953 93.53417969 C-8.75758325 96.56886141 -10.44531841 99.61245172 -12.12109375 102.6640625 C-14.39062187 106.78977662 -16.67581025 110.90477766 -19 115 C-19.52078125 115.98097656 -20.0415625 116.96195312 -20.578125 117.97265625 C-21.04734375 118.64167969 -21.5165625 119.31070313 -22 120 C-22.99 120 -23.98 120 -25 120 C-24.35544925 109.65600004 -21.73714872 99.81487973 -19.28759766 89.78149414 C-18.72195932 87.45400419 -18.16894367 85.12378225 -17.6171875 82.79296875 C-17.44017303 82.08456345 -17.26315857 81.37615814 -17.08078003 80.64628601 C-16.17456958 76.7904887 -15.6697724 73.78097932 -17 70 C-19.49058576 67.37720237 -22.05198083 64.99902452 -24.78320312 62.63671875 C-27.58370304 60.04802135 -28.86317682 58.60172775 -29.7265625 54.8046875 C-28.66497275 49.24560997 -26.10316881 44.88268251 -23.3125 40 C-22.44359131 38.44104004 -22.44359131 38.44104004 -21.55712891 36.85058594 C-20.33765064 34.6680848 -19.11126912 32.48942818 -17.87841797 30.31445312 C-16.02005945 27.03539473 -14.18163422 23.74587033 -12.34765625 20.453125 C-10.13203406 16.49081158 -7.91630789 12.52862939 -5.6796875 8.578125 C-5.23351074 7.78825195 -4.78733398 6.99837891 -4.32763672 6.18457031 C-3.00603898 4.00993689 -1.56108891 2.00784978 0 0 Z " fill="#FBA226" transform="translate(180,248)"/>
<path d="M0 0 C0.66 0.33 1.32 0.66 2 1 C1.35094506 6.9581449 0.27605757 12.69325494 -1.06640625 18.53125 C-1.36393044 19.84603333 -1.36393044 19.84603333 -1.66746521 21.18737793 C-2.29554115 23.95908453 -2.92892948 26.72954481 -3.5625 29.5 C-3.99188951 31.39054485 -4.42092944 33.28116913 -4.84960938 35.171875 C-5.89570028 39.7821782 -6.946554 44.39137211 -8 49 C-8.66 49 -9.32 49 -10 49 C-10.103125 50.19625 -10.20625 51.3925 -10.3125 52.625 C-11.0258185 59.18123621 -12.54689876 65.57528192 -14 72 C-16.36473639 70.02938634 -18.69008931 68.03358492 -21 66 C-21.74121094 65.36191406 -22.48242188 64.72382813 -23.24609375 64.06640625 C-23.96925781 63.40511719 -24.69242188 62.74382812 -25.4375 62.0625 C-26.45650391 61.15177734 -26.45650391 61.15177734 -27.49609375 60.22265625 C-29.78086575 56.84594127 -29.59434028 55.04392336 -29 51 C-27.39323566 47.16653863 -25.37321989 43.6055303 -23.3125 40 C-22.44359131 38.44104004 -22.44359131 38.44104004 -21.55712891 36.85058594 C-20.33765064 34.6680848 -19.11126912 32.48942818 -17.87841797 30.31445312 C-16.02005945 27.03539473 -14.18163422 23.74587033 -12.34765625 20.453125 C-10.13203406 16.49081158 -7.91630789 12.52862939 -5.6796875 8.578125 C-5.23351074 7.78825195 -4.78733398 6.99837891 -4.32763672 6.18457031 C-3.00603898 4.00993689 -1.56108891 2.00784978 0 0 Z " fill="#E24328" transform="translate(180,248)"/>
</svg>
