<svg xmlns="http://www.w3.org/2000/svg" xmlns:xlink="http://www.w3.org/1999/xlink" viewBox="0 0 467.11409 480"><defs><linearGradient id="a" x1="308.04627" y1="376.3527" x2="214.80127" y2="283.1077" gradientTransform="matrix(1, 0, 0, -1, 0, 482)" gradientUnits="userSpaceOnUse"><stop offset="0.18" stop-color="#0052cc"/><stop offset="1" stop-color="#2684ff"/></linearGradient><linearGradient id="b" x1="332.75858" y1="108.45217" x2="425.82473" y2="201.51832" xlink:href="#a"/></defs><title>jira-software_logo-freelogovectors.net</title><path d="M533.19958,227.36064,338.83977,33.00086,320,14.16107h0L173.69358,160.4675h0l-66.89316,66.89314a17.88587,17.88587,0,0,0,0,25.2787L240.46749,386.3064,320,465.83893,466.30641,319.5325,468.572,317.267l64.62762-64.62761A17.88587,17.88587,0,0,0,533.19958,227.36064ZM320,306.77392,253.22607,240,320,173.22608,386.77391,240Z" transform="translate(-86.44295)" style="fill:#2684ff"/><path d="M320,173.22608a112.4425,112.4425,0,0,1-.47694-158.52843L173.39548,160.76559l79.5325,79.5325Z" transform="translate(-86.44295)" style="fill:url(#a)"/><path d="M386.95276,239.82113,320,306.77392a112.44252,112.44252,0,0,1,.04731,159.0177L320,465.83893h0l146.48528-146.4853Z" transform="translate(-86.44295)" style="fill:url(#b)"/><rect width="467.11409" height="480" style="fill:none"/></svg>