<?xml version="1.0" encoding="UTF-8"?>
<svg version="1.1" xmlns="http://www.w3.org/2000/svg" width="500" height="153">
<path d="M0 0 C14.34980401 11.33713797 23.53214124 25.36331472 28.828125 42.796875 C29.09641113 43.6796814 29.09641113 43.6796814 29.37011719 44.58032227 C30.35494702 49.3464577 30.09454487 54.29767436 30.12329102 59.14697266 C30.14027314 61.13077125 30.18411172 63.11428196 30.22851562 65.09765625 C30.34884496 83.62837448 23.7989399 100.38869925 10.95776367 113.72216797 C9.59397461 115.09321248 8.21142215 116.44551544 6.828125 117.796875 C6.11011719 118.53550781 5.39210938 119.27414063 4.65234375 120.03515625 C-9.84396196 134.09466179 -30.00643766 139.30383084 -49.71875 139.01171875 C-70.37641584 138.29800969 -89.00608288 128.51395853 -103.171875 113.796875 C-118.20647158 96.1701066 -123.69295748 76.07629009 -122.390625 53.33837891 C-121.00753356 37.26920265 -112.97966782 21.58140351 -102.171875 9.796875 C-101.54667969 9.09175781 -100.92148437 8.38664062 -100.27734375 7.66015625 C-74.11390891 -20.3150032 -30.29501055 -21.04234723 0 0 Z " fill="#D95149" transform="translate(470.171875,14.203125)"/>
<path d="M0 0 C20.17796593 8.07118637 35.483945 20.69458187 44.66015625 40.6015625 C45.88732671 43.7142106 47.0022144 46.80708607 48 50 C48.34240723 51.07757568 48.68481445 52.15515137 49.03759766 53.26538086 C50.60052767 59.33035815 50.36886256 65.32993422 50.375 71.5625 C50.39949219 72.84447266 50.42398438 74.12644531 50.44921875 75.44726562 C50.50511871 93.90356994 43.91615048 110.64858434 31.12963867 123.92529297 C29.76584961 125.29633748 28.38329715 126.64864044 27 128 C26.28199219 128.73863281 25.56398438 129.47726563 24.82421875 130.23828125 C10.32638958 144.29926434 -9.82660055 149.49656817 -29.5390625 149.21875 C-39.88432093 148.86339548 -49.43764981 145.74740751 -59 142 C-59 134.41 -59 126.82 -59 119 C-57.164375 119.66 -55.32875 120.32 -53.4375 121 C-46.64869467 122.94460173 -40.29937275 123.41476192 -33.25 123.4375 C-32.29279053 123.44716797 -31.33558105 123.45683594 -30.34936523 123.46679688 C-19.44970529 123.33908483 -8.2250024 120.34414121 -0.3671875 112.3359375 C5.07517367 105.19894891 6.51042174 97.75060855 6.4375 89 C6.45748047 88.14921875 6.47746094 87.2984375 6.49804688 86.421875 C6.49227147 78.89075034 4.24074147 72.72956407 -1.0625 67.25 C-5.34334977 63.19153204 -10.41474994 61.59089818 -16 60 C-16.60980713 59.82202881 -17.21961426 59.64405762 -17.84790039 59.46069336 C-20.28544139 58.93889644 -22.49213436 58.88714716 -24.984375 58.90234375 C-25.91894531 58.90556641 -26.85351562 58.90878906 -27.81640625 58.91210938 C-28.78449219 58.92048828 -29.75257813 58.92886719 -30.75 58.9375 C-31.73355469 58.94201172 -32.71710938 58.94652344 -33.73046875 58.95117188 C-36.15370791 58.96293517 -38.57682273 58.97937316 -41 59 C-40.8584453 55.95807987 -40.71190099 52.91653653 -40.5625 49.875 C-40.52318359 49.0190625 -40.48386719 48.163125 -40.44335938 47.28125 C-40.40146484 46.44335938 -40.35957031 45.60546875 -40.31640625 44.7421875 C-40.27974854 43.9776123 -40.24309082 43.21303711 -40.20532227 42.42529297 C-39.96599943 39.59838094 -39.46640393 36.79842356 -39 34 C-26.13 34 -13.26 34 0 34 C0 22.78 0 11.56 0 0 Z " fill="#259F61" transform="translate(450,4)"/>
<path d="M0 0 C17.82 0 35.64 0 54 0 C54 4.95 54 9.9 54 15 C41.13 15 28.26 15 15 15 C14.67 20.61 14.34 26.22 14 32 C13.67 34.64 13.34 37.28 13 40 C13.6703125 39.84144531 14.340625 39.68289062 15.03125 39.51953125 C26.38839378 37.53203109 39.64417145 38.03334457 49.44140625 44.6484375 C54.93849351 49.28502307 60.48559227 54.65938007 61.20703125 62.14941406 C61.30559048 64.70682086 61.32191585 67.2532709 61.3125 69.8125 C61.32861328 70.67681641 61.34472656 71.54113281 61.36132812 72.43164062 C61.36830878 81.68100925 58.56145207 89.32803926 52 96 C42.54390704 103.23497268 32.41049261 105.55639046 20.6875 105.4375 C19.68436768 105.43355225 18.68123535 105.42960449 17.64770508 105.42553711 C9.10774764 105.26068372 1.70880434 103.85440217 -6 100 C-6 95.05 -6 90.1 -6 85 C-4.741875 85.45375 -3.48375 85.9075 -2.1875 86.375 C8.6187481 89.91555644 23.90975798 93.31724725 34.75 88.3125 C38.49876715 85.64510799 40.94631145 83.1073771 43 79 C43.14943856 76.73255726 43.22144902 74.4596825 43.25 72.1875 C43.28867187 70.35251953 43.28867187 70.35251953 43.328125 68.48046875 C42.87134906 63.63538108 41.18409619 61.15120463 37.75 57.8125 C32.40614611 54.29041448 26.9740447 53.73947783 20.6875 53.8125 C19.38296875 53.82410156 18.0784375 53.83570313 16.734375 53.84765625 C12.83429267 54.00676003 9.07699484 54.43437533 5.24609375 55.171875 C1.64502323 54.89631482 -0.26338955 53.27314663 -3 51 C-3.63867188 47.99389648 -3.63867188 47.99389648 -3.46875 44.43359375 C-3.44445923 43.78353867 -3.42016846 43.13348358 -3.3951416 42.46372986 C-3.3009862 40.30528718 -3.15572432 38.15483525 -3 36 C-2.95069336 35.2487384 -2.90138672 34.49747681 -2.85058594 33.72344971 C-2.47845588 28.16183135 -1.99888672 22.61415449 -1.5 17.0625 C-1.005 11.431875 -0.51 5.80125 0 0 Z " fill="#FCFBFA" transform="translate(396,23)"/>
<path d="M0 0 C2.97 0 5.94 0 9 0 C9.00364563 0.92770706 9.00729126 1.85541412 9.01104736 2.81123352 C9.04905924 11.59355576 9.10606079 20.37551162 9.18390274 29.15757465 C9.22325687 33.67155126 9.25550408 38.18533632 9.27099609 42.69946289 C9.28624273 47.06340219 9.32082827 51.42681443 9.36830902 55.79051781 C9.38304082 57.4476581 9.39103626 59.10487368 9.39188385 60.76207924 C9.23932488 75.95339419 9.23932488 75.95339419 15.87969971 89.18818665 C22.99840161 96.08427666 31.29312345 97.974115 41 98 C49.23848761 97.51538308 55.86065505 95.69902308 62 90 C67.55658513 83.28579297 69.23148674 75.95472679 69.31884766 67.32055664 C69.32889328 66.58801666 69.3389389 65.85547668 69.34928894 65.10073853 C69.37992944 62.70388502 69.39710218 60.30714219 69.4140625 57.91015625 C69.4327896 56.23863281 69.45236415 54.56711868 69.4727478 52.89561462 C69.52391227 48.51453147 69.56362156 44.13341772 69.60089111 39.75219727 C69.64102951 35.2741753 69.69207682 30.79627889 69.7421875 26.31835938 C69.8387609 17.54565893 69.92322467 8.77289595 70 0 C72.64 0 75.28 0 78 0 C78.09304068 9.97987846 78.16393688 19.95965223 78.20724869 29.93987751 C78.22804547 34.5750654 78.25621693 39.20995464 78.30175781 43.8449707 C78.34549987 48.32539456 78.36919646 52.80553274 78.37950897 57.28615379 C78.3868498 58.98804401 78.40118362 60.68992016 78.42292023 62.39168739 C78.5886963 75.91916355 77.4601133 86.55595836 67.640625 96.765625 C56.44142667 106.24186974 43.95971087 106.89514119 30 106 C20.33735505 104.46413528 12.73354544 99.6650583 6.5390625 92.18359375 C1.32747856 84.78949369 -0.15979534 77.3703585 -0.11352539 68.45581055 C-0.11367142 67.71380905 -0.11381744 66.97180756 -0.1139679 66.20732117 C-0.11327404 63.7670901 -0.1055064 61.3269364 -0.09765625 58.88671875 C-0.0957902 57.18992657 -0.09436718 55.49313385 -0.09336853 53.79634094 C-0.0895581 49.3395335 -0.07974043 44.88275887 -0.06866455 40.42596436 C-0.0584187 35.87447554 -0.05386412 31.32298141 -0.04882812 26.77148438 C-0.03811681 17.84764187 -0.02105813 8.92382367 0 0 Z " fill="#6B6B6B" transform="translate(62,23)"/>
<path d="M0 0 C5.75597514 6.02369491 7.81828397 12.55933134 7.80102539 20.77441406 C7.80094986 21.97535706 7.80087433 23.17630005 7.80079651 24.41363525 C7.79563522 25.70541687 7.79047394 26.99719849 7.78515625 28.328125 C7.78329017 29.66762235 7.78186716 31.00712038 7.78086853 32.34661865 C7.77705835 35.86472472 7.76724091 39.38278921 7.75616455 42.90087891 C7.74591817 46.49380939 7.741364 50.08674661 7.73632812 53.6796875 C7.72561725 60.72397529 7.70855887 67.76823493 7.6875 74.8125 C5.0475 74.8125 2.4075 74.8125 -0.3125 74.8125 C-0.31836624 74.10363647 -0.32423248 73.39477295 -0.33027649 72.66442871 C-0.38838548 65.95614739 -0.46056498 59.24817842 -0.54821491 52.54021454 C-0.59278042 49.09226355 -0.63206587 45.64442696 -0.65893555 42.19628906 C-0.69012537 38.22435767 -0.74490877 34.25291378 -0.80078125 30.28125 C-0.80717117 29.05386108 -0.8135611 27.82647217 -0.82014465 26.56188965 C-0.99904222 15.46395003 -0.99904222 15.46395003 -6.8125 6.375 C-13.02414665 2.49272084 -21.19767819 3.13592615 -28.3125 3.8125 C-32.97651621 4.96287397 -36.17027381 6.76044956 -39.6875 10 C-44.20685901 17.82196752 -44.77313156 25.38789317 -44.82421875 34.28515625 C-44.84216995 35.4488121 -44.86012115 36.61246796 -44.87861633 37.81138611 C-44.93245617 41.49922142 -44.96653119 45.18692924 -45 48.875 C-45.03319622 51.38738743 -45.06768799 53.89975809 -45.10351562 56.41210938 C-45.18816752 62.54545853 -45.25662814 68.67882474 -45.3125 74.8125 C-48.2825 74.8125 -51.2525 74.8125 -54.3125 74.8125 C-54.33562392 64.65983849 -54.35341534 54.5071832 -54.36431217 44.35450077 C-54.36954089 39.64070267 -54.37663834 34.92692253 -54.38793945 30.21313477 C-54.39876873 25.66794596 -54.40477692 21.12277448 -54.40737724 16.57757378 C-54.40923142 14.83955042 -54.41285189 13.10152806 -54.41823006 11.36351204 C-54.42544103 8.93771405 -54.42649092 6.51198854 -54.42602539 4.08618164 C-54.42962067 3.36041931 -54.43321594 2.63465698 -54.43692017 1.88690186 C-54.42655216 -3.07344784 -54.42655216 -3.07344784 -53.3125 -4.1875 C-51.31291636 -4.22830783 -49.31204746 -4.23004356 -47.3125 -4.1875 C-46.3225 -1.5475 -45.3325 1.0925 -44.3125 3.8125 C-43.85101563 3.41417969 -43.38953125 3.01585937 -42.9140625 2.60546875 C-30.75446052 -7.27120401 -13.25323587 -8.7521369 0 0 Z " fill="#676767" transform="translate(219.3125,53.1875)"/>
<path d="M0 0 C2.97 0 5.94 0 9 0 C9.0463947 14.05638446 9.08190551 28.11275062 9.10362434 42.16919613 C9.11404967 48.69656522 9.12818614 55.22388182 9.15087891 61.7512207 C9.17265172 68.05357439 9.18457804 74.35587766 9.18975449 80.65826607 C9.19344226 83.05954341 9.20064353 85.46081808 9.21146011 87.8620739 C9.22603384 91.23224671 9.22797546 94.60221272 9.22705078 97.97241211 C9.23424133 98.95928513 9.24143188 99.94615814 9.24884033 100.9629364 C9.22350241 109.52938291 8.57425303 117.151632 3 124 C-1.33901738 127.90511564 -4.82401201 130.26040904 -10.73046875 130.23046875 C-12.05788086 130.22756836 -12.05788086 130.22756836 -13.41210938 130.22460938 C-14.32798828 130.21236328 -15.24386719 130.20011719 -16.1875 130.1875 C-17.11498047 130.18685547 -18.04246094 130.18621094 -18.99804688 130.18554688 C-25.85962813 130.14037187 -25.85962813 130.14037187 -27 129 C-27.04092937 126.66702567 -27.04241723 124.33294775 -27 122 C-25.49759766 122.05220703 -25.49759766 122.05220703 -23.96484375 122.10546875 C-14.04916594 122.52520453 -14.04916594 122.52520453 -5 119 C-1.66872145 115.44663621 -0.87922029 112.16338877 -0.84178162 107.38728333 C-0.8319928 106.44077408 -0.82220398 105.49426483 -0.81211853 104.51907349 C-0.80636307 103.4825766 -0.8006076 102.44607971 -0.79467773 101.37817383 C-0.78477814 100.28533585 -0.77487854 99.19249786 -0.76467896 98.06654358 C-0.73303832 94.44672833 -0.7082963 90.82689995 -0.68359375 87.20703125 C-0.66302644 84.70024775 -0.64203003 82.19346774 -0.62062073 79.68669128 C-0.57102649 73.75818242 -0.52576711 67.82965045 -0.48259836 61.90109223 C-0.42836508 54.48936367 -0.36741836 47.07769291 -0.30664062 39.66601562 C-0.19903091 26.44404946 -0.09759215 13.22204363 0 0 Z " fill="#676767" transform="translate(27,23)"/>
<path d="M0 0 C1.65 0 3.3 0 5 0 C5 5.94 5 11.88 5 18 C12.59 18 20.18 18 28 18 C28 20.64 28 23.28 28 26 C20.41 26 12.82 26 5 26 C5.09738268 32.63483584 5.20039166 39.26911119 5.31738281 45.90356445 C5.35546052 48.1564416 5.39034874 50.40937516 5.421875 52.66235352 C5.46798957 55.91703336 5.52590377 59.17133183 5.5859375 62.42578125 C5.59748871 63.41894852 5.60903992 64.41211578 5.62094116 65.43537903 C5.63053977 77.14960077 5.63053977 77.14960077 9.9375 87.625 C14.03782912 90.35855274 17.95184925 90.11998222 22.6875 90.0625 C23.38939453 90.05798828 24.09128906 90.05347656 24.81445312 90.04882812 C26.54300538 90.03706927 28.27151365 90.01913454 30 90 C30 92.31 30 94.62 30 97 C21.74002218 98.9133282 12.02563732 99.75359324 4.546875 95.19921875 C0.1795095 91.81340762 -1.51594608 88.21262465 -3 83 C-3.24050903 80.11453247 -3.24050903 80.11453247 -3.22705078 77.08642578 C-3.22689972 75.94569611 -3.22674866 74.80496643 -3.22659302 73.62966919 C-3.21627045 72.41383148 -3.20594788 71.19799377 -3.1953125 69.9453125 C-3.1924826 68.68862762 -3.18965271 67.43194275 -3.18673706 66.13717651 C-3.17746123 62.81299136 -3.15952381 59.48908576 -3.1373291 56.16497803 C-3.11678812 52.76625979 -3.10771778 49.36751256 -3.09765625 45.96875 C-3.07563376 39.31241338 -3.04112308 32.65624492 -3 26 C-6.63 26 -10.26 26 -14 26 C-14 24.02 -14 22.04 -14 20 C-10.12315913 18.80712589 -7.08378077 18 -3 18 C-2.86722656 17.11957031 -2.73445313 16.23914063 -2.59765625 15.33203125 C-2.42105469 14.17058594 -2.24445313 13.00914063 -2.0625 11.8125 C-1.88847656 10.66394531 -1.71445312 9.51539063 -1.53515625 8.33203125 C-1.08620687 5.53674788 -0.57917838 2.77066414 0 0 Z " fill="#6A6A6A" transform="translate(287,31)"/>
<path d="M0 0 C2.64 0 5.28 0 8 0 C8 26.07 8 52.14 8 79 C5.36 79 2.72 79 0 79 C0 52.93 0 26.86 0 0 Z " fill="#6E6E6E" transform="translate(251,49)"/>
<path d="M0 0 C2.3125 1.25 2.3125 1.25 3.3125 2.25 C3.48046875 4.2109375 3.48046875 4.2109375 3.5 6.625 C3.51417969 7.41648437 3.52835937 8.20796875 3.54296875 9.0234375 C3.3125 11.25 3.3125 11.25 1.3125 14.25 C-1.6875 14.625 -1.6875 14.625 -4.6875 14.25 C-7.35485925 10.24896113 -7.39420548 6.95264512 -6.6875 2.25 C-4.41284065 -0.69863249 -3.59398196 -1.00297171 0 0 Z " fill="#696969" transform="translate(256.6875,21.75)"/>
</svg>
