<svg id="Layer_1" data-name="Layer 1" xmlns="http://www.w3.org/2000/svg" xmlns:xlink="http://www.w3.org/1999/xlink" viewBox="0 0 500 143.39"><defs><style>.cls-1{fill:url(#linear-gradient);}.cls-2{fill:url(#linear-gradient-2);}.cls-3{fill:url(#linear-gradient-3);}.cls-4{fill:#c1bfbe;}.cls-5{fill:#878787;}</style><linearGradient id="linear-gradient" x1="54.1" y1="-401.57" x2="10.21" y2="-401.87" gradientTransform="matrix(-0.98, -0.32, 0.29, -0.88, 429.02, 164.28)" gradientUnits="userSpaceOnUse"><stop offset="0.23" stop-color="#9b9a75"/><stop offset="0.56" stop-color="#9c9b77"/><stop offset="0.68" stop-color="#a2a17e"/><stop offset="0.77" stop-color="#abaa89"/><stop offset="0.84" stop-color="#b8b79a"/><stop offset="0.9" stop-color="#cac8b0"/><stop offset="0.95" stop-color="#dfddcb"/><stop offset="0.99" stop-color="#f8f6eb"/><stop offset="1" stop-color="#fbf9ef"/></linearGradient><linearGradient id="linear-gradient-2" x1="60.86" y1="-324.75" x2="-2.28" y2="-434.12" gradientTransform="matrix(-0.98, -0.32, 0.29, -0.88, 429.02, 164.28)" gradientUnits="userSpaceOnUse"><stop offset="0" stop-color="#599e4c"/><stop offset="1" stop-color="#498e41"/></linearGradient><linearGradient id="linear-gradient-3" x1="66.64" y1="-403.37" x2="21.89" y2="-373.31" gradientTransform="matrix(-0.98, -0.32, 0.29, -0.88, 429.02, 164.28)" gradientUnits="userSpaceOnUse"><stop offset="0" stop-color="#4fa346"/><stop offset="0.24" stop-color="#59a84f"/><stop offset="0.65" stop-color="#75b667"/><stop offset="1" stop-color="#91c47f"/></linearGradient></defs><path class="cls-1" d="M284.29,567.11l-3.72-1.23s.47-18.85-6.32-20.17c-4.49-5.19.69-221.8,17-.74,0,0-5.58,2.8-6.63,7.55S284.29,567.11,284.29,567.11Z" transform="translate(-250 -428.3)"/><path class="cls-2" d="M286.3,548.91s32.35-21.3,24.77-65.56c-7.3-32.15-24.53-42.71-26.38-46.75a48.91,48.91,0,0,1-4.1-7.92L282,518.26S279.12,545.61,286.3,548.91Z" transform="translate(-250 -428.3)"/><path class="cls-3" d="M278.67,550.1s-30.34-20.7-28.6-57.23,23.18-54.48,27.36-57.74c2.7-2.88,2.81-4,3-6.83,1.89,4.07,1.57,60.7,1.77,67.32C283,521.38,280.8,545.24,278.67,550.1Z" transform="translate(-250 -428.3)"/><path class="cls-4" d="M625.14,483.13c1.74,0,8.35.3,11.42.3,5.73,0,9.72-.3,20.46-.3,9,0,16.57,2.42,22,7.07,6.54,5.66,10,13.54,10,23.14,0,13.64-6.24,21.52-12.48,26-6.24,4.65-14.32,7.28-25.88,7.28-6.14,0-16.68-.2-25.48-.3h-.12c-.41-.81.75-4,1.47-4a13.38,13.38,0,0,0,4.13-.82c1.86-.76,2.3-1.71,2.5-5,.31-6.26.21-13.74.21-22.22,0-6.07.1-17.89-.11-21.63-.3-3.13-1.63-3.94-4.29-4.54a54.45,54.45,0,0,0-5.73-.91C623.05,486.46,624.63,483.73,625.14,483.13Zm20.42,56.17c2.15,1.72,6.44,2.43,10.23,2.43,4.91,0,9.72-.91,14.43-5.15s8.08-11,8.08-21.63c0-10.2-3.89-18.49-11.87-23.34-4.5-2.82-10.33-3.94-17-3.94a14,14,0,0,0-5,.61,2.68,2.68,0,0,0-.92,1.42c-.2,1.81-.2,15.66-.2,23.84,0,8.39,0,20.11.2,21.52C643.62,536.27,644.23,538.4,645.56,539.3Z" transform="translate(-250 -428.3)"/><path class="cls-4" d="M697.66,483.13c.92,0,3.64.3,10.6.3,6.55,0,11.86-.2,18.21-.2,7.88,0,18.72,2.83,18.72,14.55,0,5.76-4.09,10.4-9.41,12.63-.31.1-.31.3,0,.4,7.57,1.92,14.22,6.57,14.22,15.46,0,8.69-5.42,14.15-13.3,17.58-4.81,2.12-10.74,2.83-16.78,2.83-4.6,0-16.94-.5-23.8-.4-.71-.31.66-3.54,1.27-4a19.43,19.43,0,0,0,4.64-.73c2.46-.61,2.75-1.4,3.06-5,.2-3.14.2-14.35.2-22.33,0-10.92.1-18.29,0-21.93-.1-2.83-1.13-3.74-3.07-4.24-1.53-.31-4.09-.61-6.14-.91C695.57,486.56,697.15,483.53,697.66,483.13Zm41.7,45.36c0-8.89-6.55-13.94-18.52-13.94a47.17,47.17,0,0,0-5.22.1c-.3.1-.61.3-.61.51,0,6.36-.1,16.57.2,20.61.21,1.72,1.44,4.14,3,4.85,1.64.91,5.32,1.11,7.88,1.11C733.12,541.73,739.36,537.79,739.36,528.49Zm-23.22-40.41c-.41.1-.93,1.11-.93,1.62-.1,3.63-.2,13.13-.2,19.7a.65.65,0,0,0,.51.5c1.33.1,4.6.2,7.37.2,3.89,0,6.14-.5,7.36-1.11,3.28-1.61,4.81-5.15,4.81-9,0-8.79-6.14-12.12-15.24-12.12A27.52,27.52,0,0,0,716.14,488.08Z" transform="translate(-250 -428.3)"/><path class="cls-5" d="M331.65,546.54a4.52,4.52,0,0,1-.32-2,2.7,2.7,0,0,1,.31-1.36,32.78,32.78,0,0,0,3.93-.8c1.81-.45,2.49-1.42,2.6-3.74.3-5.45.31-15.67.2-22.85v-.21a2.87,2.87,0,0,0-.95-2.57,20.3,20.3,0,0,0-5.43-2.38c-.85-.26-1.33-.71-1.3-1.23s.56-1.15,1.68-1.37a64.34,64.34,0,0,0,13.78-3.56,2,2,0,0,1,.41,1.45c0,.32-.05.66-.08,1-.09,1-.19,2.17-.19,3.31a.75.75,0,0,0,.76.66.73.73,0,0,0,.53-.22c5.81-4.55,11-6.17,13.68-6.17,4.39,0,7.81,2.1,10.46,6.41a.7.7,0,0,0,.59.35.68.68,0,0,0,.56-.3c5.34-4,10.63-6.46,14.17-6.46,8.37,0,13.38,6.26,13.38,16.75,0,3,0,6.83-.06,10.4,0,3.13-.05,6.06-.05,8.09a2.79,2.79,0,0,0,1.65,2.13,21.6,21.6,0,0,0,5.23,1.28l.09,0a7.67,7.67,0,0,1-.53,3.41c-.55,0-1.32,0-2.28-.09-1.74-.09-4.12-.21-6.89-.21-5.57,0-8.48.11-11.25.29a8.3,8.3,0,0,1,0-3.4,31,31,0,0,0,3.39-.79c1.77-.59,2.28-1.39,2.39-3.74,0-1.67.36-16.38-.21-19.87a8.9,8.9,0,0,0-9.23-7.85,16.32,16.32,0,0,0-9.21,3.5,1.39,1.39,0,0,0-.33.87v.07a37.67,37.67,0,0,1,.4,7.4c0,1.9,0,3.91,0,5.91,0,4-.05,7.88,0,10.77a2.72,2.72,0,0,0,2.15,2.83l1.35.31c.81.19,1.64.39,2.87.59a5.44,5.44,0,0,1-.05,2.54,2.15,2.15,0,0,1-.35.87c-3.1-.1-6.27-.2-10.86-.2-1.38,0-3.65.06-5.65.12l-4,.09a3.94,3.94,0,0,1-.31-1.77,3.07,3.07,0,0,1,.32-1.64l1.23-.22c1.08-.2,2-.36,2.9-.58,1.51-.46,2.08-1.3,2.19-3.23.3-4.49.53-17.45-.11-20.69-1.08-5.21-4.05-7.85-8.81-7.85a16.61,16.61,0,0,0-9.21,3.51,2.79,2.79,0,0,0-.85,2.08c0,1.54,0,3.38,0,5.34,0,6.51,0,14.61.12,18.11a2.86,2.86,0,0,0,2.5,2.83,20.84,20.84,0,0,0,2.11.4l1.65.29a7.26,7.26,0,0,1-.28,3.42c-.89,0-2-.06-3.24-.12-1.91-.08-4.3-.19-7-.19-3.19,0-5.42.11-7.21.19-1.2.06-2.24.11-3.27.12Z" transform="translate(-250 -428.3)"/><path class="cls-5" d="M434.78,547.44c-15.37,0-20.85-11.26-20.85-21.8,0-7.36,3-13.11,9-17.1a27.25,27.25,0,0,1,13.83-4.09c11.73,0,19.92,8.42,19.92,20.49,0,8.2-3.27,14.67-9.47,18.72a26.74,26.74,0,0,1-12.4,3.78Zm-1.64-38.69a8.68,8.68,0,0,0-4.89,1.37c-3.55,2.16-5.36,6.47-5.36,12.8,0,11.85,5.94,20.13,14.45,20.13a9.05,9.05,0,0,0,6.25-2.21c2.62-2.13,4-6.48,4-12.57,0-11.68-5.8-19.52-14.45-19.52Z" transform="translate(-250 -428.3)"/><path class="cls-5" d="M594,547.44c-15.38,0-20.85-11.26-20.85-21.79,0-7.37,3-13.12,9-17.11a27.27,27.27,0,0,1,13.83-4.09c11.73,0,19.93,8.43,19.93,20.49,0,8.2-3.28,14.67-9.47,18.72a26.78,26.78,0,0,1-12.4,3.78Zm-1.64-38.69a8.71,8.71,0,0,0-4.9,1.37c-3.55,2.16-5.36,6.46-5.36,12.8,0,11.85,5.94,20.13,14.45,20.13a9.08,9.08,0,0,0,6.26-2.21c2.61-2.13,4-6.48,4-12.57,0-11.68-5.81-19.52-14.45-19.52Z" transform="translate(-250 -428.3)"/><path class="cls-5" d="M540.88,571.7c-5.52,0-9.49-1.17-12.89-3.78a12.06,12.06,0,0,1-4.78-8.93,7,7,0,0,1,1.81-4.55c1-1.09,3.19-3.13,8.33-6.67a.42.42,0,0,0,.27-.4.42.42,0,0,0-.32-.42c-4.24-1.62-5.52-4.28-5.91-5.73a1.31,1.31,0,0,0,0-.22,1.32,1.32,0,0,1,.53-1.65c.59-.43,1.55-1,2.56-1.59a33.48,33.48,0,0,0,4.11-2.67.63.63,0,0,0,.17-.57.64.64,0,0,0-.34-.48c-6.27-2.11-9.43-6.76-9.43-13.85a13.81,13.81,0,0,1,5.79-11.36,26.52,26.52,0,0,1,13-4.38h.23a26.61,26.61,0,0,1,9.9,2.2,15.83,15.83,0,0,0,5.85.93c3.49,0,5-1.11,6.33-2.38a5.4,5.4,0,0,1,.33,1.81,6.74,6.74,0,0,1-1.13,4.15,5.15,5.15,0,0,1-3.94,1.71l-.46,0a13.59,13.59,0,0,1-2.37-.4l-.39.14c-.13.18,0,.38.06.64a.65.65,0,0,1,0,.15,27.57,27.57,0,0,1,.57,3.88c0,7.43-2.93,10.68-6.11,13.07a20.82,20.82,0,0,1-10.56,4.08h0l-1.22.1-1.19.1h-.09c-.7.2-2.5,1-2.5,2.64,0,1.33.82,3,4.71,3.26l2.52.18c5.13.36,11.55.8,14.56,1.82a10.09,10.09,0,0,1,6.74,9.7c0,6.67-4.75,12.94-12.71,16.78a27.63,27.63,0,0,1-12,2.7Zm-.61-23.45a7.86,7.86,0,0,0-3.85,1c-3.75,2.4-5.49,4.8-5.49,7.56a8.07,8.07,0,0,0,3.19,6.52c2.63,2.23,6.18,3.31,10.85,3.31,9.19,0,13.31-4.93,13.31-9.83,0-3.4-1.71-5.68-5.23-7-2.71-1-7.24-1.54-12.78-1.54Zm.61-39.91c-4.74,0-7.8,3.74-7.8,9.52s2.63,12.66,10,12.66a7.21,7.21,0,0,0,4.73-1.83c1.73-1.58,2.85-4.85,2.85-8.3,0-7.54-3.67-12.05-9.83-12.05Z" transform="translate(-250 -428.3)"/><path class="cls-5" d="M515.9,542.82a18.62,18.62,0,0,1-5.83-1.51,2.78,2.78,0,0,1-.71-1.42c-.21-3.13-.21-12.22-.21-18.19,0-4.85-.82-9.09-2.86-12.12a12.33,12.33,0,0,0-10.44-5.46c-4,0-9.31,2.73-13.71,6.47-.1.1-.77.74-.76-.25s.17-3,.26-4.29a2.22,2.22,0,0,0-.67-1.88c-2.86,1.42-10.93,3.33-13.91,3.64-2.18.42-2.82,2.51-.41,3.23h0l0,0a19.38,19.38,0,0,1,5.28,2.31,2.76,2.76,0,0,1,.82,2.52c.1,6.77.1,17.18-.21,22.84-.1,2.22-.71,3-2.35,3.43l.15,0a29.94,29.94,0,0,1-3.79.71c-.51.51-.51,3.44,0,4,1,0,6.24-.3,10.54-.3,5.93,0,9,.3,10.54.3a5.65,5.65,0,0,0,.41-4,21.26,21.26,0,0,1-4.2-.61c-1.64-.4-2-1.21-2.15-3-.2-4.74-.2-14.85-.2-21.72,0-1.92.51-2.83,1.13-3.33a13.45,13.45,0,0,1,8.38-3,9.15,9.15,0,0,1,6.24,2.12,8.59,8.59,0,0,1,2.87,5.65c.41,3.84.31,11.52.31,18.19,0,3.64-.31,4.55-1.64,5a16.06,16.06,0,0,1-4.2.81c-.61.61-.4,3.44,0,4,2.66,0,5.73-.3,10.24-.3,5.62,0,9.2.3,10.64.3A5.6,5.6,0,0,0,515.9,542.82Z" transform="translate(-250 -428.3)"/></svg>