<svg xmlns="http://www.w3.org/2000/svg" viewBox="78.74616683937823 396 488.3316062176165 174.24" id="svg64" version="1.1" style="max-height: 500px" width="488.3316062176165" height="174.24">
  <defs id="defs68"/>
  
  <g id="Layer1000">
    
    <g id="Layer1001">
      <g id="Layer1002">
        <g id="Layer1003">
          <path data-index="1" id="path4" style="fill: rgb(155, 157, 159); fill-rule: evenodd; visibility: visible;" d="m 91.2355,490.0567 v 4.1575 h 454.2494 v -4.1575 z"/>
        </g>
      </g>
      <g id="Layer1004">
        <g id="Layer1005">
          <path data-index="2" id="path8" style="fill: rgb(122, 129, 131); fill-rule: evenodd; visibility: visible; opacity: 1;" d="m 91.2355,490.0567 v 4.1575 h 454.2494 v -4.1575 z"/>
        </g>
      </g>
    </g>
    <g id="Layer1006">
      <g id="Layer1007">
        <g id="Layer1008">
          <path data-index="3" id="path13" style="fill: rgb(0, 0, 0); fill-rule: evenodd; visibility: visible;" d="m 287.25,439.9755 h 30.1309 l -15.9134,-25.6773 -29.2369,46.3972 -13.3332,0.0137 35.5726,-55.7062 c 1.5126,-2.244 4.1173,-3.6194 6.971,-3.6194 2.789,0 5.3496,1.3225 6.8661,3.5233 l 35.6961,55.8023 -13.3195,-0.0137 -6.2789,-10.3678 h -30.5054 z"/>
          <path data-index="4" id="path15" style="fill: rgb(0, 0, 0); fill-rule: evenodd; visibility: visible;" d="m 425.5005,450.3276 v -48.3794 h -11.3108 v 53.1349 c 0,1.442 0.6185,2.8566 1.6685,3.8899 1.0881,1.1009 2.5664,1.7224 4.1241,1.7224 h 51.4556 l 6.7171,-10.3678 z"/>
          <path data-index="5" id="path17" style="fill: rgb(0, 0, 0); fill-rule: evenodd; visibility: visible;" d="m 238.6441,441.6685 c 10.9991,0 19.8445,-8.8914 19.8445,-19.8523 0,-10.9746 -8.8454,-19.868 -19.8445,-19.868 h -49.4303 v 58.7472 h 11.3011 v -48.3677 h 37.3685 c 5.2525,0 9.5012,4.237 9.5012,9.4885 0,5.2251 -4.2487,9.5208 -9.5012,9.5208 l -31.8474,-0.0118 33.7296,29.3702 h 16.3928 l -22.6619,-19.0269 z"/>
          <path data-index="6" id="path19" style="fill: rgb(0, 0, 0); fill-rule: evenodd; visibility: visible;" d="m 119.7166,460.6954 c -16.2242,0 -29.3751,-13.1235 -29.3751,-29.3584 0,-16.2291 13.1509,-29.3888 29.3751,-29.3888 h 34.1511 c 16.2408,0 29.328,13.1597 29.328,29.3888 0,16.2349 -13.0872,29.3721 -29.328,29.3721 z m 33.3708,-10.3482 v 0 c 10.5275,0 19.0239,-8.517 19.0239,-19.0102 0,-10.5188 -8.4964,-19.0093 -19.0239,-19.0093 h -32.614 c -10.5002,0 -19.0073,8.4905 -19.0073,19.0093 0,10.4932 8.5071,19.0102 19.0073,19.0102 z"/>
          <path data-index="7" id="path21" style="fill: rgb(0, 0, 0); fill-rule: evenodd; visibility: visible;" d="m 367.5974,460.6954 c -16.2487,0 -29.4231,-13.1235 -29.4231,-29.3584 0,-16.2291 13.1744,-29.3888 29.4231,-29.3888 h 40.5604 l -6.6867,10.3795 H 368.361 c -10.5481,0 -19.0318,8.4905 -19.0318,19.0093 0,10.4932 8.4837,19.0102 19.0318,19.0102 h 40.685 l -6.6054,10.3482 z"/>
          <path data-index="8" id="path23" style="fill: rgb(0, 0, 0); fill-rule: evenodd; visibility: visible;" d="m 505.7204,450.3472 c -8.6934,0 -16.0251,-5.8358 -18.274,-13.8283 h 48.2442 l 6.6671,-10.354 h -54.9113 c 2.2254,-8.0082 9.5806,-13.8372 18.274,-13.8372 h 33.1415 l 6.623,-10.3795 h -40.5075 c -16.2134,0 -29.3653,13.1597 -29.3653,29.3888 0,16.2349 13.1519,29.3584 29.3653,29.3584 h 34.8501 l 6.6367,-10.3482 z"/>
          <path data-index="9" id="path25" style="fill: rgb(0, 0, 0); fill-rule: evenodd; visibility: visible;" d="m 551.554,408.2163 c 0,-2.8762 2.3194,-5.1858 5.2035,-5.1858 2.9086,0 5.2015,2.3096 5.2015,5.1858 0,2.8635 -2.2929,5.179 -5.2015,5.179 -2.8841,0 -5.2035,-2.3155 -5.2035,-5.179 z m 5.2035,6.6093 v 0 c 3.6683,0 6.5896,-2.9263 6.5896,-6.5769 0,-3.6527 -2.9213,-6.6338 -6.5896,-6.6338 -3.6536,0 -6.6083,2.9811 -6.6083,6.6338 0,3.6506 2.9547,6.5769 6.6083,6.5769 z m -0.6176,-10.4982 v 0 c 0.993,0 1.4352,0.0353 1.9557,0.1971 1.297,0.4225 1.3979,1.6351 1.3979,2.0625 0,0.099 -0.0304,0.3392 -0.0843,0.6078 -0.0539,0.2882 -0.2098,0.8882 -0.8744,1.2813 -0.1186,0.0559 -0.1628,0.098 -0.3176,0.1755 l 1.692,3.0654 h -1.6587 l -1.5126,-2.8547 h -0.9725 v 2.8547 h -1.4764 v -7.3896 z m 0.5235,3.3448 v 0 c 0.4391,0 0.9322,-0.047 1.1783,-0.4774 0.2,-0.1676 0.2333,-0.3901 0.2333,-0.6333 0,-0.4019 -0.2333,-0.7195 -0.5705,-0.9126 -0.3716,-0.1363 -0.6686,-0.1363 -1.3646,-0.1363 h -0.3745 v 2.1596 z"/>
        </g>
      </g>
      <g id="Layer1009">
        <g id="Layer1010">
          <path data-index="10" id="path29" style="fill: rgb(227, 26, 35); fill-rule: evenodd; visibility: visible;" d="m 287.25,439.9755 h 30.1309 l -15.9134,-25.6773 -29.2369,46.3972 -13.3332,0.0137 35.5726,-55.7062 c 1.5126,-2.244 4.1173,-3.6194 6.971,-3.6194 2.789,0 5.3496,1.3225 6.8661,3.5233 l 35.6961,55.8023 -13.3195,-0.0137 -6.2789,-10.3678 h -30.5054 z"/>
          <path data-index="11" id="path31" style="fill: rgb(227, 26, 35); fill-rule: evenodd; visibility: visible;" d="m 425.5005,450.3276 v -48.3794 h -11.3108 v 53.1349 c 0,1.442 0.6185,2.8566 1.6685,3.8899 1.0881,1.1009 2.5664,1.7224 4.1241,1.7224 h 51.4556 l 6.7171,-10.3678 z"/>
          <path data-index="12" id="path33" style="fill: rgb(227, 26, 35); fill-rule: evenodd; visibility: visible; opacity: 1;" d="m 238.6441,441.6685 c 10.9991,0 19.8445,-8.8914 19.8445,-19.8523 0,-10.9746 -8.8454,-19.868 -19.8445,-19.868 h -49.4303 v 58.7472 h 11.3011 v -48.3677 h 37.3685 c 5.2525,0 9.5012,4.237 9.5012,9.4885 0,5.2251 -4.2487,9.5208 -9.5012,9.5208 l -31.8474,-0.0118 33.7296,29.3702 h 16.3928 l -22.6619,-19.0269 z"/>
          <path data-index="13" id="path35" style="fill: rgb(227, 26, 35); fill-rule: evenodd; visibility: visible;" d="m 119.7166,460.6954 c -16.2242,0 -29.3751,-13.1235 -29.3751,-29.3584 0,-16.2291 13.1509,-29.3888 29.3751,-29.3888 h 34.1511 c 16.2408,0 29.328,13.1597 29.328,29.3888 0,16.2349 -13.0872,29.3721 -29.328,29.3721 z m 33.3708,-10.3482 v 0 c 10.5275,0 19.0239,-8.517 19.0239,-19.0102 0,-10.5188 -8.4964,-19.0093 -19.0239,-19.0093 h -32.614 c -10.5002,0 -19.0073,8.4905 -19.0073,19.0093 0,10.4932 8.5071,19.0102 19.0073,19.0102 z"/>
          <path data-index="14" id="path37" style="fill: rgb(227, 26, 35); fill-rule: evenodd; visibility: visible;" d="m 367.5974,460.6954 c -16.2487,0 -29.4231,-13.1235 -29.4231,-29.3584 0,-16.2291 13.1744,-29.3888 29.4231,-29.3888 h 40.5604 l -6.6867,10.3795 H 368.361 c -10.5481,0 -19.0318,8.4905 -19.0318,19.0093 0,10.4932 8.4837,19.0102 19.0318,19.0102 h 40.685 l -6.6054,10.3482 z"/>
          <path data-index="15" id="path39" style="fill: rgb(227, 26, 35); fill-rule: evenodd; visibility: visible;" d="m 505.7204,450.3472 c -8.6934,0 -16.0251,-5.8358 -18.274,-13.8283 h 48.2442 l 6.6671,-10.354 h -54.9113 c 2.2254,-8.0082 9.5806,-13.8372 18.274,-13.8372 h 33.1415 l 6.623,-10.3795 h -40.5075 c -16.2134,0 -29.3653,13.1597 -29.3653,29.3888 0,16.2349 13.1519,29.3584 29.3653,29.3584 h 34.8501 l 6.6367,-10.3482 z"/>
          <path data-index="16" id="path41" style="fill: rgb(227, 26, 35); fill-rule: evenodd; visibility: visible;" d="m 551.554,408.2163 c 0,-2.8762 2.3194,-5.1858 5.2035,-5.1858 2.9086,0 5.2015,2.3096 5.2015,5.1858 0,2.8635 -2.2929,5.179 -5.2015,5.179 -2.8841,0 -5.2035,-2.3155 -5.2035,-5.179 z m 5.2035,6.6093 v 0 c 3.6683,0 6.5896,-2.9263 6.5896,-6.5769 0,-3.6527 -2.9213,-6.6338 -6.5896,-6.6338 -3.6536,0 -6.6083,2.9811 -6.6083,6.6338 0,3.6506 2.9547,6.5769 6.6083,6.5769 z m -0.6176,-10.4982 v 0 c 0.993,0 1.4352,0.0353 1.9557,0.1971 1.297,0.4225 1.3979,1.6351 1.3979,2.0625 0,0.099 -0.0304,0.3392 -0.0843,0.6078 -0.0539,0.2882 -0.2098,0.8882 -0.8744,1.2813 -0.1186,0.0559 -0.1628,0.098 -0.3176,0.1755 l 1.692,3.0654 h -1.6587 l -1.5126,-2.8547 h -0.9725 v 2.8547 h -1.4764 v -7.3896 z m 0.5235,3.3448 v 0 c 0.4391,0 0.9322,-0.047 1.1783,-0.4774 0.2,-0.1676 0.2333,-0.3901 0.2333,-0.6333 0,-0.4019 -0.2333,-0.7195 -0.5705,-0.9126 -0.3716,-0.1363 -0.6686,-0.1363 -1.3646,-0.1363 h -0.3745 v 2.1596 z"/>
        </g>
      </g>
    </g>
    <g id="Layer1011">
      <path data-index="17" id="path46" style="fill: rgb(255, 255, 255); fill-rule: evenodd; visibility: visible;" d="m 91.1483,523.2648 h 13.7116 c 12.5431,-0.1108 20.3346,6.1436 20.3346,20.1258 0,13.9812 -7.7915,20.2366 -20.3346,20.1082 H 91.1483 Z m 8.6424,33.56 v 0 h 4.4575 c 10.2541,0.098 11.7598,-7.0308 11.7598,-13.4342 0,-6.4102 -1.5057,-13.5469 -11.7598,-13.4352 h -4.4575 z"/>
      <path data-index="18" id="path48" style="fill: rgb(255, 255, 255); fill-rule: evenodd; visibility: visible;" d="m 152.1149,563.4988 14.5488,-40.234 h 10.2541 l 13.9881,40.234 h -8.6895 l -2.9008,-8.5179 h -15.9408 l -3.0057,8.5179 z m 25.0225,-15.2047 v 0 L 171.629,531.124 h -0.1216 l -5.9005,17.1701 z"/>
      <path data-index="19" id="path50" style="fill: rgb(255, 255, 255); fill-rule: evenodd; visibility: visible; opacity: 1;" d="m 211.9091,523.2648 h 32.6081 v 6.6906 h -11.9765 v 33.5434 h -8.6385 v -33.5434 h -11.9931 z"/>
      <path data-index="20" id="path52" style="fill: rgb(255, 255, 255); fill-rule: evenodd; visibility: visible;" d="m 266.533,563.4988 14.5459,-40.234 h 10.2502 l 13.992,40.234 h -8.6964 l -2.8939,-8.5179 H 277.786 l -3.0125,8.5179 z m 25.0225,-15.2047 v 0 l -5.5152,-17.1701 h -0.1118 l -5.9132,17.1701 z"/>
      <path data-index="21" id="path54" style="fill: rgb(255, 255, 255); fill-rule: evenodd; visibility: visible;" d="m 333.4629,563.4988 v -40.234 h 15.0968 c 7.1896,-0.4353 14.5459,2.5635 14.5459,10.4227 0,4.4075 -3.0635,7.4641 -7.0651,8.815 v 0.098 c 5.0623,1.0568 8.8512,4.579 8.8512,10.4893 0,7.9778 -10.0266,10.8609 -16.2144,10.409 z m 15.3772,-24.0667 v 0 c 3.6271,0 5.6368,-1.5057 5.6368,-4.7447 0,-3.2252 -2.0097,-4.732 -5.6368,-4.732 h -6.7377 v 9.4767 z m 0,17.3927 v 0 c 4.0732,0 6.8592,-0.7323 6.8592,-5.3525 0,-4.6339 -2.786,-5.3535 -6.8592,-5.3535 h -6.7377 v 10.706 z"/>
      <path data-index="22" id="path56" style="fill: rgb(255, 255, 255); fill-rule: evenodd; visibility: visible;" d="m 391.1974,563.4988 14.5498,-40.234 h 10.2462 l 13.9891,40.234 h -8.6934 l -2.8949,-8.5179 h -15.9399 l -3.0125,8.5179 z m 25.0254,-15.2047 v 0 l -5.5182,-17.1701 h -0.1117 l -5.9064,17.1701 z"/>
      <path data-index="23" id="path58" style="fill: rgb(255, 255, 255); fill-rule: evenodd; visibility: visible;" d="m 479.6412,534.7443 c -0.3372,-4.0595 -2.5057,-6.0721 -6.6867,-6.0721 -3.188,0 -6.4103,1.6754 -6.4103,5.181 0,4.3565 3.9007,4.8633 7.3524,5.6936 6.1328,1.5469 15.1536,3.2792 15.1536,11.3648 0,9.9835 -8.6796,13.4312 -17.325,13.4312 -9.1963,0 -15.7144,-3.5595 -15.4311,-13.7116 h 8.7983 c -0.3314,4.4575 2.2292,7.4602 6.7475,7.4602 3.4556,0 8.0179,-1.0568 8.0179,-5.3359 0,-4.7447 -5.7309,-5.0692 -9.1894,-5.974 -5.6299,-1.392 -13.3234,-3.9555 -13.3234,-11.0942 0,-9.1796 8.4728,-13.2528 16.7202,-13.2528 7.8082,0 13.8773,4.2251 13.8773,12.3098 z"/>
      <path data-index="24" id="path60" style="fill: rgb(255, 255, 255); fill-rule: evenodd; visibility: visible;" d="m 518.3753,523.2648 h 26.9674 v 6.6906 h -18.3318 v 9.4228 h 17.1701 v 6.6867 h -17.1701 v 10.7599 h 18.9465 v 6.674 h -27.5821 z"/>
    </g>
  </g>
</svg>