<svg xmlns="http://www.w3.org/2000/svg" xml:space="preserve" viewBox="0 0 900 900"><path fill="#9C2E1D" d="M1 350V1h900v900H1zm192.61 349.515c.058.18.116.359.01 1.359.135 1.38.27 2.758.285 4.75.244 2.15.488 4.298.66 7.37 1.142 14.436 2.291 28.873 3.426 43.31 1.41 17.921 2.735 35.85 4.316 53.756.177 2.002 1.784 3.878 3.19 5.784.344-.162.452-.422.544-1.703.034-1.332.1-2.663.1-3.995.003-210.397.006-420.794-.006-631.19 0-9.327-.127-18.653.566-28.341 1.977-.169 3.954-.486 5.93-.486 178.654-.017 357.307-.009 535.96-.023 2.362 0 4.723-.262 7.084-.402l.165-2.863c-62.298-6.801-124.643-13.199-186.962-19.817-62.949-6.685-125.906-13.29-188.859-19.932L192.433 87.299c27.194 19.761 31.646 43.051 11.141 63.55-.598.287-1.219.534-1.79.867-19.425 11.312-39.464 5.314-49.743-14.876-.97-1.904-2.081-3.736-3.127-5.602-1.067 1.467-1.142 2.558-1.056 3.637 2.51 31.481 5.012 62.963 7.57 94.44 1.102 13.577 2.324 27.144 3.395 41.472.151.74.303 1.481.299 3.1 3.656 46.37 7.313 92.74 10.864 139.805.283 1.125.566 2.251.77 3.852 0 0 .123.465-.028 1.18 2.535 31.648 5.039 63.297 7.623 94.94.852 10.424 1.913 20.83 2.713 32.116.303 3.404.606 6.808.761 10.593.129.512.257 1.023.271 2.4.838 9.735 1.675 19.471 2.367 29.921.199 1.425.397 2.85.493 5.101.294 3.068.588 6.136.735 9.858.165 1.089.331 2.178.378 4.164.241 2.384.482 4.769.554 7.857.206 1.405.412 2.81.524 5.177.475 2.481.95 4.963.998 7.853a49 49 0 0 1-.166 3.151c.638 7.035 1.276 14.07 1.755 21.498.094.546.188 1.092.165 2.526.237 2.364.474 4.729.594 7.954.915 10.027 1.831 20.053 2.623 30.774.156 1.154.312 2.308.365 3.916 0 0 .182.429.13.992m560.777-488.436c-1.92-.359-3.838-1.03-5.757-1.03-89.175-.055-178.35-.062-267.524.01-2.02.002-4.04.978-6.685 2.16l-.913 37.487c-4.73-2.152-8.432-4.057-12.298-5.53a99 99 0 0 0-11.877-3.709c-10.501-2.55-14.937-.586-20.05 8.672-9.008-1.97-18.568-5.093-25.537 4.199-3.92 5.228-4.52 11.42-2.443 17.955 15.952-9.813 33.886-4.262 38.014 11.735-10.543 2.65-17.423-3.803-24.55-10.191-.328 13.129 3.84 19.518 15.219 23.93 3.257 1.264 6.632 2.258 9.8 3.71 8.778 4.023 15.591 9.935 16.351 20.261.424 5.757.528 11.699-.402 17.364-3.47 21.138-14.031 40.648-14.017 62.757-8.528.577-15.922-1.759-23.036-5.07-17.7-8.236-33.038-19.875-46.742-33.618-13.236-13.274-18.976-29.446-7.194-49.83 12.85-22.23 8.098-48.854-10.002-64.058-22.21-18.656-64.257-13.633-78.765 18.585-8.39 18.632-11.663 38.155-11.779 58.317-.1 17.494.714 34.996.457 52.485-.33 22.39-1.947 44.723-11.723 65.387-3.17 6.7-7.646 12.815-11.817 19-2.773 4.11-2.719 5.59 1.74 7.567 5.221 2.314 10.44 1.557 15.44-.761 15.666-7.264 25.242-20.158 32.345-35.289 8.485-18.076 13.485-37.225 17.43-56.7.325-1.605.82-3.177 1.235-4.764l1.303.226c.098 1.923.283 3.845.28 5.768-.046 26.169-4.516 51.72-10.82 77.01-5.375 21.563-16.422 39.472-34.343 52.866-3.22 2.407-2.454 4.148.279 6.148 7.734 5.66 17.922 5.262 28.524-1.656 17.597-11.483 29.817-27.28 36.567-47.176 3.072-9.057 5.703-18.264 8.534-27.404 2.394 14.105 1.553 28.044-.812 41.95-5.093 29.95-19.953 54.294-42.749 73.949 5.01 6.39 14.76 8.166 22.773 3.922 29.218-15.474 47.196-39.7 55.245-71.559.487-1.928 1.096-3.826 1.648-5.737l1.279.484c.763 42.86-4.997 83.279-42.656 111.6 5.215 6.594 14.358 8.942 22.634 4.822 6.33-3.15 12.53-7.05 17.82-11.713 20.182-17.794 33.307-39.97 39.347-66.264.967-4.208 2.03-8.393 3.05-12.59 1.105.677 1.48 1.262 1.478 1.846-.032 14.979.777 30.026-.383 44.92-1.54 19.786-7.726 38.172-21.94 52.926-3.32 3.445-6.954 6.586-10.888 10.284l13.605 9.152c-1.38 2.403-2.348 4.14-3.364 5.848-5.937 9.981-5.904 9.772-17.172 7.788-8.824-1.553-17.725-2.827-26.646-3.627-6.438-.578-11.492 2.707-15.349 7.78-3.737 4.916-3.974 11.477-.363 16.188.85-2.114 1.344-4.246 2.488-5.94 1.16-1.719 2.733-3.423 4.524-4.406 6.538-3.588 15.379-1.9 21.269 3.51 1.926 1.768 4.07 3.697 6.466 4.476 4.868 1.584 9.937 2.654 14.992 3.538 8.819 1.544 14.014 8.197 12.981 17.037-.138 1.182-.155 2.379-.244 3.83 7.794-3.12 10.885-9.02 9.114-17.016-.717-3.237-2.096-6.325-2.85-9.557-.515-2.209-1.34-4.95-.509-6.754 2.405-5.216 5.578-10.078 8.504-15.173l14.173 8.383c.491-1.628.827-2.862 1.234-4.073 6.19-18.437 12.232-36.926 18.71-55.262 1.365-3.866 4.328-7.169 7.292-11.908 1.013 2.936 1.869 4.283 1.883 5.639.091 8.783 1.188 17.777-.31 26.305-2.283 13.011-1.82 25.106 4.648 36.818.679 1.228-.053 3.431-.532 5.065-1.22 4.165-3.922 8.324-3.725 12.374.276 5.68 2.598 11.271 4.125 16.878 1.106 4.062 2.343 8.087 3.504 12.069-.999.322-1.164.43-1.315.413-.483-.053-1.004-.056-1.435-.248-12.385-5.507-23.236-3.191-32.992 6.06-6.907 6.548-15.086 10.72-24.613 12.271-4.734.77-9.36 2.203-14.36 3.414 6.027 5.08 11.125 9.477 16.33 13.741 7.775 6.368 16.57 8.17 25.63 3.717 5.283-2.596 9.897-6.648 14.581-10.338 4.593-3.618 8.893-7.608 13.322-11.435l1.456.82c0 5.872.673 11.838-.125 17.599-2.534 18.3-3.12 36.487.746 54.674 2.908 13.68 6.928 26.975 13.161 40.632 13.947-5.847 27.882-10.873 41.084-17.388 29.976-14.79 57.224-33.622 81.497-56.78 24.364-23.244 45.147-49.334 62.564-78.025 20.806-34.275 36.92-70.788 49.58-108.819 22.378-67.234 34.734-136.502 40.47-206.93 3.109-38.172 4.271-76.505 6.07-114.777.355-7.56-.395-15.172-1.19-23.216"/><path fill="#F4BF8C" d="M754.942 211.535c.24 7.588.99 15.2.635 22.76-1.799 38.272-2.961 76.605-6.07 114.777-5.736 70.428-18.092 139.696-40.47 206.93-12.66 38.031-28.774 74.544-49.58 108.819-17.417 28.691-38.2 54.78-62.564 78.025-24.273 23.158-51.52 41.99-81.497 56.78-13.202 6.515-27.137 11.541-41.083 17.388-6.234-13.657-10.254-26.953-13.162-40.632-3.866-18.187-3.28-36.374-.746-54.674.798-5.761.125-11.727.125-17.599l-1.456-.82c-4.429 3.827-8.73 7.817-13.322 11.435-4.684 3.69-9.298 7.742-14.58 10.338-9.06 4.452-17.856 2.651-25.63-3.717-5.206-4.264-10.304-8.661-16.33-13.741 4.998-1.211 9.625-2.643 14.359-3.414 9.527-1.55 17.706-5.723 24.613-12.272 9.756-9.25 20.607-11.566 32.992-6.06.431.193.952.196 1.435.25.151.016.316-.092 1.315-.414-1.161-3.982-2.398-8.007-3.504-12.069-1.527-5.607-3.849-11.197-4.125-16.878-.197-4.05 2.504-8.209 3.725-12.374.48-1.634 1.21-3.837.532-5.065-6.469-11.712-6.931-23.807-4.647-36.818 1.497-8.528.4-17.522.309-26.305-.014-1.356-.87-2.703-1.883-5.64-2.964 4.74-5.927 8.043-7.293 11.909-6.477 18.336-12.52 36.825-18.71 55.262-.406 1.21-.742 2.445-1.233 4.073l-14.173-8.383c-2.926 5.095-6.099 9.957-8.504 15.173-.831 1.803-.006 4.545.51 6.754.753 3.232 2.132 6.32 2.85 9.557 1.77 7.996-1.321 13.896-9.115 17.016.09-1.451.106-2.648.244-3.83 1.033-8.84-4.162-15.493-12.98-17.037-5.056-.884-10.125-1.954-14.993-3.538-2.395-.78-4.54-2.708-6.466-4.477-5.89-5.409-14.731-7.097-21.269-3.51-1.791.984-3.363 2.688-4.524 4.408-1.144 1.693-1.639 3.825-2.488 5.939-3.61-4.711-3.374-11.272.363-16.187 3.857-5.074 8.91-8.359 15.35-7.781 8.92.8 17.82 2.074 26.645 3.627 11.268 1.984 11.235 2.193 17.172-7.788 1.016-1.708 1.984-3.445 3.364-5.848l-13.605-9.152c3.934-3.698 7.569-6.84 10.888-10.284 14.214-14.754 20.4-33.14 21.94-52.926 1.16-14.894.351-29.941.383-44.92.001-.584-.373-1.17-1.478-1.846-1.02 4.197-2.083 8.382-3.05 12.59-6.04 26.293-19.165 48.47-39.347 66.264-5.29 4.664-11.49 8.563-17.82 11.713-8.276 4.12-17.419 1.772-22.634-4.822 37.659-28.321 43.42-68.74 42.656-111.6l-1.279-.484c-.552 1.911-1.161 3.809-1.648 5.737-8.049 31.86-26.027 56.085-55.245 71.56-8.014 4.243-17.763 2.467-22.773-3.923 22.796-19.655 37.656-44 42.75-73.95 2.364-13.905 3.205-27.844.81-41.949-2.83 9.14-5.46 18.347-8.533 27.404-6.75 19.896-18.97 35.693-36.567 47.176-10.602 6.918-20.79 7.315-28.524 1.656-2.733-2-3.499-3.741-.279-6.148 17.921-13.394 28.968-31.303 34.343-52.866 6.304-25.29 10.774-50.841 10.82-77.01.003-1.923-.182-3.845-.28-5.768l-1.303-.226c-.416 1.587-.91 3.159-1.235 4.765-3.945 19.474-8.945 38.623-17.43 56.699-7.103 15.13-16.679 28.025-32.344 35.289-5.001 2.318-10.22 3.075-15.44.76-4.46-1.976-4.514-3.455-1.741-7.567 4.171-6.184 8.647-12.298 11.817-18.999 9.776-20.664 11.393-42.997 11.723-65.387.257-17.489-.557-34.991-.457-52.485.116-20.162 3.39-39.685 11.78-58.317 14.507-32.218 56.554-37.24 78.764-18.585 18.1 15.204 22.852 41.827 10.002 64.058-11.782 20.384-6.042 36.556 7.194 49.83 13.704 13.743 29.042 25.382 46.742 33.619 7.114 3.31 14.508 5.646 23.036 5.07-.014-22.11 10.547-41.62 14.017-62.758.93-5.665.826-11.607.402-17.364-.76-10.326-7.573-16.238-16.351-20.262-3.168-1.451-6.543-2.445-9.8-3.708-11.378-4.413-15.547-10.802-15.22-23.931 7.128 6.388 14.008 12.84 24.551 10.191-4.128-15.997-22.062-21.548-38.014-11.735-2.076-6.535-1.478-12.727 2.443-17.955 6.969-9.292 16.53-6.168 25.537-4.199 5.113-9.258 9.549-11.223 20.05-8.672a99 99 0 0 1 11.877 3.708c3.866 1.474 7.567 3.38 12.298 5.53.313-12.876.613-25.18 1.686-37.745 92.935-.247 185.097-.235 277.26-.232.829 0 1.658-.126 2.487-.193M511.198 276.18s.008.077.597-.241c5.175-3.731 10.35-7.462 15.8-11.138 0 0 .233-.157 1.139-.184 6.776-1.318 12.57.868 17.999 5.807 1.09-6.801 1.248-12.72-3.287-17.494-7.693-8.097-16.74-4.45-25.48-2.322-2.25-8.75-5.378-11.453-14.308-9.707-7.89 1.542-15.45 4.788-23.148 7.301-4.33 1.414-5.873 4.101-5.859 8.94.182 61.931.14 123.863.01 185.794-.009 4.147 1.128 5.71 5.34 5.261 15.35-1.631 30.266-4.757 44.804-12.156 13.735-5.455 25.753-13.733 36.873-23.244 14.591-12.478 26.858-27.015 36.422-43.69 0 0 .032.056.557-.38 5.433-10.576 10.865-21.152 16.862-32.083.812-2.55 1.624-5.098 2.503-8.403.204-.99.409-1.978.927-3.281.25-.362.5-.724 1.3-1.299 2.79-3.037 4.07.334 5.928 2.037-.075.423-.151.845-.763 1.716-1.444 4.509-3.182 8.953-4.204 13.555-.487 2.195.385 4.693.682 7.61-.19.516-.378 1.033-1.181 1.894-2.476 5.546-5.148 11.019-7.283 16.693-.505 1.34.795 3.359 1.135 5.828-1.544 3.847-2.976 7.744-4.65 11.535-11.186 25.337-26.946 47.239-49.521 63.595-8.653 6.27-18.25 11.236-27.99 16.805-.507.238-1.012.475-2.283.852-17.616 7.369-36.215 10.679-55.123 12.75 0 7.213 0 13.847-.166 21.404.051 7.018.103 14.035-.032 21.977.058 18.699.116 37.397.006 57.02.056 15.355.111 30.711-.017 46.985.062 5.028.124 10.056.017 16.006.056 5.357.111 10.715-.019 16.995v152.201c10.374-22.854 16.203-46.39 14.333-71.354-.757-10.11-1.782-20.201-2.417-30.318-.124-1.99.987-4.058 1.528-6.09 1.84.848 3.704 1.648 5.51 2.564.881.447 1.654 1.111 2.522 1.855 0 0 .183.018.596.513 5.607 4.624 10.908 9.696 16.89 13.768 9.786 6.662 19.753 5.954 29.003-1.384 4.906-3.891 9.626-8.015 14.949-12.468-1.994-.622-3.613-1.378-5.306-1.617-13.863-1.958-25.75-7.417-36.208-17.148-8.18-7.612-20.162-7.472-29.883-1.838-.443-.188-.886-.376-1.685-.974-.163-.08-.326-.159-.487-.719-.058-.316-.135-.627.057-1.621 1.553-4.919 3.147-9.825 4.65-14.76 2.942-9.659 6.368-19.388-3.295-27.539 7.14-11.476 9.769-23.477 6.726-36.277-2.752-11.577-1.768-23.046.636-34.54 1.898 1.428 4.295 2.507 5.589 4.357 2.513 3.596 4.408 7.625 6.528 12.074.272.491.544.983.916 2.214l16.896 50.462c3.099-2.147 6.289-4.359 9.776-6.416 0 0 .18-.282.715-.595.554-.234 1.108-.468 2.38-.564 2.792 4.498 5.949 8.82 8.225 13.566 1.163 2.422 1.33 5.692.908 8.418-.657 4.242-2.543 8.286-3.29 12.524-1.11 6.3 1.413 10.554 7.043 13.066.829-14.846 3.46-17.797 18.532-20.595 7.128-1.324 13.41-3.869 19.053-8.89 2.896-2.578 7.85-3.567 11.98-3.874 6.95-.516 11.834 3.374 14.613 10.237 3.62-9.277-2.656-18.955-12.906-20.078-5.057-.554-10.319-.088-15.395.6-6.585.892-13.04 2.743-19.627 3.604-2.538.331-6.392-.015-7.718-1.632-3.4-4.147-5.718-9.18-8.574-14.04 4.734-3.14 8.996-5.97 13.485-8.948-.748-.881-1.174-1.604-1.791-2.078-11.535-8.852-19.54-20.245-24.616-33.812-8.835-23.611-8.004-48.076-6.407-72.594.071-1.1 1.49-2.113 2.921-4.016.46 2.204.646 2.998.789 3.8 4.346 24.395 13.239 46.782 29.827 65.54 8.375 9.47 17.517 18.207 29.467 23.23 7.477 3.145 15.54 1.67 20.82-3.835-16.646-14.124-29.944-30.746-35.83-52.114-6.767-24.57-8.825-58.69-4.18-63.59 1.97 6.814 3.652 13.51 5.84 20.038 8.688 25.93 25.312 45.332 49.076 58.64 8.974 5.024 18.728 3.998 23.631-2.171-16.751-14.698-29.958-31.934-37.389-53.201-7.404-21.193-10.462-59.366-4.595-65.023.718 2.51 1.38 4.654 1.943 6.824 3.728 14.37 7.671 28.719 15.588 41.444 9.148 14.703 20.74 26.962 37.777 32.444 7.232 2.327 14.043.725 20.854-6.227-1.6-.896-3.039-1.473-4.21-2.392-13.063-10.263-23.714-22.54-29.171-38.416-10.484-30.498-15.547-61.97-15.378-94.238.011-2.207.941-4.41 1.444-6.616l1.315.175c1.098 5.18 2.157 10.37 3.302 15.539 4.845 21.866 10.945 43.287 23.065 62.45 6.68 10.564 15.7 18.512 27.63 22.585 5.512 1.882 11.073 1.734 15.624-3.376-15.137-17.183-22.766-37.54-24.203-59.754-1.493-23.065-1.455-46.247-1.534-69.38-.071-20.745-1.079-41.201-8.222-61.02-6.527-18.107-17.421-31.198-36.977-35.551-21.982-4.894-47.693 2.05-57.355 27.847-5.99 15.99-3.912 31.196 4.619 46.008 7.234 12.56 7.879 25.742-.218 38.319-8.435 13.101-20.658 22.52-33.046 31.466-10.643 7.687-22.006 14.443-35.082 17.36-3.588.8-7.36.774-11.38 1.16.25-16.145-5.131-30.062-8.953-44.356-2.61-9.762-4.947-19.749-5.866-29.776-1.25-13.641 5.573-23.19 18.164-28.507 4.138-1.748 8.425-3.15 12.536-4.956 7.937-3.486 12.213-11.368 10.069-19.017-1.513 1.317-2.667 2.918-4.219 3.563-4.952 2.06-9.972 4.066-15.14 5.436-1.653.438-5.14.425-3.955-3.876.886-1.488 1.772-2.977 2.581-4.458M330.17 329.145l-10.32-40.22c.371 6.536.324 12.557 1.132 18.46 1.619 11.837 3.705 23.609 5.457 35.8.01.294.117.545.275 1.557.335 1 .67 2 .962 3.683.455 1.534.91 3.067 1.35 5.115.068.158.136.315.216 1.157.165.422.33.844.469 1.994 1.546 4.852 3.092 9.705 4.745 14.98 0 0 .316.299.43 1.005.459 1.076.917 2.152 1.484 3.936 25.88 68.347 82.224 98.085 136.645 100.08v-27.03c-.858-.22-1.323-.416-1.8-.45-35.928-2.53-65.812-17.912-91.606-42.47-21.686-20.646-36.541-45.706-48.235-73.178a64 64 0 0 1-.923-3.225s-.245-.402-.28-1.194m-35.058-30c.35.352.68.728 1.053 1.053 4.312 3.749 9.194 4.012 12.996.71 3.967-3.446 4.807-9.464 1.956-14.007-2.62-4.173-7.61-5.669-12.154-3.643-4.464 1.99-6.932 7.554-5.519 12.571.267.947.778 1.825 1.668 3.316m16.783-35.708c-3.846 5.17-3.473 11.306.921 15.146 3.924 3.43 9.512 3.074 13.43-.854 3.53-3.539 3.55-10.015.043-14.122-4.023-4.712-8.384-4.946-14.394-.17m30.293 35.612c1.054-.792 2.78-1.407 3.04-2.406.914-3.487 2.473-7.44 1.565-10.573-.756-2.607-4.325-5.238-7.201-6.194-4.285-1.425-8.12.65-10.284 4.849-1.986 3.852-1.851 7.84.782 11.231 2.85 3.67 6.718 5.227 12.098 3.093m102.369-39.671 17.441 2.665c-1.505-6.178-5.136-9.385-12.866-11.316-4.276-1.068-8.633-2.311-12.665 2.034 2.665 2.25 5.033 4.25 8.09 6.617"/><path fill="#F5BE8C" d="M204.182 150.592c19.897-20.242 15.445-43.532-11.75-63.293l187.587 19.793c62.953 6.641 125.91 13.247 188.859 19.932 62.319 6.618 124.664 13.016 186.962 19.817l-.165 2.863c-2.361.14-4.722.402-7.083.402-178.654.014-357.307.006-535.96.023-1.977 0-3.954.317-6.751.572-1.113.021-1.406-.044-1.699-.109"/><path fill="#F4C08C" d="M188.573 628.296c-.475-2.482-.95-4.964-1.247-8.252.349-2.216.517-3.624.841-5.383-.617-8.454-1.389-16.556-2.163-24.992-.005-.778-.008-1.222.114-1.999-.07-8.03-.296-15.728-.434-23.428-.024-1.291.606-2.623.457-3.88-.666-5.622 2.099-12.128-4.07-16.852-.494-9.354.297-18.164-1.242-27.18-2.135-12.5-1.916-25.394-2.813-38.112-1.298-18.406-2.62-36.813-4.164-55.2-.146-1.74-1.943-3.343-2.973-5.01 0 0-.122-.464.091-1.008.475-1.679.736-2.815 1.162-4.317.228-3.156.527-5.963.316-8.73-1.422-18.698-3.096-37.378-4.342-56.086-.292-4.388 2.567-9.877.784-13.087-3.555-6.399-3.509-12.388-2.273-18.932.057-.303-.144-.646-.177-.976q-1.105-11.155-2.192-22.312c-.032-.327-.035-.678.045-.994 1.813-7.13-3.318-12.38-5.016-18.557-.151-.74-.303-1.481-.237-2.942.67-6.646 1.634-12.59 1.429-18.493-.204-5.877-1.947-11.687-2.368-17.573-.854-11.956-1.314-23.942-1.82-35.92-.068-1.6.41-3.264.858-4.835.93-3.271 2.7-6.382-1.547-9.054-1.313-.826-1.725-3.551-1.988-5.483-.673-4.926-1.354-9.89-1.419-14.846-.063-4.785.64-9.58 1.094-15.498 9.751 7.93 19.11 11.864 30.148 10.662.818-.089 1.662.005 2.49.07 4.766.371 11.605-1.024 15.34-2.973.745.375 1.242.625 1.795 1.292.351 4.395.904 8.372.906 12.35.045 134.33.106 268.658-.022 402.987-.026 26.585 1.195 53.2-1.747 79.758-.622 5.608 1.794 11.493 1.682 17.228-.342 17.424-1.2 34.838-1.98 52.25-.067 1.49-1.045 2.94-1.6 4.408l-.69-.416c-.537-4.668-1.075-9.335-1.645-14.363-1.332-2.443-2.631-4.525-3.93-6.607-.136-1.379-.271-2.758-.12-4.723.55-.832.813-1.078 1.076-1.556 0-.231 0-.695.086-1.05.034-2.8-.02-5.243-.164-8.08-.712-9.124-1.33-17.854-1.943-27.014-.217-5.963-.098-11.54-.767-17.019-.6-4.916-2.07-9.726-3.182-14.829-.164-.978-.302-1.71-.44-2.444"/><path fill="#F9BE90" d="M201.008 155.999c-3.486 2.074-10.325 3.47-15.092 3.098-.827-.065-1.671-.159-2.489-.07-11.037 1.202-20.397-2.731-30.148-10.662-.454 5.918-1.157 10.713-1.094 15.498.065 4.956.746 9.92 1.419 14.846.263 1.932.675 4.657 1.988 5.483 4.247 2.672 2.477 5.783 1.547 9.054-.448 1.571-.926 3.235-.858 4.835.506 11.978.966 23.964 1.82 35.92.42 5.886 2.164 11.696 2.368 17.573.205 5.903-.76 11.847-1.381 18.115a2076 2076 0 0 1-3.66-40.374c-2.558-31.477-5.06-62.959-7.57-94.44-.086-1.079-.011-2.17 1.056-3.637 1.046 1.866 2.158 3.698 3.127 5.602 10.28 20.19 30.318 26.188 49.743 14.876.571-.333 1.192-.58 2.094-.995.597-.064.89.001 1.622.161.508 9.421.634 18.747.635 28.073.012 210.397.01 420.794.005 631.191 0 1.332-.065 2.663-.35 4.581-.433.76-.6.947-.755 1.146-.944-1.935-2.551-3.811-2.728-5.813-1.581-17.906-2.906-35.835-4.316-53.756-1.135-14.437-2.284-28.874-2.971-43.784 1.293-.497 2.13-.52 2.968-.542l1.614 14.003.689.416c.555-1.469 1.533-2.918 1.6-4.408.78-17.412 1.638-34.826 1.98-52.25.112-5.735-2.304-11.62-1.682-17.228 2.942-26.558 1.721-53.173 1.747-79.758.128-134.33.067-268.658.022-402.987-.002-3.978-.555-7.955-.863-12.543-.704-.815-1.395-1.02-2.087-1.224m-49.117-9.07.213.161s-.13-.231-.213-.162"/><path fill="#8A2B0F" d="M754.665 211.307c-.552.295-1.381.42-2.21.42-92.163-.002-184.325-.014-276.948-.097 1.56-.593 3.58-1.57 5.6-1.571 89.174-.072 178.349-.065 267.524-.01 1.919 0 3.838.671 6.034 1.258"/><path fill="#F9BE90" d="M159.2 273.448c1.775 5.738 6.906 10.988 5.093 18.118-.08.316-.077.667-.045.994q1.087 11.157 2.192 22.312c.033.33.234.673.177.976-1.236 6.544-1.282 12.533 2.273 18.932 1.783 3.21-1.076 8.699-.784 13.087 1.246 18.708 2.92 37.388 4.342 56.085.21 2.768-.088 5.575-.628 8.722-.894.347-1.311.335-1.729.323-3.656-46.37-7.313-92.74-10.892-139.549"/><path fill="#F5B58A" d="M170.803 418.366c1.106 1.31 2.903 2.912 3.049 4.652 1.544 18.387 2.866 36.794 4.164 55.2.897 12.718.678 25.613 2.813 38.112 1.54 9.016.748 17.826 1.103 27.338-.314.835-.505 1.04-.703 1.239-.965-10.414-2.026-20.82-2.878-31.242a19881 19881 0 0 1-7.548-95.299"/><path fill="#F5B98B" d="M181.146 545.343c.28-.635.472-.84.795-1.21 6.299 4.101 3.534 10.607 4.2 16.23.149 1.256-.48 2.587-.457 3.879.138 7.7.363 15.398.203 23.423-.663.319-.971.314-1.279.315-.837-9.736-1.674-19.472-2.398-29.834-.003-1.135-.12-1.644-.237-2.154-.303-3.404-.606-6.808-.827-10.649M189.038 630.986c1.086 4.857 2.555 9.667 3.156 14.583.67 5.48.55 11.056.475 17.013-.886.413-1.473.402-2.06.39-.236-2.364-.473-4.729-.575-7.737.042-1.188-.05-1.732-.14-2.275-.639-7.035-1.277-14.07-1.622-21.54.292-.437.766-.434.766-.434"/><path fill="#F5B58A" d="M190.551 663.403c.645-.42 1.232-.408 2.111-.392.911 8.737 1.53 17.467 2.2 26.907-.507 1.804-1.065 2.9-1.622 3.995-.916-10.027-1.832-20.053-2.689-30.51"/><path fill="#F5B98B" d="M186.007 590.002c.771 8.103 1.543 16.205 1.957 24.65-.63.33-.9.321-1.172.318-.24-2.384-.482-4.769-.551-7.848-.02-1.838-.212-2.98-.403-4.122-.294-3.069-.588-6.137-.687-9.896.416-1.495.636-2.298.856-3.102"/><path fill="#F5B58A" d="M197.956 711.618c-.805.383-1.643.405-2.9.44-.663-2.136-.907-4.284-1.09-6.74 1.359 1.775 2.658 3.857 3.99 6.3"/><path fill="#F9BE90" d="M193.178 694.26c.62-1.443 1.177-2.538 1.776-3.95.095 2.129.148 4.572-.235 7.375-.67.368-.903.376-1.136.384-.155-1.154-.311-2.308-.405-3.81"/><path fill="#F5B58A" d="M186.004 589.67a21 21 0 0 1-.801 3.021c-.343-1.147-.541-2.572-.667-4.354.38-.358.688-.353 1.226-.34.234.45.237.894.242 1.672M186.707 615.322c.356-.349.627-.34 1.102-.319.034 1.417-.134 2.825-.435 4.56-.339-1.079-.545-2.484-.667-4.241M170.039 413.344c.47-.335.887-.323 1.616-.303.051 1.144-.21 2.28-.646 3.722-.457-.82-.74-1.946-.97-3.419M185.764 603.326c.265.816.457 1.958.536 3.347-.278-.842-.444-1.931-.536-3.347M189.012 630.74c.026.246-.448.243-.684.24-.22-.762-.201-1.519.031-2.48.351.53.489 1.262.653 2.24M181.9 556.183c.19.319.307.828.367 1.53-.185-.317-.313-.828-.368-1.53M189.814 653.156q.255.52.278 1.635-.256-.52-.278-1.635"/><path fill="#F5BE8C" d="M205.266 815.858c-.077-.184.091-.37.414-.67.27.234.161.494-.414.67"/><path fill="#F9BE90" d="M194.982 698.964c-.263.246-.525.492-.993.914-.263-.004-.321-.184-.023-.639.577-.275.796-.275 1.016-.275"/><path fill="#F5B58A" d="M194.982 698.732c-.22.232-.44.232-.989.226-.33-.006-.512-.435-.46-.662.283-.235.516-.243 1.099-.255.35-.004.35.46.35.691"/><path fill="#9B301D" d="M508.105 281.033c-.673 3.906 2.814 3.92 4.467 3.481 5.168-1.37 10.188-3.375 15.14-5.436 1.552-.645 2.706-2.246 4.219-3.563 2.144 7.649-2.132 15.53-10.069 19.017-4.111 1.806-8.398 3.208-12.536 4.956-12.59 5.317-19.414 14.866-18.164 28.507.92 10.027 3.256 20.014 5.866 29.776 3.822 14.294 9.204 28.21 8.954 44.355 4.018-.385 7.79-.359 11.379-1.16 13.076-2.916 24.44-9.672 35.082-17.359 12.388-8.946 24.611-18.365 33.046-31.466 8.097-12.577 7.452-25.759.218-38.319-8.531-14.812-10.608-30.017-4.62-46.008 9.663-25.797 35.374-32.74 57.356-27.847 19.556 4.353 30.45 17.444 36.977 35.552 7.143 19.818 8.15 40.274 8.222 61.019.079 23.133.04 46.315 1.534 69.38 1.437 22.214 9.066 42.57 24.203 59.754-4.55 5.11-10.112 5.258-15.624 3.376-11.93-4.073-20.95-12.02-27.63-22.584-12.12-19.164-18.22-40.585-23.065-62.451-1.145-5.17-2.204-10.359-3.302-15.539l-1.315-.175c-.503 2.205-1.433 4.409-1.444 6.616-.17 32.269 4.894 63.74 15.378 94.238 5.457 15.875 16.108 28.153 29.172 38.416 1.17.92 2.61 1.496 4.21 2.392-6.812 6.952-13.623 8.554-20.855 6.227-17.037-5.482-28.63-17.741-37.777-32.444-7.917-12.725-11.86-27.074-15.588-41.445-.562-2.17-1.225-4.314-1.943-6.823-5.867 5.657-2.81 43.83 4.595 65.023 7.431 21.267 20.638 38.503 37.389 53.201-4.903 6.17-14.657 7.195-23.63 2.17-23.765-13.308-40.389-32.71-49.078-58.639-2.187-6.527-3.869-13.224-5.84-20.039-4.644 4.9-2.586 39.02 4.181 63.59 5.886 21.37 19.184 37.991 35.83 52.115-5.28 5.506-13.343 6.98-20.82 3.836-11.95-5.024-21.092-13.762-29.467-23.232-16.588-18.757-25.481-41.144-29.827-65.54-.143-.801-.33-1.595-.789-3.8-1.43 1.904-2.85 2.916-2.921 4.017-1.597 24.518-2.428 48.983 6.407 72.594 5.076 13.567 13.081 24.96 24.616 33.812.617.474 1.043 1.197 1.791 2.078l-13.485 8.949c2.856 4.859 5.174 9.892 8.574 14.039 1.326 1.617 5.18 1.963 7.718 1.632 6.587-.86 13.042-2.712 19.627-3.604 5.076-.688 10.338-1.154 15.395-.6 10.25 1.123 16.526 10.801 12.906 20.078-2.78-6.863-7.664-10.753-14.614-10.237-4.128.307-9.083 1.296-11.98 3.874-5.641 5.021-11.924 7.566-19.052 8.89-15.073 2.798-17.703 5.75-18.532 20.595-5.63-2.512-8.154-6.766-7.043-13.066.747-4.238 2.633-8.282 3.29-12.524.423-2.726.255-5.996-.908-8.418-2.276-4.745-5.433-9.068-8.75-13.806-1.147.212-1.769.665-2.39 1.117 0 0-.18.282-.783.088-1.255-.308-1.901-.462-2.557-.533-7.219-.776-7.567-1.374-5.669-8.192.355-1.274.303-3.204-.435-4.148-4.046-5.172-5.066-11.28-6.51-17.432-1.14-4.867-3.6-9.47-5.857-14-.58-1.162-2.607-1.602-4.02-2.687-.142-1.137-.329-1.962-.306-2.782.207-7.488-3.044-12.486-10.335-14.755-2.618-.815-4.897-1.082-6.315 2.203-.005.77-.008 1.212-.342 1.813-3.473 3.87-3.635 10.566-.684 15.22-.003 1.124-.008 1.872-.18 2.729-.058.704.052 1.3.17 2.347.016 3.147.027 5.845-.12 8.886-.782 3.42-1.825 6.482-1.946 9.58-.235 6.023.047 12.067-.027 18.411-1.06 2.428-1.98 4.546-3.157 6.759-.74 1.032-1.223 1.969-1.706 3.156 0 .417 0 .584-.1 1.014-2.1 3.667-3.373.456-4.918-.731.001-5.485.002-10.504.283-15.75.711-1.604 1.455-2.966 1.514-4.358.197-4.623.162-9.256.19-13.886.032-5.627.1-11.256.037-16.883-.07-6.168-.127-12.177 2.826-18.026 1.165-2.307.343-5.757.02-8.64-.4-3.59-1.674-7.117-1.784-10.695-.513-16.638-.696-33.285-1.174-49.924-.052-1.806-1.244-3.58-1.957-5.566-.018-.732.013-1.267.323-2.01 1.759-4.741 3.24-9.272 5.033-13.97 7.103-1.055 13.895-1.943 21.024-2.676 3.32 1.094 6.098 1.385 8.04-2.235 5.78-1.7 11.196-3.31 16.965-5.003 3.278-1.069 6.138-2.43 9.143-2.937 3.365-.57 2.737-2 1.828-4.13 1.438-.382 2.565-.61 3.857-.576 1.568.672 2.97 1.08 4.372 1.488-.18-1.254-.362-2.507-.348-4.028 1.394-.755 2.594-1.244 4.048-1.874.76-.71 1.267-1.279 2.135-1.885 12.104-4.864 19.747-14.984 29.35-22.572.694-.548.78-1.815 1.272-2.68.983-1.73 1.82-3.619 3.121-5.085 9.391-10.585 16.882-22.315 22.506-35.33 3.264-7.552 7.248-14.791 10.856-22.196.42-.862.556-1.875.748-2.832.976-4.861 2.175-9.696 2.798-14.603.404-3.176-.048-6.461-.122-10.061.348-1.775.701-3.185 1.35-4.792.971-1.307 2.078-2.355 2.253-3.54 1.275-8.644 2.336-17.319 3.525-25.976.383-2.784.949-5.543 1.455-8.453 2.541.916 4.086 1.473 5.606 2.049-.025.018-.023-.043.126.23.784.771 1.42 1.269 2.366 1.939 1.68.504 3.05.836 4.568 1.373 2.929 1.592 5.241 1.74 6.102-2.112.027-.083.2-.106.583-.063 6.53-.248 5.176-5.755 6.51-9.165 1.772-4.532.141-6.863-4.666-8.71.105-.07-.099.08-.294-.154-1.323-1.026-2.655-1.67-3.927-2.462.059-.149.356-.03.061-.261-.685-.54-1.075-.848-1.41-.835-.359.355-.772.389-1.237.35-.213-.188-.35-.157-.75.126-.883.066-1.48.028-2.276-.279-.755-2.545-1.318-4.82-1.869-7.099-.463-1.916-.912-3.835-1.501-5.923-.272-.44-.297-.722-.038-1.367 1.057-6.263-.94-9.462-6.244-9.714-3.09-.146-6.267.399-9.325 1.026-3.31.678-5.225 2.752-4.69 6.389-.002-.035.068-.035-.138.062-.28.728-.356 1.358-.457 2.211-.027.223-.312.57-.6.773-3.5 5.747-7.31 9.009-14.56 10.174-5.832.936-7.882 8.03-7.572 14.878.27 5.985 4.196 8.324 8.389 9.87 3.028 1.117 6.822.173 10.274.123 2.934-.043 5.868-.121 8.811.143-.086.748-.182 1.17-.603 1.706-4.714 3.323-7.132 14.017-5.083 21.153a42 42 0 0 1-.807 3.372c-.194.405-.513.47-.868.568-1.46 1.233-3.013 2.177-3.593 3.536-3.05 7.15-5.787 14.432-8.798 21.6-.617 1.469-1.71 2.94-2.972 3.899-3.803 2.885-5.084 6.394-3.465 10.914 0 0-.032-.057-.359-.005-2.336 1.434-4.78 2.462-6.259 4.277-2.69 3.302-4.477 7.352-7.232 10.586-5.17 6.066-10.677 11.854-16.206 17.6-3.663 3.807-7.381 7.624-11.486 10.925-5.302 4.265-10.879 8.23-16.61 11.899-2.657 1.7-5.959 2.39-8.985 3.522-.018-.018-.01.045-.037.386-.675 1.443-1.322 2.546-2.087 3.614-.361-.075-.597-.045-1.067.156-1.426.363-2.608.63-4.082 1.066-7.908 3.117-15.386 6.53-23.19 8.842-4.996 1.48-10.53 1.029-15.72 2-6.356 1.19-7.748.355-7.786-6.285-.064-11.292-.126-22.585-.005-33.876.257-23.958.812-47.913.894-71.87.051-15.092-.566-30.184-.81-45.277-.062-3.82-.008-7.656.286-11.463.382-4.939 1.379-9.845 1.536-14.784.265-8.342 2.246-11.164 10.248-12.93 1.098-.243 2.32.073 3.484.13l.317 1.29c-1.46.863-2.879 1.808-4.388 2.574-4.196 2.129-5.706 5.867-6.061 10.204-.045.548 1.11 1.193 2.1 1.84 2.203-.142 4.014-.328 6.096-.228 2.37.57 4.484 1.145 6.566 1.049 1.936-.09 3.922-.691 5.736-1.433 2.479-1.013 5.24-1.923 7.118-3.687 2.984-2.802 5.67-5.487 10.174-5.51 1.733-.008 3.498-.977 5.185-1.664 8.325-3.394 16.652 1.539 18.206 11.478-1.932-.398-3.608-.846-5.313-1.075-3.75-.503-7.67-1.669-10.567 2.13 0 0-.233.157-.653-.116-6.492-3.166-15.478 3.772-15.969 11.73 0 0-.008-.078-.302-.008-2.645.836-4.07 2.093-2.8 4.783m6.749 303.867-.653-.096-.02.366c.22-.016.44-.032.673-.27"/><path fill="#9A321D" d="M329.737 355.962a5.1 5.1 0 0 1-.397-1.67c-.034-.693-.166-.98-.299-1.266-.455-1.534-.91-3.067-1.347-5.345-.299-1.744-.616-2.743-.933-3.742-.206-.209-.314-.46-.188-1.428-.028-2.795-.136-4.92-.367-7.033-.339-3.088.635-5.159 3.999-5.541 0 0 .245.402.12.862.173 1.368.473 2.276.773 3.184 11.969 27.053 26.824 52.113 48.51 72.76 25.794 24.557 55.678 39.94 91.607 42.47.476.033.94.23 1.799.45v27.03c-54.421-1.996-110.765-31.734-136.617-100.706-.524-1.755-1.075-2.886-1.626-4.017 0 0-.316-.3-.19-.808 1.21-6.333-1.941-10.724-4.844-15.2"/><path fill="#99301C" d="M476.991 640.993c1.546.721 2.819 3.932 5.148.416 2.17 2.955 4.205 5.927 5.777 9.126.909 1.848 1.827 4.228 1.423 6.081-1.11 5.098-3.26 9.972-4.343 15.074-.919 4.322-4.368 8.581-1.097 13.285.096.307.173.618.303 1.296.253.586.486.721.771.767.443.188.886.376 1.915.776 2.344.083 4.1-.097 5.86-.164 4.88-.186 10.192-1.605 14.53-.147 4.988 1.676 9.676 5.355 13.485 9.17 5.564 5.574 12.053 8.416 19.544 9.717 9.114 1.584 9.252 1.729 3.837 8.73-9 11.635-22.558 10.828-32.75 1.422-4.151-3.83-8.276-8.769-14.95-8.748 0 0-.183-.018-.181-.448-1.062-2.254-1.716-4.918-3.293-5.687-1.953-.952-4.772-.745-7.016-.205-1.016.245-2.216 2.516-2.184 3.84.137 5.804.066 11.727 1.214 17.373 4.022 19.783 2.619 39.283-2.228 58.656-.377 1.509-2.424 2.6-3.695 3.885-.68-1.35-1.65-2.637-1.962-4.068-.347-1.59-.104-3.31-.104-4.975-.001-36.942.037-73.885-.088-110.827-.008-2.45-1.262-4.895-1.936-7.343-.056-5.357-.111-10.715.254-16.534.87-.464 1.318-.466 1.766-.468"/><path fill="#96351D" d="M528.28 264.63c2.444-3.785 6.366-2.619 10.115-2.116 1.705.23 3.381.677 5.313 1.075-1.554-9.939-9.881-14.872-18.206-11.478-1.687.687-3.452 1.656-5.185 1.665-4.505.022-7.19 2.707-10.174 5.509-1.879 1.764-4.64 2.674-7.118 3.687-1.814.742-3.8 1.344-5.736 1.433-2.082.096-4.195-.48-6.27-1.308 8.563-.57 16.114-2.845 22.132-11.153-2.177-1-4.286-2.714-6.493-2.85-7.827-.485-17.85 2.211-22.42 14.444-.6-.6-1.756-1.246-1.711-1.794.355-4.337 1.865-8.075 6.061-10.204 1.51-.766 2.928-1.711 4.388-2.575l-.317-1.289c-1.164-.057-2.386-.373-3.484-.13-8.002 1.766-9.983 4.588-10.248 12.93-.157 4.939-1.154 9.845-1.536 14.784-.294 3.807-.348 7.643-.286 11.463.244 15.093.861 30.185.81 45.276-.082 23.958-.637 47.913-.894 71.87-.12 11.292-.059 22.585.005 33.877.038 6.64 1.43 7.475 7.787 6.285 5.188-.971 10.723-.52 15.719-2 7.804-2.312 15.282-5.725 23.192-8.453.306 1 .318 1.782.33 2.562-13.787 7.3-28.702 10.426-44.052 12.057-4.213.448-5.35-1.114-5.34-5.26.13-61.932.171-123.864-.011-185.795-.014-4.839 1.53-7.526 5.859-8.94 7.698-2.513 15.257-5.759 23.148-7.3 8.93-1.747 12.058.956 14.308 9.706 8.74-2.128 17.787-5.775 25.48 2.322 4.535 4.774 4.377 10.693 3.287 17.494-5.43-4.94-11.223-7.125-18.452-5.794"/><path fill="#96391E" d="M474.878 658.456c.767 1.987 2.02 4.432 2.029 6.882.125 36.942.087 73.885.088 110.827 0 1.664-.243 3.385.104 4.975.313 1.43 1.282 2.718 1.962 4.068 1.271-1.285 3.318-2.376 3.695-3.885 4.847-19.373 6.25-38.873 2.228-58.656-1.148-5.646-1.077-11.569-1.214-17.373-.032-1.324 1.168-3.595 2.184-3.84 2.244-.54 5.063-.747 7.016.205 1.577.77 2.231 3.433 3.27 5.598-.847-.225-1.62-.889-2.502-1.336-1.805-.916-3.67-1.716-5.51-2.564-.54 2.032-1.651 4.1-1.527 6.09.635 10.117 1.66 20.208 2.417 30.318 1.87 24.965-3.959 48.5-14.333 71.354 0-50.734 0-101.467.093-152.663M624.312 302.088c-2.934.063-5.868.141-8.802.184-3.452.05-7.246.994-10.274-.123-4.193-1.546-8.118-3.885-8.39-9.87-.31-6.848 1.74-13.942 7.574-14.878 7.25-1.165 11.06-4.427 14.505-9.748-.383 6.815 2.204 11.675 7.263 13.426 7.9 2.734 13.995-2.79 14.416-13.062.456 1.918.905 3.837 1.368 5.753.551 2.279 1.114 4.554 1.596 7.299-9.086 4.992-10.707 10.818-5.459 19.804l-5.63-2.03c-.506 2.91-1.072 5.669-1.455 8.453-1.19 8.657-2.25 17.332-3.525 25.976-.175 1.185-1.282 2.233-2.279 3.119.029-3.292.38-6.359.73-9.425.076-.423.152-.845.435-1.92 2.015-12.998 3.521-25.356 3.016-37.807l-1.841-.228zm-9.725-22.757c-.99-.102-1.978-.225-2.97-.3-5.824-.444-10.344 2.92-11.46 8.519-1.037 5.193 2.18 10.994 7.167 12.921 4.817 1.862 10.01-.509 12.796-5.841 2.81-5.382 1.219-10.338-5.533-15.3M542.995 462.998c-1.127.23-2.254.458-3.989.987-2.415.512-4.223.724-6.031.936 9.167-5.56 18.764-10.528 27.417-16.797 22.575-16.356 38.335-38.258 49.521-63.595 1.674-3.79 3.106-7.688 4.89-12.208 2.334-7.847 4.428-15.02 6.522-22.193.189-.516.378-1.033.715-2.142.719-2.401 1.29-4.21 1.862-6.019.068 3.237.52 6.522.116 9.698-.623 4.907-1.822 9.742-2.798 14.603-.192.957-.328 1.97-.748 2.832-3.608 7.405-7.592 14.644-10.856 22.196-5.624 13.015-13.115 24.745-22.506 35.33-1.3 1.466-2.138 3.354-3.121 5.086-.491.864-.578 2.131-1.272 2.68-9.603 7.587-17.246 17.707-29.604 22.712-1.121.747-1.628 1.316-2.135 1.885-1.2.489-2.4.978-4.078 1.877-1.622.984-2.763 1.558-3.905 2.132"/><path fill="#99301C" d="M476.997 496.998c.663 1.788 1.855 3.561 1.907 5.367.478 16.639.661 33.286 1.174 49.924.11 3.578 1.383 7.106 1.785 10.695.322 2.883 1.144 6.333-.021 8.64-2.953 5.849-2.895 11.858-2.826 18.026.064 5.627-.005 11.256-.038 16.883-.027 4.63.008 9.263-.19 13.886-.058 1.392-.802 2.754-1.85 4.357-1.068.225-1.517.224-1.967.223-.056-15.356-.111-30.712.208-46.772.85-2.235 1.726-3.762 1.736-5.295.099-15.707.115-31.415-.032-47.121-.015-1.614-1.236-3.216-1.898-4.823-.052-7.018-.104-14.035.179-21.66a25 25 0 0 1 1.833-2.33"/><path fill="#96391E" d="M496.65 708.042c6.468-.269 10.593 4.67 14.743 8.5 10.193 9.406 23.752 10.213 32.75-1.422 5.416-7.001 5.278-7.146-3.836-8.73-7.49-1.301-13.98-4.143-19.544-9.716-3.81-3.816-8.497-7.495-13.485-9.171-4.338-1.458-9.65-.04-14.53.147-1.76.067-3.516.247-5.501.2 8.776-5.882 20.758-6.022 28.938 1.59 10.458 9.731 22.345 15.19 36.208 17.148 1.693.239 3.312.995 5.306 1.617-5.323 4.453-10.043 8.577-14.949 12.468-9.25 7.338-19.217 8.046-29.003 1.384-5.982-4.072-11.283-9.144-17.096-14.015M524.43 436.09c-.388-.73-.4-1.511-.414-2.682 1.18-.655 2.362-.922 4.023-1.291.478-.104.949-.116.949-.116.648-1.102 1.295-2.205 1.977-3.655.034-.347.047-.362.047-.362 3.01-1.148 6.311-1.84 8.967-3.54 5.732-3.667 11.309-7.633 16.611-11.898 4.105-3.3 7.823-7.118 11.486-10.925 5.53-5.746 11.036-11.534 16.206-17.6 2.755-3.234 4.542-7.284 7.232-10.586 1.479-1.815 3.923-2.843 6.292-4.28-9.27 16.627-21.537 31.164-36.128 43.642-11.12 9.51-23.138 17.79-37.249 23.294"/><path fill="#99371F" d="M294.866 298.854c-.644-1.2-1.155-2.078-1.422-3.025-1.413-5.017 1.055-10.58 5.519-12.57 4.543-2.027 9.534-.53 12.154 3.642 2.851 4.543 2.01 10.561-1.956 14.007-3.802 3.302-8.684 3.039-12.996-.71-.374-.325-.703-.7-1.3-1.344M312.145 263.148c5.76-4.487 10.121-4.253 14.144.46 3.507 4.106 3.487 10.582-.042 14.12-3.919 3.93-9.507 4.285-13.43.855-4.395-3.84-4.768-9.977-.672-15.435"/><path fill="#98361D" d="M341.841 299.232c-5.033 1.951-8.902.395-11.751-3.276-2.633-3.391-2.768-7.379-.782-11.231 2.165-4.2 5.999-6.274 10.284-4.85 2.876.957 6.445 3.588 7.2 6.195.909 3.132-.65 7.086-1.563 10.573-.262.999-1.987 1.614-3.388 2.589"/><path fill="#96391E" d="M484.043 684.632c-3.415-4.36.034-8.62.953-12.942 1.084-5.102 3.232-9.976 4.343-15.074.404-1.853-.514-4.233-1.423-6.081-1.572-3.2-3.606-6.171-5.676-9.39-.23-.317-.23-.484-.001-1.102.73-1.318 1.232-2.184 1.734-3.05.92-2.118 1.84-4.236 3.203-6.861 1.17-1.562 2.533-2.622 2.523-3.669-.083-8.157-.43-16.312-.696-24.468-.01-2.698-.02-5.396-.031-8.877-.003-1.23-.006-1.675-.008-2.12l.02-3.083c.34-5.531.674-10.225 1.007-14.92.003-.44.006-.881.378-1.635.857-.282 1.346-.25 1.834-.22-1.703 11.526-2.687 22.995.065 34.572 3.043 12.8.414 24.8-6.726 36.277 9.663 8.151 6.237 17.88 3.295 27.54-1.503 4.934-3.097 9.84-4.794 15.103"/><path fill="#99301C" d="M507.008 586.99c1.363.772 3.39 1.212 3.97 2.375 2.257 4.529 4.716 9.132 5.858 13.999 1.443 6.153 2.463 12.26 6.509 17.432.738.944.79 2.874.435 4.148-1.898 6.818-1.55 7.416 5.67 8.192.655.07 1.301.225 2.407.456-2.735 2.328-5.925 4.54-9.024 6.687-5.743-17.154-11.32-33.808-16.774-51.074.39-1.14.66-1.668.934-2.2.005-.003.015-.015.015-.015"/><path fill="#96391E" d="M476.947 496.8c-.45.772-.95 1.347-1.7 2.067-.251-6.489-.251-13.123-.251-20.336 18.908-2.071 37.507-5.381 55.395-12.498-.623 1.82-1.518 3.388-2.412 4.956-5.416 1.61-10.832 3.219-17.009 4.927-3.167.756-5.574 1.414-7.981 2.071-6.791.889-13.583 1.777-20.968 2.907-2.017 1.924-4.169 3.41-4.687 5.336-.74 2.754-.286 5.83-.342 8.768-.032.534-.063 1.069-.045 1.801M444.212 259.194c-2.712-2.183-5.08-4.183-7.745-6.433 4.032-4.345 8.389-3.102 12.665-2.034 7.73 1.93 11.36 5.138 12.866 11.316-5.845-.893-11.643-1.78-17.786-2.849"/><path fill="#994725" d="M330.187 329.54c-3.346.78-4.32 2.85-3.981 5.938.231 2.112.339 4.238.438 6.837-1.958-11.321-4.044-23.093-5.663-34.93-.808-5.903-.76-11.924-1.133-18.46 3.546 13.816 6.933 27.018 10.339 40.616"/><path fill="#F2AB86" d="M624.321 302.415c1.074-5.352 2.156-10.378 3.239-15.404l1.841.228c.505 12.451-1.001 24.81-3.032 37.483-2.05-.727-3.33-4.098-6.385-1.358 1.176-6.65 2.618-13.004 4.06-19.358.095-.421.191-.843.277-1.591"/><path fill="#96391E" d="M598.394 368.945c-1.88-4.302-.6-7.81 3.203-10.696 1.263-.958 2.355-2.43 2.972-3.9 3.01-7.167 5.748-14.45 8.798-21.599.58-1.359 2.134-2.303 3.55-3.163-.447 2.654-1.205 5.033-1.962 7.412-5.433 10.576-10.865 21.152-16.56 31.946M474.891 521.45c.756 1.145 1.977 2.747 1.992 4.36.147 15.707.13 31.415.032 47.122-.01 1.533-.887 3.06-1.652 4.833-.349-18.456-.407-37.154-.372-56.315"/><path fill="#99301C" d="M492.554 571.157c-.84-.047-1.328-.079-2.183-.127 1.05-2.972 3.328-2.705 5.946-1.89 7.291 2.269 10.542 7.267 10.335 14.755-.023.82.164 1.645.305 2.782.051.313.04.325-.287.327-.758.002-1.188.001-1.618 0-2.151-3.85-4.046-7.879-6.56-11.475-1.293-1.85-3.69-2.929-5.938-4.372"/><path fill="#96351D" d="M511.5 276.098c.197-7.798 9.183-14.736 15.537-11.598-4.892 3.977-10.067 7.708-15.536 11.598"/><path fill="#96391E" d="M623.718 304.12c-1.116 6.24-2.558 12.594-4.01 19.35-.26.766-.51 1.128-.916 1.647-2.206-6.98.212-17.673 4.926-20.996"/><path fill="#F2AB86" d="M621.018 350.3c-1.787 7.001-3.881 14.174-6.15 21.64-.645-1.415-1.945-3.434-1.44-4.774 2.135-5.674 4.807-11.147 7.59-16.865M623.896 341.604c-.565 2.172-1.137 3.98-1.876 6.104-.425-2.046-1.297-4.544-.81-6.739 1.022-4.602 2.76-9.046 4.472-13.779-.082 2.842-.433 5.909-.757 9.397-.328 1.832-.681 3.242-1.03 5.017"/><path fill="#99301C" d="M528.332 470.905c.541-1.484 1.436-3.051 2.44-4.94.618-.56 1.123-.798 1.916-1.04 2.095-.216 3.903-.428 6.007-.787 1.517 1.83 2.145 3.26-1.22 3.83-3.005.508-5.865 1.868-9.143 2.937"/><path fill="#994725" d="M329.723 356.327c2.917 4.11 6.068 8.502 4.804 14.624-1.725-4.555-3.271-9.408-4.804-14.624"/><path fill="#96391E" d="M474.88 625.458c.54-.458.99-.457 1.777-.454.337 5.02.336 10.038.335 15.523-.45.468-.898.47-1.683.473-.398-5.027-.46-10.055-.43-15.542"/><path fill="#F2AB86" d="M615.237 336.821c.475-2.201 1.233-4.58 2.035-7.332.043-.373.362-.438.523-.465a63 63 0 0 1-2.558 7.797"/><path fill="#96351D" d="M508.36 280.836c-1.527-2.493-.101-3.75 2.582-4.59-.553 1.415-1.439 2.904-2.581 4.59"/><path fill="#994725" d="M331.236 333.774c-.438-.699-.738-1.607-.875-2.742.446.693.729 1.612.875 2.742M334.828 372.323c.494.778 1.045 1.909 1.514 3.31-.54-.805-.998-1.881-1.514-3.31"/><path fill="#99301C" d="M533.056 633.424a6 6 0 0 1 1.764-1.029c-.388.405-.942.639-1.764 1.03"/><path fill="#9B301D" d="M505.036 587.304c.446-.299.876-.298 1.629-.296.054.53-.215 1.057-.656 1.827-.444-.25-.716-.74-.973-1.531"/><path fill="#994725" d="M326.737 344.34c.341.598.658 1.597.978 3-.332-.598-.667-1.598-.978-3M329.033 353.283c.14.03.273.316.3.666-.172-.094-.24-.251-.3-.666"/><path fill="#96391E" d="M484.795 686.833c-.107.16-.34.024-.594-.321.09-.043.253.036.594.321"/><path fill="#F5BE8C" d="M201.257 156.124c.443.08 1.134.284 1.783.682-.54-.057-1.038-.307-1.784-.682"/><path fill="#F4C08C" d="M151.932 146.894c.042-.035.172.196.172.196s-.213-.162-.172-.196"/><path fill="#F4B88A" d="M640.47 267.847c-.287 10.443-6.382 15.966-14.282 13.232-5.06-1.75-7.646-6.611-6.974-13.63.053-.425.338-.772.498-1.236.283-.998.406-1.533.53-2.067 0 0-.07 0 .231-.132 5.98-5.694 10.477-6.609 15.117-2.764 1.838 1.523 3.132 3.704 4.673 5.585-.089.29-.064.571.208 1.012M638.085 300.892c-5.224-9.005-3.603-14.83 5.68-19.554.872-.162 1.47-.124 2.475-.119.408-.033.678-.125.678-.125.414-.033.827-.067 1.244.03.551.29 1.1.452 1.647.613 0 0-.297-.118-.171.273 1.329 1.129 2.531 1.866 3.734 2.603.203-.149.407-.298.452.107 4.091 6.917 3.449 11.822-2.377 17.496 0 0-.173.023-.503.29-2.203.752-4.076 1.237-5.948 1.722-1.37-.331-2.738-.663-4.571-1.432-1.097-.94-1.73-1.444-2.363-1.947 0 0-.002.061.023.043"/><path fill="#F5B58A" d="M484.628 263.583c4.18-12.278 14.203-14.974 22.03-14.49 2.207.137 4.316 1.85 6.493 2.851-6.018 8.308-13.57 10.583-22.402 10.867-2.108.445-3.92.631-6.121.772"/><path fill="#99301C" d="M488.846 602.338c.423 7.813.77 15.968.853 24.125.01 1.047-1.353 2.107-2.382 3.359-.37-5.837-.652-11.88-.417-17.904.121-3.098 1.164-6.16 1.946-9.58"/><path fill="#96391E" d="M640.433 266.48c-1.711-1.526-3.005-3.707-4.843-5.23-4.64-3.845-9.136-2.93-15.115 2.799-.836-3.505 1.08-5.579 4.389-6.257 3.058-.627 6.235-1.172 9.325-1.026 5.304.252 7.3 3.451 6.244 9.714M651.83 302.26c5.443-5.718 6.085-10.623 1.686-17.322 4.965 1.293 6.596 3.624 4.824 8.156-1.334 3.41.02 8.917-6.51 9.165"/><path fill="#99301C" d="M477.27 494.788c-.222-2.729-.676-5.804.064-8.558.518-1.926 2.67-3.412 4.375-5.169-1.199 4.456-2.68 8.987-4.44 13.727M489.66 573.156c-.002 4.534-.336 9.228-.677 14.384-2.958-3.818-2.796-10.514.677-14.384M543.16 463.262c.977-.838 2.118-1.412 3.545-2.13.465 1.11.646 2.364.827 3.618-1.402-.408-2.804-.816-4.372-1.488M503.327 478.143c2.069-.813 4.476-1.471 7.28-2.137-1.183 3.522-3.96 3.23-7.28 2.137"/><path fill="#96391E" d="M645.145 304.434c1.723-.691 3.596-1.176 5.772-1.845-.531 3.585-2.843 3.437-5.772 1.845M653.38 284.23c-1.21-.354-2.413-1.091-3.801-2.071a13.5 13.5 0 0 1 3.801 2.071"/><path fill="#99301C" d="M483.716 637.088c-.245.77-.747 1.637-1.477 2.704.254-.735.737-1.672 1.477-2.704M514.846 585.011c-.226.127-.446.143-.666.159l.02-.366c.217.032.435.064.646.207"/><path fill="#96391E" d="M620.036 264.243c.082.437-.041.972-.298 1.747-.058-.389.017-1.02.298-1.747"/><path fill="#99301C" d="M551.232 458.848q.38-.642 1.52-1.707-.38.643-1.52 1.707M488.795 591.105c.171.338.174.783.17 1.563-.117-.263-.227-.86-.17-1.563"/><path fill="#96391E" d="M638.21 301.122c.485.23 1.118.734 1.903 1.502-.483-.233-1.118-.73-1.902-1.502M646.867 281.022c.05.072-.22.164-.343.093-.008-.25.13-.281.343-.093"/><path fill="#96351D" d="M528.871 431.967c.117.034-.354.046-.589.052-.008-.097.228-.127.589-.052"/><path fill="#96391E" d="M530.992 428.006c-.008.006-.015-.057.003-.04s.004.033-.003.04M649.514 281.507c-.253.07-.801-.092-1.407-.705.332-.143.722.165 1.407.705"/><path fill="#F5B98B" d="M614.952 279.502c6.387 4.79 7.979 9.746 5.168 15.128-2.785 5.332-7.98 7.703-12.796 5.841-4.986-1.927-8.204-7.728-7.168-12.921 1.117-5.598 5.637-8.963 11.46-8.52.993.076 1.981.2 3.336.472"/></svg>