<svg preserveAspectRatio="xMidYMid meet" viewBox="6.80708 0 293.4689265536723 293.08799999999997" xmlns="http://www.w3.org/2000/svg" version="1.0" style="max-height: 500px" width="293.4689265536723" height="293.08799999999997">

<g stroke="none" fill="#000000" transform="translate(0.000000,426.000000) scale(0.100000,-0.100000)">
<path style="opacity: 1; visibility: visible; fill: rgb(168, 2, 48); stroke: rgb(168, 2, 48);" data-index="0" d="M0 2130 l0 -2130 1510 0 1510 0 0 2130 0 2130 -1510 0 -1510 0 0&#10;-2130z m1780 1886 c450 -98 815 -424 955 -852 47 -144 60 -228 60 -399 0 -172&#10;-14 -263 -61 -405 -125 -375 -429 -679 -804 -804 -312 -104 -656 -85 -946 53&#10;-145 69 -245 140 -360 255 -247 248 -374 552 -374 901 0 206 40 380 128 560&#10;184 375 532 632 947 701 104 17 354 12 455 -10z m482 -2944 c-4 -193 -2 -212&#10;13 -212 30 0 11 -33 -27 -46 -33 -11 -39 -11 -47 4 -8 14 -13 14 -36 4 -45&#10;-21 -75 -15 -110 23 -40 41 -49 100 -27 159 17 43 56 66 132 75 l45 6 -3 65&#10;c-2 41 -9 69 -18 76 -24 19 -16 43 19 53 65 19 62 27 59 -207z m479 -13 c-2&#10;-180 -1 -207 13 -212 29 -11 17 -36 -21 -46 -50 -14 -53 -14 -53 5 0 11 -5 14&#10;-17 9 -60 -25 -69 -27 -95 -16 -40 15 -68 67 -68 124 0 90 48 137 140 137 44&#10;0 43 -3 40 80 -1 39 -7 61 -21 76 -26 27 -24 32 14 43 74 22 71 30 68 -200z&#10;m-731 158 c0 -14 -20 -37 -32 -37 -4 0 -12 9 -18 21 -16 28 4 53 31 38 10 -5&#10;19 -15 19 -22z m-897 11 c5 -16 -10 -48 -23 -48 -13 0 -32 38 -25 50 9 14 43&#10;12 48 -2z m-580 -40 c3 -10 10 -10 30 1 21 11 35 12 62 4 20 -7 37 -7 41 -2 7&#10;12 51 12 59 0 3 -5 1 -12 -5 -16 -6 -4 -10 -62 -10 -146 l0 -139 25 6 c29 7&#10;31 -2 10 -33 -16 -23 -75 -63 -94 -63 -6 0 -11 16 -11 37 l0 37 -27 -26 c-42&#10;-39 -67 -48 -130 -48 -101 0 -153 52 -153 154 0 35 8 59 35 100 19 30 39 57&#10;45 61 20 13 9 20 -29 20 -37 0 -40 -2 -52 -38 -8 -26 -17 -36 -27 -32 -7 3&#10;-16 5 -18 5 -2 0 -4 20 -4 44 0 41 3 46 38 64 29 16 56 21 124 21 61 1 88 -3&#10;91 -11z m1917 -97 c5 -11 10 -67 10 -124 0 -84 3 -106 15 -111 20 -7 19 -55 0&#10;-63 -9 -3 -24 2 -35 12 -16 14 -23 15 -34 6 -8 -7 -30 -11 -48 -9 -32 3 -33 4&#10;-36 55 l-3 52 50 23 c50 23 51 23 51 71 0 48 -13 87 -30 87 -4 0 -18 -16 -30&#10;-35 -22 -36 -40 -38 -40 -5 0 48 107 82 130 41z m-1335 -31 c3 -5 12 -7 20 -3&#10;9 3 31 2 51 -1 28 -6 34 -11 29 -25 -7 -23 33 -133 47 -129 19 7 51 109 39&#10;121 -20 20 -11 27 38 27 30 0 51 -5 53 -12 3 -9 12 -8 33 6 20 13 40 17 71 13&#10;56 -6 74 -21 74 -64 l0 -34 -47 6 c-27 3 -60 9 -75 11 -27 5 -28 4 -28 -36 0&#10;-50 22 -85 60 -99 24 -8 33 -6 55 15 31 29 35 29 35 7 -1 -36 -35 -65 -83 -70&#10;-43 -5 -49 -3 -83 31 -36 36 -37 37 -31 104 2 37 8 75 12 85 5 11 3 17 -7 17&#10;-25 0 -45 -31 -84 -132 -21 -54 -41 -98 -45 -98 -5 0 -15 21 -23 48 -48 152&#10;-78 204 -107 186 -7 -4 -10 -47 -8 -118 l3 -111 -33 -3 c-18 -2 -40 -1 -49 3&#10;-15 6 -14 9 8 27 22 18 25 28 25 92 0 39 -3 83 -8 99 -6 23 -4 29 15 37 30 12&#10;36 12 43 0z m554 -7 c9 -17 11 -17 29 1 28 25 56 17 60 -17 3 -25 1 -27 -32&#10;-27 -26 0 -38 -6 -47 -22 -16 -30 -6 -144 15 -167 21 -23 12 -31 -40 -31 -40&#10;0 -72 19 -46 28 20 6 16 168 -5 203 -16 26 -16 31 -3 39 24 15 58 12 69 -7z&#10;m235 1 c14 -14 14 -18 1 -45 -9 -16 -22 -29 -29 -29 -18 0 -29 27 -13 33 7 2&#10;9 8 5 12 -11 12 -38 -2 -38 -20 0 -8 16 -32 35 -54 43 -47 53 -89 31 -124 -35&#10;-53 -136 -40 -136 18 0 30 15 33 30 5 12 -23 52 -27 70 -6 9 12 4 23 -29 59&#10;-22 24 -45 55 -50 70 -12 32 -1 70 26 86 27 16 79 13 97 -5z m99 -116 l-1&#10;-133 -32 -3 c-18 -2 -39 -1 -48 3 -13 5 -11 10 11 31 24 22 27 32 27 89 0 35&#10;-5 76 -11 92 -8 23 -7 30 7 40 10 7 25 13 33 13 14 0 16 -19 14 -132z m-1166&#10;111 c8 -8 21 -8 46 0 81 27 120 -12 116 -116 -1 -37 1 -82 5 -100 8 -37 -3&#10;-48 -41 -38 -26 6 -26 6 -20 88 7 94 -4 130 -43 135 -45 5 -59 -16 -62 -94 -3&#10;-59 0 -76 16 -93 27 -29 10 -45 -35 -33 l-34 8 4 106 c3 95 1 107 -15 117 -17&#10;9 -17 12 -4 21 20 13 53 13 67 -1z m-101 -368 c-3 -14 -8 -106 -11 -204 -5&#10;-171 -5 -179 14 -184 25 -6 17 -27 -15 -42 -35 -15 -54 -14 -54 5 0 12 -5 14&#10;-17 8 -32 -14 -90 -16 -112 -4 -58 30 -77 120 -41 190 21 42 37 50 119 59 l55&#10;6 -3 70 c-2 55 -7 75 -23 92 -16 18 -18 23 -7 27 68 22 75 23 87 13 7 -6 11&#10;-21 8 -36z m859 9 c8 -13 -13 -50 -29 -50 -23 0 -26 -25 -26 -196 l0 -164 35&#10;-14 c40 -17 46 -35 13 -37 -110 -6 -162 -3 -165 9 -3 6 2 12 10 12 34 0 48 35&#10;45 111 l-3 74 -122 3 -123 3 0 -77 c0 -80 14 -114 47 -114 8 0 13 -6 11 -12&#10;-3 -9 -31 -13 -94 -13 -72 0 -89 3 -89 15 0 8 10 16 23 18 35 5 42 39 42 201&#10;0 152 -5 171 -42 171 -16 0 -38 27 -38 49 0 10 175 5 192 -5 15 -10 8 -34 -10&#10;-34 -29 0 -43 -39 -40 -110 l3 -65 105 -3 c97 -3 106 -1 123 19 21 27 23 106&#10;2 136 -8 12 -25 23 -38 25 -14 2 -22 10 -22 22 0 18 8 20 73 22 41 1 76 5 80&#10;8 9 9 30 7 37 -4z m555 -220 c3 -118 9 -223 14 -232 7 -16 3 -18 -37 -18 -53&#10;0 -64 10 -36 33 17 16 19 31 19 197 0 153 -2 180 -15 180 -8 0 -15 7 -15 16 0&#10;20 30 45 50 41 13 -2 16 -37 20 -217z m418 105 c7 -16 12 -79 12 -156 0 -121&#10;1 -131 19 -136 25 -6 31 -22 20 -51 -5 -14 -17 -22 -32 -22 -14 0 -31 10 -40&#10;22 -14 21 -16 22 -33 7 -11 -9 -34 -19 -51 -22 -29 -6 -35 -3 -49 24 -31 61&#10;-1 120 79 153 36 15 37 16 37 70 0 75 -14 108 -43 104 -15 -2 -25 -14 -33 -38&#10;-13 -40 -39 -51 -47 -20 -4 15 5 30 30 55 30 29 44 35 78 35 35 0 44 -4 53&#10;-25z m-1603 -77 c27 -12 41 -47 31 -74 -5 -13 -14 -14 -49 -8 -23 4 -55 8 -72&#10;8 -27 1 -30 -3 -33 -32 -2 -24 4 -43 22 -66 33 -44 68 -51 97 -20 21 22 39 24&#10;39 4 0 -5 -12 -22 -26 -39 -20 -24 -34 -31 -60 -31 -70 0 -107 36 -118 113&#10;-14 107 78 187 169 145z m1093 -35 c14 -19 15 -42 4 -61 -6 -9 -21 -10 -62 -2&#10;-87 17 -90 16 -90 -31 0 -31 6 -47 29 -70 35 -35 63 -37 91 -7 14 15 23 19 31&#10;11 7 -7 2 -20 -16 -42 -23 -27 -33 -31 -75 -31 -65 0 -95 30 -104 105 -10 89&#10;17 134 93 155 33 9 82 -5 99 -27z m180 21 c17 -5 22 -14 22 -40 0 -43 29 -116&#10;44 -111 6 2 19 26 29 53 14 37 16 53 8 66 -17 27 -15 28 46 28 59 0 62 -9 12&#10;-34 -16 -8 -34 -41 -62 -118 -22 -59 -44 -105 -48 -102 -5 3 -15 28 -24 57&#10;-25 85 -59 161 -78 175 -32 25 -2 40 51 26z m-579 -11 c23 -6 23 -8 17 -84 -6&#10;-70 -4 -81 13 -98 17 -17 25 -19 50 -10 17 6 32 18 35 27 10 34 -2 113 -20&#10;133 -23 26 -6 39 39 30 l32 -7 0 -92 c0 -71 3 -95 15 -102 13 -9 13 -11 0 -20&#10;-20 -13 -53 -13 -67 1 -8 8 -17 8 -31 0 -42 -22 -109 -4 -118 33 -6 27 -11&#10;186 -5 192 6 5 11 5 40 -3z"/>
<path style="opacity: 1; visibility: visible; fill: rgb(168, 2, 48); stroke: rgb(168, 2, 48);" data-index="1" d="M1380 3993 c-235 -37 -385 -94 -560 -214 -446 -305 -641 -887 -470&#10;-1401 60 -178 149 -325 280 -462 148 -155 317 -263 507 -325 143 -46 213 -56&#10;398 -56 153 1 181 3 277 28 477 123 815 473 924 959 24 102 24 384 0 486 -133&#10;592 -634 998 -1221 991 -60 -1 -121 -4 -135 -6z m233 -35 c12 1 17 -7 17 -25&#10;l0 -26 -23 21 c-27 25 -87 31 -87 8 0 -16 21 -26 54 -26 23 0 66 -26 66 -40 0&#10;-5 -7 -16 -16 -25 -12 -12 -31 -15 -75 -13 -54 3 -59 5 -59 26 0 27 4 28 31 1&#10;14 -14 30 -19 52 -17 48 5 41 31 -10 43 -48 12 -79 37 -68 55 11 18 48 30 75&#10;23 14 -3 33 -5 43 -5z m-271 -18 c2 -5 25 -32 51 -60 40 -41 45 -50 29 -50&#10;-11 0 -29 -3 -39 -6 -14 -4 -15 -4 -4 4 32 23 -13 40 -66 26 -24 -7 -32 -33&#10;-10 -35 6 0 -1 -5 -17 -10 -29 -8 -54 -1 -28 8 6 3 12 8 12 13 0 4 12 33 26&#10;64 24 53 38 68 46 46z m-142 -62 c0 -11 -7 -10 -29 4 -10 6 -26 8 -35 5 -14&#10;-6 -14 -11 3 -54 14 -36 24 -47 38 -45 24 3 -22 -23 -57 -32 -21 -6 -22 -5 -8&#10;4 16 10 16 13 1 53 -9 23 -20 46 -24 51 -11 13 -39 -12 -39 -35 0 -11 -5 -19&#10;-11 -19 -6 0 -9 12 -7 26 3 22 14 31 73 54 64 26 71 27 83 12 6 -9 12 -19 12&#10;-24z m749 4 c38 -28 47 -47 35 -79 -21 -61 -140 -48 -172 19 -33 71 65 113&#10;137 60z m200 -152 l23 -73 19 24 c11 13 18 34 16 47 -5 27 1 27 33 2 20 -15&#10;21 -20 8 -20 -9 0 -31 -20 -48 -45 -17 -25 -35 -43 -39 -40 -5 2 -17 34 -26&#10;70 -10 36 -21 68 -25 70 -13 8 -42 -46 -37 -66 5 -18 4 -18 -24 -2 -30 18 -40&#10;37 -15 27 9 -4 24 9 42 35 23 36 25 43 13 58 -13 17 -13 17 11 2 18 -11 32&#10;-38 49 -89z m-1196 79 c-15 -15 36 -101 55 -94 25 9 0 -15 -31 -31 -18 -9 -27&#10;-11 -20 -4 8 9 5 22 -15 56 -21 35 -31 43 -47 38 -24 -8 -15 3 22 27 32 20 53&#10;25 36 8z m775 -25 c209 -43 369 -131 527 -289 149 -149 223 -276 277 -476 20&#10;-72 23 -108 23 -254 0 -146 -3 -182 -23 -255 -54 -199 -147 -356 -295 -496&#10;-107 -101 -217 -172 -345 -220 -144 -54 -232 -67 -406 -61 -184 6 -265 25&#10;-421 102 -209 102 -368 261 -470 470 -92 186 -125 365 -105 560 14 137 41 229&#10;105 360 141 289 400 489 725 559 91 20 312 20 408 0z m-888 -69 c11 -13 8 -15&#10;-20 -15 -35 0 -70 -24 -70 -47 0 -18 20 -16 58 7 89 55 115 -16 28 -77 -43&#10;-31 -45 -31 -62 -12 -17 18 -16 19 20 19 26 0 44 7 63 26 40 41 16 51 -47 19&#10;-46 -23 -54 -25 -67 -12 -22 21 -8 54 35 82 44 29 46 29 62 10z m1506 -76 c24&#10;-26 26 -30 10 -27 -16 2 -21 -5 -28 -36 -5 -21 -6 -41 -3 -44 3 -3 22 -1 43 4&#10;29 7 36 13 34 29 -4 18 -2 18 22 -4 28 -26 34 -44 12 -35 -7 3 -42 -2 -77 -10&#10;-35 -8 -67 -12 -70 -10 -4 2 1 34 10 71 10 38 16 74 14 81 -7 19 1 15 33 -19z&#10;m-1673 -102 c-2 -23 2 -27 27 -27 19 0 30 6 33 18 4 16 4 16 12 -1 11 -27 -21&#10;-60 -47 -46 -22 12 -54 4 -62 -16 -6 -17 29 -39 46 -29 7 4 2 -7 -10 -24 -28&#10;-39 -42 -48 -35 -24 5 22 -60 77 -83 68 -21 -8 -4 19 45 72 46 50 77 54 74 9z&#10;m1856 -119 c41 -65 46 -103 14 -102 -18 0 -23 -5 -23 -23 0 -18 -6 -23 -25&#10;-23 -17 0 -32 12 -53 43 -39 56 -57 91 -43 83 17 -11 101 43 94 60 -11 29 5&#10;12 36 -38z m-2014 -44 c14 -6 13 -8 -7 -18 -12 -6 -29 -24 -38 -39 -13 -24&#10;-13 -29 0 -37 23 -15 35 -6 33 23 -1 24 0 25 23 15 27 -12 32 -28 10 -28 -8 0&#10;-18 -5 -21 -10 -8 -13 13 -40 30 -40 18 0 38 55 31 85 -7 27 5 33 23 11 10&#10;-12 4 -29 -26 -85 -21 -39 -41 -71 -45 -71 -4 0 -5 6 -2 14 7 19 -77 68 -93&#10;54 -7 -6 -13 -8 -13 -5 0 8 71 137 75 137 2 0 11 -3 20 -6z m2139 -212 c14&#10;-40 23 -72 21 -72 -2 0 -11 -3 -20 -6 -13 -5 -15 -2 -9 20 9 39 -3 76 -26 76&#10;-28 0 -33 -17 -11 -39 16 -16 17 -20 4 -25 -8 -3 -22 -6 -30 -6 -13 0 -13 3&#10;-3 15 18 22 -2 42 -29 29 -18 -8 -19 -11 -5 -42 7 -19 23 -36 34 -39 23 -6 27&#10;-23 5 -23 -8 0 -18 -1 -21 -2 -4 -2 -19 32 -34 75 -15 42 -23 77 -19 77 5 0 9&#10;-4 9 -9 0 -5 23 -2 50 7 30 9 50 22 50 31 0 25 9 7 34 -67z m-2205 -67 c23&#10;-21 41 -44 41 -50 0 -7 -28 -20 -62 -30 -35 -10 -69 -23 -77 -29 -12 -9 -13&#10;-7 -8 14 4 14 7 31 7 38 0 6 5 12 11 12 5 0 7 -4 4 -10 -8 -13 9 -13 57 2 l39&#10;11 -32 33 c-26 27 -35 31 -46 22 -12 -10 -13 -6 -7 18 10 43 16 50 25 28 4&#10;-10 25 -37 48 -59z m2261 -120 c0 -8 -18 -42 -40 -77 -21 -34 -37 -64 -35 -66&#10;9 -9 75 10 76 21 1 15 17 -23 18 -42 1 -11 -2 -11 -14 -1 -10 8 -31 10 -65 5&#10;-62 -9 -63 -3 -9 82 l40 64 -38 -7 c-21 -3 -43 -13 -49 -20 -9 -12 -13 -8 -16&#10;21 -3 23 -1 32 6 25 16 -16 96 -12 102 5 7 17 24 10 24 -10z m-2310 -95 c29 0&#10;50 5 53 13 3 6 6 -5 6 -25 1 -37 -11 -49 -25 -27 -4 7 -27 10 -58 7 l-52 -4 4&#10;34 c4 28 6 32 14 18 6 -11 23 -16 58 -16z m-9 -140 c32 0 59 -2 59 -6 0 -3&#10;-18 -32 -40 -64 -22 -32 -40 -61 -40 -64 0 -4 16 -6 35 -6 28 0 38 5 45 23 8&#10;21 9 21 9 -5 1 -14 4 -35 8 -45 6 -17 5 -17 -13 -1 -14 12 -30 15 -62 11 -23&#10;-3 -42 -10 -42 -14 0 -5 -4 -9 -10 -9 -20 0 -9 37 30 95 l40 60 -32 3 c-18 2&#10;-34 -1 -36 -7 -8 -24 -22 -9 -21 22 0 17 3 26 6 20 3 -9 26 -13 64 -13z m2249&#10;-20 c0 -5 -4 -10 -10 -10 -5 0 -17 -14 -26 -31 -13 -26 -14 -37 -4 -57 14 -31&#10;26 -21 43 38 15 53 39 72 63 48 13 -13 15 -27 10 -71 -6 -48 -10 -54 -27 -50&#10;-20 6 -20 6 1 28 14 15 20 33 18 51 -5 48 -26 39 -43 -21 -19 -65 -40 -79 -67&#10;-45 -15 18 -18 32 -12 55 4 16 7 40 8 53 1 16 7 22 24 22 12 0 22 -4 22 -10z&#10;m-62 -196 c-4 -23 91 -52 103 -32 11 16 11 2 3 -41 -4 -17 -10 -31 -15 -31 -5&#10;0 -6 6 -3 14 8 20 -95 44 -107 25 -12 -19 -11 -2 2 44 10 37 23 52 17 21z&#10;m-2203 -54 c3 -5 33 -14 66 -21 33 -6 62 -15 64 -19 3 -4 -15 -32 -40 -62 -25&#10;-30 -45 -61 -45 -69 -1 -21 -16 8 -24 46 -5 22 -4 26 3 15 9 -12 15 -9 40 20&#10;17 19 30 38 31 42 0 13 -82 21 -90 8 -5 -8 -11 -1 -18 19 -10 29 -1 44 13 21z&#10;m2176 -106 c-32 -13 -51 -41 -51 -73 0 -32 15 -25 56 24 40 50 58 55 74 25 9&#10;-16 6 -31 -12 -68 -12 -26 -23 -48 -24 -50 -1 -2 -12 2 -25 8 l-22 12 30 13&#10;c31 13 43 32 43 66 0 31 -17 22 -50 -27 -24 -34 -37 -44 -53 -42 -31 4 -33 43&#10;-6 99 22 43 26 46 47 36 l23 -11 -30 -12z m-1941 -265 c0 -23 -28 -25 -36 -4&#10;-4 8 -3 22 0 31 5 13 9 14 21 4 8 -7 15 -21 15 -31z m1813 -45 c10 -10 -12&#10;-44 -28 -44 -15 0 -21 31 -8 43 8 9 28 9 36 1z m-1583 -114 c29 -26 39 -40 29&#10;-40 -22 0 -81 -68 -72 -83 9 -16 -48 26 -71 52 -19 21 -19 22 -2 39 17 16 18&#10;16 12 -4 -4 -14 -1 -28 9 -38 20 -20 29 -20 44 -2 13 16 -2 32 -19 21 -14 -9&#10;-12 7 4 28 16 20 27 23 20 3 -9 -22 16 -30 31 -10 13 17 12 21 -6 36 -16 13&#10;-25 15 -40 8 -21 -12 -26 -1 -7 18 17 17 17 16 68 -28z m1410 16 c0 -2 3 -11&#10;6 -19 4 -11 -1 -13 -20 -10 -29 6 -56 -11 -56 -34 0 -12 7 -14 28 -8 15 4 41&#10;7 57 8 25 2 30 -2 30 -22 0 -14 -11 -32 -28 -44 -26 -20 -28 -20 -45 -3 -16&#10;16 -16 17 9 11 18 -4 31 -1 43 11 28 28 4 39 -42 21 -35 -14 -42 -14 -52 -2&#10;-18 21 -5 58 27 77 29 16 43 21 43 14z m-112 -152 c3 -83 7 -81 -65 -32 -23&#10;15 -48 28 -55 28 -8 1 -6 6 6 15 22 17 40 20 31 6 -10 -16 12 -22 39 -10 29&#10;14 35 39 9 39 -15 0 -14 2 3 15 10 8 21 14 24 15 3 0 6 -34 8 -76z m-1151 31&#10;c23 -14 43 -28 43 -31 0 -3 -4 -3 -9 1 -6 3 -23 -14 -40 -38 -23 -35 -27 -47&#10;-18 -57 15 -16 -25 3 -65 32 -33 23 -38 70 -11 100 22 25 48 23 100 -7z m999&#10;-53 c-7 -22 19 -92 34 -92 25 0 6 -17 -36 -33 -35 -13 -50 -14 -60 -6 -22 18&#10;-16 48 11 61 30 14 32 55 3 50 -28 -5 -21 7 15 22 17 8 33 15 35 15 2 1 1 -7&#10;-2 -17z m-856 -85 c4 -53 2 -66 -8 -62 -8 3 -19 5 -25 5 -8 0 -7 3 2 9 10 6&#10;11 20 6 51 l-7 42 -28 -27 c-17 -16 -26 -33 -23 -42 5 -13 2 -13 -15 -4 -20&#10;11 -19 13 26 56 26 24 52 43 57 41 6 -1 12 -33 15 -69z m100 33 c0 -5 -4 -10&#10;-10 -12 -17 -5 4 -26 34 -34 26 -6 29 -5 23 15 -5 21 1 25 25 16 10 -4 -1 -22&#10;-36 -61 l-51 -56 -11 51 c-7 29 -15 62 -18 75 -5 20 -3 23 19 18 14 -2 25 -8&#10;25 -12z m607 -25 c1 -19 8 -48 16 -64 l14 -28 -49 -12 c-54 -12 -68 -9 -68 16&#10;0 12 3 13 14 3 23 -19 62 -9 58 15 -5 29 -12 32 -27 12 -11 -16 -13 -16 -19&#10;-1 -10 26 -7 32 14 27 15 -4 20 0 20 15 0 12 -5 24 -10 27 -15 9 -60 -22 -61&#10;-43 -1 -11 -4 -8 -8 8 -4 14 -7 26 -5 28 2 3 87 28 104 31 3 1 6 -15 7 -34z&#10;m-345 -15 c25 0 27 -2 18 -19 -14 -27 -13 -98 3 -105 6 -3 1 -4 -13 -3 -21 2&#10;-24 6 -22 30 4 29 -14 37 -36 15 -9 -9 -12 -7 -12 9 0 25 15 39 25 23 11 -18&#10;25 -10 25 15 0 21 -5 25 -30 25 -17 0 -33 -7 -39 -17 -9 -15 -10 -14 -11 11 0&#10;27 2 28 31 22 17 -3 45 -6 61 -6z m190 -45 c-3 -48 -1 -55 15 -56 33 -1 -18&#10;-18 -57 -18 -50 -1 -69 13 -53 38 10 16 10 26 1 46 -8 19 -14 22 -20 13 -6&#10;-10 -8 -8 -8 5 0 27 39 21 50 -8 12 -32 40 -33 40 -1 0 13 -6 27 -12 29 -7 3&#10;1 6 17 6 l30 1 -3 -55z m-237 -68 c13 -3 8 -5 -12 -6 -28 -1 -33 3 -33 21 0&#10;19 1 20 13 6 6 -9 21 -18 32 -21z"/>
<path style="opacity: 1; visibility: visible; fill: rgb(168, 2, 48); stroke: rgb(168, 2, 48);" data-index="2" d="M1310 3890 c-10 -18 -8 -20 21 -20 31 0 32 0 14 20 -10 11 -19 20&#10;-21 20 -2 0 -8 -9 -14 -20z"/>
<path style="opacity: 1; visibility: visible; fill: rgb(168, 2, 48); stroke: rgb(168, 2, 48);" data-index="3" d="M1850 3871 c-25 -47 0 -91 50 -91 30 0 60 30 60 61 0 44 -89 68 -110&#10;30z"/>
<path style="opacity: 1; visibility: visible; fill: rgb(168, 2, 48); stroke: rgb(168, 2, 48);" data-index="4" d="M1370 3753 c-75 -12 -193 -48 -259 -79 -83 -38 -191 -104 -191 -117&#10;0 -4 40 -54 88 -110 49 -57 103 -124 121 -150 17 -26 34 -47 36 -47 2 0 25 13&#10;52 30 64 40 155 71 226 77 l57 6 0 198 0 199 -52 -1 c-29 -1 -64 -4 -78 -6z"/>
<path style="opacity: 1; visibility: visible; fill: rgb(168, 2, 48); stroke: rgb(168, 2, 48);" data-index="5" d="M1540 3566 c0 -149 3 -197 13 -200 6 -2 43 -8 82 -14 218 -34 421&#10;-228 471 -451 l16 -70 57 4 c102 9 312 25 326 25 16 0 13 36 -15 152 -96 397&#10;-466 715 -867 745 l-83 6 0 -197z"/>
<path style="opacity: 1; visibility: visible; fill: rgb(168, 2, 48); stroke: rgb(168, 2, 48);" data-index="6" d="M807 3461 c-158 -168 -257 -379 -275 -589 l-8 -82 201 2 200 3 7 60&#10;c12 110 78 245 162 328 l37 37 -40 58 c-39 57 -197 244 -211 250 -4 1 -37 -29&#10;-73 -67z"/>
<path style="opacity: 1; visibility: visible; fill: rgb(168, 2, 48); stroke: rgb(168, 2, 48);" data-index="7" d="M1376 3305 c-52 -14 -173 -72 -182 -87 -3 -5 6 -29 21 -54 l27 -45&#10;26 17 c51 34 105 56 166 68 l61 13 3 51 3 52 -38 -1 c-21 0 -60 -7 -87 -14z"/>
<path style="opacity: 1; visibility: visible; fill: rgb(168, 2, 48); stroke: rgb(168, 2, 48);" data-index="8" d="M1542 3268 l3 -53 55 -8 c162 -23 309 -155 356 -322 l19 -67 50 7&#10;c27 3 51 8 53 10 8 7 -32 133 -59 187 -42 84 -145 188 -227 231 -79 42 -161&#10;67 -214 67 l-39 0 3 -52z"/>
<path style="opacity: 1; visibility: visible; fill: rgb(168, 2, 48); stroke: rgb(168, 2, 48);" data-index="9" d="M1105 3138 c-72 -84 -123 -198 -139 -310 l-5 -38 54 0 54 0 11 58&#10;c15 73 52 150 96 203 l34 41 -25 41 c-13 23 -29 43 -34 45 -5 2 -25 -16 -46&#10;-40z"/>
<path style="opacity: 1; visibility: visible; fill: rgb(168, 2, 48); stroke: rgb(168, 2, 48);" data-index="10" d="M1377 3146 c-70 -29 -107 -53 -107 -68 0 -46 142 -222 208 -257 l22&#10;-12 0 181 0 180 -32 0 c-18 0 -59 -11 -91 -24z"/>
<path style="opacity: 1; visibility: visible; fill: rgb(168, 2, 48); stroke: rgb(168, 2, 48);" data-index="11" d="M1540 2980 l0 -193 68 6 c37 4 110 9 162 12 52 3 110 8 128 11 32 5&#10;33 7 27 37 -32 152 -184 296 -333 314 l-52 6 0 -193z"/>
<path style="opacity: 1; visibility: visible; fill: rgb(168, 2, 48); stroke: rgb(168, 2, 48);" data-index="12" d="M1191 3005 c-32 -45 -63 -120 -74 -182 l-6 -33 164 0 165 0 -73 73&#10;c-42 41 -86 96 -103 129 -16 32 -32 58 -35 58 -3 0 -20 -20 -38 -45z"/>
<path style="opacity: 1; visibility: visible; fill: rgb(168, 2, 48); stroke: rgb(168, 2, 48);" data-index="13" d="M2305 2804 c-82 -7 -158 -13 -167 -13 -15 -1 -18 -11 -18 -53 0 -118&#10;-60 -269 -142 -363 l-39 -44 128 -145 c70 -79 134 -145 140 -145 18 -1 115&#10;119 173 213 86 139 140 328 140 492 l0 74 -32 -1 c-18 -1 -100 -8 -183 -15z"/>
<path style="opacity: 1; visibility: visible; fill: rgb(168, 2, 48); stroke: rgb(168, 2, 48);" data-index="14" d="M2009 2783 l-37 -4 -4 -62 c-6 -79 -39 -164 -88 -226 l-39 -49 34&#10;-38 33 -39 36 34 c72 69 136 229 136 338 0 44 -3 53 -17 51 -10 -1 -34 -3 -54&#10;-5z"/>
<path style="opacity: 1; visibility: visible; fill: rgb(168, 2, 48); stroke: rgb(168, 2, 48);" data-index="15" d="M1741 2764 c-90 -7 -165 -15 -167 -16 -4 -5 224 -262 236 -266 13 -5&#10;62 60 88 117 29 64 43 182 21 180 -8 -1 -88 -8 -178 -15z"/>
<path style="opacity: 1; visibility: visible; fill: rgb(168, 2, 48); stroke: rgb(168, 2, 48);" data-index="16" d="M529 2743 c-5 -46 7 -145 27 -222 70 -276 263 -519 513 -645 29 -15&#10;57 -24 61 -19 5 4 40 87 78 183 l70 175 -42 23 c-143 81 -244 208 -290 361 -9&#10;30 -16 69 -16 87 0 66 7 64 -206 64 -107 0 -194 -3 -195 -7z"/>
<path style="opacity: 1; visibility: visible; fill: rgb(168, 2, 48); stroke: rgb(168, 2, 48);" data-index="17" d="M966 2708 c16 -121 67 -233 143 -320 42 -47 153 -128 176 -128 11 0&#10;52 87 44 94 -2 2 -24 16 -49 33 -107 73 -176 175 -200 301 l-13 62 -53 0 -54&#10;0 6 -42z"/>
<path style="opacity: 1; visibility: visible; fill: rgb(168, 2, 48); stroke: rgb(168, 2, 48);" data-index="18" d="M1116 2713 c12 -72 43 -145 83 -198 39 -52 126 -118 145 -112 8 3&#10;146 329 146 344 0 2 -86 3 -190 3 l-191 0 7 -37z"/>
<path style="opacity: 1; visibility: visible; fill: rgb(168, 2, 48); stroke: rgb(168, 2, 48);" data-index="19" d="M1456 2549 c-38 -93 -65 -173 -61 -177 4 -4 59 -7 123 -7 106 0 122&#10;3 172 26 106 51 108 37 -30 192 -68 75 -126 137 -129 137 -4 0 -38 -77 -75&#10;-171z"/>
<path style="opacity: 1; visibility: visible; fill: rgb(168, 2, 48); stroke: rgb(168, 2, 48);" data-index="20" d="M1743 2374 c-84 -47 -191 -69 -275 -56 -35 6 -70 13 -79 17 -12 4&#10;-21 -6 -37 -45 l-21 -51 27 -11 c15 -6 79 -13 142 -16 105 -4 123 -1 194 22&#10;42 15 102 42 133 62 48 31 53 37 42 52 -25 33 -53 62 -58 61 -3 0 -34 -16 -68&#10;-35z"/>
<path style="opacity: 1; visibility: visible; fill: rgb(168, 2, 48); stroke: rgb(168, 2, 48);" data-index="21" d="M1845 2260 c-137 -92 -329 -119 -494 -70 -19 5 -35 9 -36 7 -13 -19&#10;-143 -362 -140 -367 3 -4 42 -18 87 -31 73 -21 105 -24 258 -24 197 0 250 10&#10;400 74 81 35 216 117 241 147 9 11 -15 43 -116 156 -71 79 -131 144 -134 145&#10;-3 1 -33 -15 -66 -37z"/>
<path style="opacity: 1; visibility: visible; fill: rgb(168, 2, 48); stroke: rgb(168, 2, 48);" data-index="22" d="M605 3520 c-18 -20 -18 -21 -1 -38 16 -16 18 -16 32 2 33 45 5 76&#10;-31 36z"/>
<path style="opacity: 1; visibility: visible; fill: rgb(168, 2, 48); stroke: rgb(168, 2, 48);" data-index="23" d="M2491 3401 c-12 -8 -12 -13 3 -35 17 -27 40 -34 51 -16 7 11 -20 60&#10;-33 60 -4 0 -13 -4 -21 -9z"/>
<path style="opacity: 1; visibility: visible; fill: rgb(168, 2, 48); stroke: rgb(168, 2, 48);" data-index="24" d="M2440 3365 c-16 -20 12 -65 40 -65 24 0 26 27 4 58 -18 26 -27 27&#10;-44 7z"/>
<path style="opacity: 1; visibility: visible; fill: rgb(168, 2, 48); stroke: rgb(168, 2, 48);" data-index="25" d="M2100 1799 c-13 -8 -13 -10 0 -19 27 -18 39 -9 22 17 -5 8 -12 9 -22&#10;2z"/>
<path style="opacity: 1; visibility: visible; fill: rgb(168, 2, 48); stroke: rgb(168, 2, 48);" data-index="26" d="M907 1822 c-28 -30 -16 -82 17 -82 16 0 58 70 52 86 -8 20 -50 17&#10;-69 -4z"/>
<path style="opacity: 1; visibility: visible; fill: rgb(168, 2, 48); stroke: rgb(168, 2, 48);" data-index="27" d="M1946 1707 c-25 -19 -14 -50 16 -45 27 4 32 18 16 41 -12 15 -16 16&#10;-32 4z"/>
<path style="opacity: 1; visibility: visible; fill: rgb(168, 2, 48); stroke: rgb(168, 2, 48);" data-index="28" d="M1220 1666 c0 -8 4 -17 9 -20 11 -7 33 18 24 27 -12 12 -33 7 -33 -7z"/>
<path style="opacity: 1; visibility: visible; fill: rgb(168, 2, 48); stroke: rgb(168, 2, 48);" data-index="29" d="M1623 1623 c-7 -2 -13 -13 -13 -24 0 -14 7 -19 25 -19 20 0 25 5 25&#10;25 0 24 -11 29 -37 18z"/>
<path style="opacity: 1; visibility: visible; fill: rgb(168, 2, 48); stroke: rgb(168, 2, 48);" data-index="30" d="M2091 1024 c-23 -29 -27 -79 -10 -117 26 -57 113 -71 125 -20 12 45&#10;-1 135 -21 149 -31 23 -71 17 -94 -12z"/>
<path style="opacity: 1; visibility: visible; fill: rgb(168, 2, 48); stroke: rgb(168, 2, 48);" data-index="31" d="M2564 1005 c-13 -20 -15 -38 -11 -78 8 -60 33 -86 85 -87 41 0 56 33&#10;49 108 -7 67 -20 82 -68 82 -30 0 -42 -5 -55 -25z"/>
<path style="opacity: 1; visibility: visible; fill: rgb(168, 2, 48); stroke: rgb(168, 2, 48);" data-index="32" d="M501 1139 c-28 -46 -27 -101 2 -135 26 -30 47 -26 47 9 1 28 50 91&#10;50 64 0 -10 7 -29 16 -43 16 -24 16 -25 -25 -64 -36 -34 -48 -40 -86 -40 -37&#10;0 -47 5 -64 29 -22 31 -27 66 -11 76 6 3 10 18 10 33 l-1 27 -30 -33 c-25 -28&#10;-29 -39 -23 -65 12 -59 34 -88 81 -109 45 -20 48 -20 109 -3 l64 17 0 120 c0&#10;111 -1 120 -17 113 -10 -4 -31 -7 -47 -6 -15 1 -35 -4 -42 -10 -21 -17 -31 -2&#10;-15 22 7 12 10 23 7 26 -3 3 -14 -10 -25 -28z"/>
<path style="opacity: 1; visibility: visible; fill: rgb(168, 2, 48); stroke: rgb(168, 2, 48);" data-index="33" d="M2394 922 c-20 -13 -37 -53 -26 -64 21 -21 47 -4 50 35 3 37 -3 44&#10;-24 29z"/>
<path style="visibility: visible; fill: rgb(168, 2, 48); stroke: rgb(168, 2, 48); opacity: 1;" data-index="34" d="M1458 1029 c-30 -17 -20 -29 23 -29 33 0 40 3 37 18 -4 20 -36 26&#10;-60 11z"/>
<path style="visibility: visible; fill: rgb(168, 2, 48); stroke: rgb(168, 2, 48); opacity: 1;" data-index="35" d="M562 464 c-18 -12 -22 -25 -22 -70 0 -45 4 -59 25 -79 25 -26 68 -32&#10;95 -15 9 6 15 30 16 75 2 54 -1 70 -17 86 -23 23 -66 25 -97 3z"/>
<path style="opacity: 1; visibility: visible; fill: rgb(168, 2, 48); stroke: rgb(168, 2, 48);" data-index="36" d="M2486 355 c-26 -24 -31 -40 -20 -69 7 -19 35 -21 52 -4 14 14 16 84&#10;3 92 -5 3 -20 -5 -35 -19z"/>
<path style="visibility: visible; fill: rgb(0, 0, 0); stroke: rgb(0, 0, 0); opacity: 1;" data-index="37" d="M900 483 c-8 -2 -21 -7 -29 -9 -18 -6 -4 -20 29 -27 36 -9 58 6 41&#10;27 -14 17 -17 17 -41 9z"/>
<path style="opacity: 1; visibility: visible; fill: rgb(168, 2, 48); stroke: rgb(168, 2, 48);" data-index="38" d="M1941 456 c-13 -16 4 -26 43 -26 29 0 39 10 25 27 -15 17 -53 17 -68&#10;-1z"/>
</g>
</svg>